<svg viewBox="0 0 200 200" fill="none" xmlns="http://www.w3.org/2000/svg">
    <path d="m161.468 160.75-23.718-38.563c8.255-7.646 14.014-17.604 16.526-28.572 2.511-10.9687 1.658-22.44-2.448-32.915-4.106-10.4765-11.275-19.4717-20.57-25.8133-9.296-6.3417-20.287-9.7325-31.5386-9.7325-11.2517 0-22.2433 3.392-31.5383 9.7325-9.295 6.3405-16.4642 15.336-20.57 25.8133-4.1062 10.4758-4.959 21.9467-2.448 32.915 2.5116 10.968 8.2708 20.925 16.526 28.572L37.9707 160.75c-.4147.68-.554 1.492-.3899 2.271.1634.779.6185 1.466 1.2721 1.921.653.454 1.4551.643 2.2428.527l19.6567-2.813 8.375 16.75c.265.78.8451 1.412 1.5983 1.744.7539.331 1.612.331 2.3658 0 .7533-.332 1.3334-.964 1.5983-1.744l21.125-42.25c2.6192.25 5.2562.25 7.8752 0l21.125 42.25c.265.78.845 1.412 1.598 1.744.754.331 1.612.331 2.366 0 .753-.332 1.333-.964 1.598-1.744l8.375-16.75 19.657 2.813c.781.097 1.57-.102 2.21-.561.639-.458 1.082-1.141 1.24-1.912.159-.771.02-1.573-.388-2.246h-.003ZM71.8747 171l-6.5936-13.156c-.2878-.565-.7416-1.03-1.2995-1.331-.558-.301-1.1947-.426-1.8255-.357l-15.2813 2.188 19.75-32.125c6.7063 5.029 14.4616 8.48 22.6866 10.093L71.8747 171Zm27.8434-39.875c-9.901.056-19.595-2.829-27.855-8.29-8.2592-5.459-14.7117-13.249-18.5384-22.38-3.8275-9.1312-4.858-19.193-2.961-28.9097 1.8979-9.7175 6.6374-18.6533 13.6185-25.6733 6.9819-7.0208 15.89-11.8112 25.5967-13.763 9.707-1.9525 19.7751-.9785 28.9271 2.7975 9.153 3.776 16.978 10.1842 22.485 18.4133 5.506 8.2285 8.446 17.9067 8.446 27.8067 0 13.2122-5.229 25.8865-14.545 35.2565-9.316 9.369-21.961 14.67-35.1731 14.744l-.0008-.002Zm37.7819 25c-.631-.069-1.268.055-1.826.357-.558.301-1.011.765-1.299 1.331l-6.594 13.156-17.343-34.687c8.226-1.614 15.981-5.064 22.686-10.093l19.75 32.125-15.374-2.189Z" fill="#000"/>
    <path d="M137.5 156.125c-.631-.069-1.268.055-1.826.357-.558.301-1.011.765-1.299 1.331l-6.594 13.156-17.343-34.687c8.226-1.614 15.981-5.064 22.686-10.093l19.75 32.125-15.374-2.189Z" fill="#FF6D6D"/>
    <path d="m71.8747 171-6.5936-13.156c-.2878-.565-.7416-1.03-1.2995-1.331-.558-.301-1.1947-.426-1.8255-.357l-15.2813 2.188 19.75-32.125c6.7063 5.029 14.4616 8.48 22.6866 10.093L71.8747 171Z" fill="#FF6D6D"/>
    <path d="M99.7181 131.125c-9.901.056-19.595-2.829-27.855-8.29-8.2592-5.459-14.7117-13.249-18.5384-22.38-3.8275-9.1312-4.858-19.193-2.961-28.9097 1.8979-9.7175 6.6374-18.6533 13.6185-25.6733 6.9819-7.0208 15.89-11.8112 25.5967-13.763 9.707-1.9525 19.7751-.9785 28.9271 2.7975 9.153 3.776 16.978 10.1842 22.485 18.4133 5.506 8.2285 8.446 17.9067 8.446 27.8067 0 13.2122-5.229 25.8865-14.545 35.2565-9.316 9.369-21.961 14.67-35.1731 14.744l-.0008-.002Z" fill="#F5BF5B"/>
    <path d="M99.7183 37.375c-8.6647-.056-17.1517 2.4628-24.3817 7.2363-7.2318 4.7729-12.8828 11.5867-16.2377 19.575-3.3541 7.989-4.261 16.795-2.6048 25.3 1.6562 8.505 5.8008 16.3267 11.9075 22.4737 6.1075 6.146 13.9023 10.341 22.3966 12.052 8.4942 1.711 17.3048.861 25.3168-2.442 8.01-3.302 14.86-8.91 19.68-16.11 4.82-7.2008 7.393-15.6708 7.393-24.3353 0-7.6777-2.018-15.1482-5.761-21.7017-.86-1.5059-2.824-1.88-4.259-.9056-1.422.966-1.785 2.893-.95 4.3957 3.087 5.5559 4.72 11.8222 4.72 18.2132 0 9.8972-3.912 19.3937-10.884 26.4167-6.972 7.025-16.439 11.008-26.3357 11.082-7.4284.056-14.7064-2.096-20.91-6.183-6.2039-4.087-11.054-9.923-13.9349-16.77-2.8815-6.8477-3.6646-14.3958-2.2493-21.6883 1.4147-7.293 4.9642-14.0007 10.1973-19.2734 5.233-5.2728 11.914-8.8723 19.1967-10.3425 7.2818-1.4694 14.8359-.7435 21.7049 2.086 3.697 1.5231 7.105 3.6184 10.108 6.1912 1.351 1.1569 3.398 1.1395 4.608-.164l.357-.3854c.938-1.0099.916-2.586-.109-3.5072-7.937-7.1367-18.238-11.1445-28.9687-11.2134Z" fill="#000"/>
    <path d="m128.406 70.1867-17.686-2.5625-7.907-16c-.343-.7084-.94-1.2611-1.673-1.5476-.732-.2871-1.5462-.2871-2.2786 0-.7331.2865-1.3301.8392-1.6732 1.5476l-7.9063 16-17.6867 2.5625c-.7793.1061-1.4896.5019-1.9897 1.1087-.5.6061-.7532 1.3795-.7089 2.164.0442.7851.3834 1.5247.9485 2.071l12.8125 12.5-3.125 17.5936c-.1426.777.0137 1.58.4388 2.246.4252.666 1.0873 1.146 1.8522 1.344.7649.198 1.5768.099 2.2715-.278l15.9059-8.343 15.813 8.312c.695.376 1.506.476 2.271.278.765-.198 1.428-.678 1.853-1.344.425-.666.581-1.469.438-2.246l-3.125-17.5938 12.813-12.5c.551-.5397.883-1.2636.932-2.0331.05-.7702-.188-1.5306-.666-2.136-.478-.6055-1.163-1.0124-1.922-1.1433l-.002-.0001Zm-16.593 14.4686c-.745.7201-1.084 1.761-.907 2.7814l2.219 12.9683-11.688-6.2497c-.415-.3092-.919-.4765-1.437-.4765-.5183 0-1.0222.1673-1.4375.4765L86.875 100.405l2.2186-13.031c.1771-1.0202-.1621-2.0612-.9062-2.7813l-9.375-9.1875 13.0625-1.9064c1.0097-.1458 1.8848-.776 2.3436-1.6875l5.7814-11.75 5.8441 11.6875c.459.9115 1.334 1.5417 2.343 1.6875l13.063 1.9064-9.437 9.3126Z" fill="#000"/>
    <path d="M111.813 84.6553c-.745.7201-1.084 1.761-.907 2.7814l2.219 12.9683-11.688-6.2497c-.415-.3092-.919-.4765-1.437-.4765-.5183 0-1.0222.1673-1.4375.4765L86.875 100.405l2.2186-13.031c.1771-1.0202-.1621-2.0612-.9062-2.7813l-9.375-9.1875 13.0625-1.9064c1.0097-.1458 1.8848-.776 2.3436-1.6875l5.7814-11.75 5.8441 11.6875c.459.9115 1.334 1.5417 2.343 1.6875l13.063 1.9064-9.437 9.3126Z" fill="#fff"/>
    <path d="m176.076 27.732 3.386 11.0948c.291.9562.777 1.7767 1.422 2.4256.649.6536 1.464 1.1424 2.414 1.4359l11.022 3.4079c.508.1571.793.7003.637 1.2121-.097.3187-.343.5501-.637.6422l-11.022 3.4079c-.946.2919-1.761.7824-2.41 1.4351-.649.6536-1.135 1.4733-1.426 2.4256l-3.386 11.0959c-.156.5118-.695.799-1.204.6421-.316-.0979-.546-.3454-.638-.6421l-3.385-11.0959c-.292-.9555-.778-1.776-1.424-2.4273-.647-.6503-1.462-1.1401-2.411-1.4336l-11.023-3.4079c-.509-.1571-.794-.7003-.638-1.2121.097-.3187.343-.5501.638-.6422l11.023-3.4079c.949-.2935 1.764-.783 2.411-1.4336.646-.6513 1.131-1.4719 1.424-2.428l3.385-11.0948c.156-.5118.696-.799 1.205-.6421.316.098.546.3457.637.6424ZM157.658 8.68501l2.29 7.50539c.18.5929.484 1.1039.888 1.5108.403.4061.911.7119 1.5.8934l7.457 2.3055c.508.1571.794.7002.638 1.2121-.097.3186-.343.5501-.638.6421l-7.457 2.3055c-.593.183-1.101.4873-1.5.8902-.405.4061-.707.9171-.888 1.5141l-2.29 7.5064c-.156.5119-.695.7991-1.204.6422-.317-.098-.546-.3455-.638-.6422l-2.29-7.5064c-.182-.5961-.484-1.108-.885-1.5103-.403-.4069-.911-.7118-1.504-.894l-7.457-2.3055c-.508-.1571-.793-.7002-.637-1.2121.097-.3186.343-.55.637-.6421l7.457-2.3055c.589-.1816 1.097-.4873 1.501-.8934.404-.4069.707-.9171.888-1.5108l2.29-7.50539c.156-.51186.696-.79902 1.204-.64215.317.09798.547.34546.638.64215Zm.448 8.07569-1.369-4.4868-1.369 4.4868c-.278.9086-.742 1.6916-1.363 2.3168-.62.6236-1.399 1.0926-2.301 1.3715l-4.458 1.3783 4.458 1.3782c.896.2767 1.674.7454 2.296 1.3715.627.6314 1.092 1.4129 1.368 2.3169l1.369 4.4874 1.369-4.4874c.274-.9025.74-1.6849 1.362-2.3116.627-.6305 1.404-1.1002 2.302-1.3768l4.457-1.3783-4.457-1.3782c-.903-.279-1.681-.7471-2.301-1.3715-.622-.6252-1.087-1.409-1.363-2.3168Zm19.514 22.6366-2.465-8.0767-2.464 8.0767c-.386 1.2643-1.035 2.356-1.901 3.2287-.871.8757-1.954 1.5292-3.21 1.917l-8.024 2.4809 8.024 2.481c1.256.3877 2.34 1.0413 3.206 1.9132.87.8765 1.519 1.9675 1.905 3.2316l2.464 8.0767 2.465-8.0767c.387-1.2689 1.036-2.3606 1.901-3.2316.866-.8711 1.951-1.524 3.211-1.9132l8.023-2.481-8.023-2.4809c-1.254-.3869-2.338-1.0398-3.206-1.9123-.872-.8789-1.521-1.9707-1.906-3.2334Z" fill="#000"/>
    <path d="m177.62 39.3973-2.465-8.0767-2.464 8.0767c-.386 1.2643-1.035 2.356-1.901 3.2287-.871.8757-1.954 1.5292-3.21 1.917l-8.024 2.4809 8.024 2.481c1.256.3877 2.34 1.0413 3.206 1.9132.87.8765 1.519 1.9675 1.905 3.2316l2.464 8.0767 2.465-8.0767c.387-1.2689 1.036-2.3606 1.901-3.2316.866-.8711 1.951-1.524 3.211-1.9132l8.023-2.481-8.023-2.4809c-1.254-.3869-2.338-1.0398-3.206-1.9123-.872-.8789-1.521-1.9707-1.906-3.2334Z" fill="#F5BF5B"/>
    <path d="m18.5566 109.95-2.6042-8.462c-.2243-.729-.5979-1.355-1.0942-1.85-.4987-.4985-1.1258-.8713-1.8566-1.0952l-8.47815-2.5993c-.39114-.1198-.61058-.534-.4907-.9244.07487-.2431.26398-.4196.4907-.4898L13.0016 91.93c.7277-.2226 1.3548-.5967 1.8536-1.0945.4994-.4985.8735-1.1237 1.0972-1.8501l2.6042-8.4629c.12-.3904.5351-.6095.9262-.4898.2435.0747.4204.2635.4907.4898l2.6042 8.4629c.2243.7288.5983 1.3546 1.0955 1.8513.4977.4961 1.1247.8696 1.8549 1.0935l8.4789 2.5993c.3912.1198.6106.534.4907.9244-.0748.2431-.2639.4196-.4907.4898l-8.4789 2.5993c-.7302.2239-1.3572.5972-1.8549 1.0934-.497.4966-.8705 1.1226-1.0955 1.8516l-2.6042 8.462c-.12.391-.5351.61-.9262.49-.2435-.075-.4204-.264-.4907-.49Zm14.1679 14.528-1.7611-5.725c-.1387-.452-.3724-.842-.6832-1.152-.3103-.31-.7008-.543-1.154-.682l-5.7361-1.758c-.3912-.12-.6106-.534-.4907-.925.0748-.243.2639-.419.4907-.489l5.7361-1.759c.4561-.139.8466-.371 1.154-.679.311-.309.5433-.699.6832-1.154l1.7611-5.726c.1201-.39.5351-.609.9262-.49.2435.075.4204.264.4908.49l1.7617 5.726c.1399.454.3724.845.6803 1.151.3103.311.7014.543 1.157.682l5.736 1.759c.3912.12.6106.534.4907.924-.0748.243-.2639.42-.4907.49l-5.736 1.758c-.4527.139-.8437.372-1.1541.682-.311.31-.544.699-.6832 1.152l-1.7617 5.725c-.1201.39-.5351.609-.9263.489-.2435-.074-.4203-.263-.4907-.489Zm-.3442-6.16 1.0528 3.422 1.0532-3.422c.2136-.693.5708-1.29 1.0485-1.767.4765-.476 1.0761-.833 1.77-1.046l3.4291-1.051-3.4291-1.051c-.6892-.211-1.2875-.569-1.7665-1.047-.4818-.481-.8402-1.077-1.052-1.767l-1.0532-3.422-1.0528 3.422c-.2113.689-.5696 1.285-1.048 1.763-.4825.481-1.0801.84-1.7704 1.051l-3.4291 1.051 3.4291 1.051c.6943.213 1.2926.57 1.77 1.046.4777.477.8359 1.075 1.0484 1.767Zm-15.011-17.265 1.8958 6.16 1.8959-6.16c.2969-.964.7957-1.797 1.4619-2.4627.6698-.6679 1.5036-1.1663 2.4695-1.462l6.1719-1.8923-6.1719-1.8923c-.9661-.2957-1.7998-.7942-2.4666-1.4592-.6691-.6685-1.1681-1.5007-1.4648-2.4648l-1.8959-6.1602-1.8958 6.1602c-.2981.9678-.7968 1.8005-1.4626 2.4648-.6656.6644-1.5007 1.1624-2.4695 1.4592L7.26534 95.236l6.17186 1.8923c.9643.295 1.7981.793 2.4655 1.4585.6709.6703 1.1703 1.5032 1.4666 2.4662Z" fill="#000"/>
    <path d="m17.3693 101.053 1.8958 6.16 1.8959-6.16c.2969-.964.7957-1.797 1.4619-2.4627.6698-.6679 1.5036-1.1663 2.4695-1.462l6.1719-1.8923-6.1719-1.8923c-.9661-.2957-1.7998-.7942-2.4666-1.4592-.6691-.6685-1.1681-1.5007-1.4648-2.4648l-1.8959-6.1602-1.8958 6.1602c-.2981.9678-.7968 1.8005-1.4626 2.4648-.6656.6644-1.5007 1.1624-2.4695 1.4592L7.26534 95.236l6.17186 1.8923c.9643.295 1.7981.793 2.4655 1.4585.6709.6703 1.1703 1.5032 1.4666 2.4662Z" fill="#F5BF5B"/>
    <path d="m166.662 137.381-2.084-6.785c-.164-.536-.44-.998-.808-1.366-.367-.367-.829-.643-1.365-.807l-6.786-2.084c-.462-.142-.722-.633-.58-1.096.088-.288.312-.497.58-.581l6.786-2.084c.539-.165 1.001-.44 1.365-.804.368-.368.643-.829.808-1.369l2.084-6.786c.142-.462.633-.722 1.095-.58.288.088.497.312.581.58l2.084 6.786c.165.539.44 1.001.805 1.365.367.368.829.644 1.368.808l6.786 2.084c.462.142.722.633.58 1.096-.088.288-.312.497-.58.581l-6.786 2.084c-.535.164-.998.44-1.365.807-.368.368-.644.829-.808 1.366l-2.084 6.785c-.142.462-.633.722-1.096.58-.288-.088-.497-.312-.58-.58Zm-.408-7.3 1.246 4.055 1.246-4.055c.252-.822.675-1.53 1.24-2.095.564-.564 1.273-.987 2.094-1.24l4.056-1.246-4.056-1.245c-.815-.251-1.523-.674-2.09-1.24-.57-.571-.994-1.278-1.244-2.095l-1.246-4.056-1.246 4.056c-.25.816-.673 1.523-1.239 2.09-.571.57-1.278.995-2.095 1.245l-4.056 1.245 4.056 1.246c.822.253 1.529.676 2.094 1.24.565.565.989 1.274 1.24 2.095Z" fill="#000"/>
</svg>