<svg viewBox="0 0 28 28" fill="none" xmlns="http://www.w3.org/2000/svg">
    <path d="M14 28a14 14 0 1 0 0-28 14 14 0 0 0 0 28Z" fill="#343434"/>
    <path d="M20.5 18.5a.7.7 0 0 0 .5-.8v1a.8.8 0 0 1-.5.7l-6.7 2.4h-.5l-6.6-2.4a.8.8 0 0 1-.6-.7v-1c0 .4.3.7.6.8l6.6 2.4h.5l6.7-2.4Zm0-1.7a.8.8 0 0 0 .5-.8v1a.8.8 0 0 1-.5.7l-6.7 2.4h-.5l-6.6-2.4A.8.8 0 0 1 6 17v-1c0 .3.3.6.6.8l6.6 2.4h.5l6.7-2.4Zm0-1.7a.8.8 0 0 0 .5-.8v1a.8.8 0 0 1-.5.7l-6.7 2.4h-.5L6.7 16a.8.8 0 0 1-.6-.7v-1c0 .3.3.6.6.8l6.6 2.3h.5l6.7-2.3ZM6 9.3a.8.8 0 0 1 .5-.7l6.7-2.4h.5l6.7 2.4a.8.8 0 0 1 .5.7v4.3a.8.8 0 0 1-.5.7l-6.7 2.4h-.5l-6.7-2.4a.8.8 0 0 1-.5-.7V9.3Z" fill="#fff"/>
</svg>