<svg viewBox="0 0 28 28" fill="none" xmlns="http://www.w3.org/2000/svg">
    <path d="M14 28a14 14 0 1 0 0-28 14 14 0 0 0 0 28Z" fill="#F19F13"/>
    <path d="M20 12.3h4.2l.3-1.8h-4.1c-.8 0-1.6.3-2.3.8-.2-1-2.6-.8-2.6-.8l.3-1.8h-1l-.2 1.8h-1l.3-1.8h-1l-.4 1.8h-1l-.6 2.7-.7-2.6H7.9L3.5 17h3.6l.4-1.7h-.8l2.1-3 .8 3h-.8L8.5 17h2.7l-.2 1.2h1l.3-1.2h.8l-.2 1.2H14l.2-1.2h1.4c.6 0 1.2-.4 1.6-.8.5.5 1.2.8 2 .8h4l.3-1.7h-3.7c-2.5 0-1.4-3 .1-3Zm-4.7 3h-2.7l.2-.9h2.6c.7 0 .5.8-.1.8Zm.4-2.3H13l.2-.8h2.6c.7 0 .4.8 0 .8Z" fill="#fff"/>
</svg>