<svg viewBox="0 0 28 28" fill="none" xmlns="http://www.w3.org/2000/svg">
    <path d="M14 28a14 14 0 1 0 0-28 14 14 0 0 0 0 28Z" fill="#044AAC"/>
    <path fill-rule="evenodd" clip-rule="evenodd" d="m8.8 15-2.3 2.4-1 1a9.6 9.6 0 1 1 2 2.5l.9-1 7.3-7.3a1.4 1.4 0 0 1 2.9 0l3.4 3.3a8.2 8.2 0 1 0-16 0l2.2-2.3a1.4 1.4 0 0 1 2.8 0l1.4 1.4-1 1-1-1a1.4 1.4 0 0 1-1.6 0Zm7.6-1-6.9 6.8a8.1 8.1 0 0 0 12-3.4L17.8 14a1.4 1.4 0 0 1-1.5 0Zm.8-2a.6.6 0 0 0-.5 1.2.6.6 0 0 0 1 0 .6.6 0 0 0-.5-1.1Zm-7.6 1.2a.6.6 0 1 0 0 1.3.6.6 0 0 0 0-1.3Z" fill="#fff"/>
</svg>