<svg viewBox="0 0 28 28" fill="none" xmlns="http://www.w3.org/2000/svg">
    <path d="M14 28a14 14 0 1 0 0-28 14 14 0 0 0 0 28Z" fill="#172852"/>
    <path d="M11.3 6.3a8.1 8.1 0 0 1 10.1 4.2c.3.6.5 1.2.5 1.9a19 19 0 0 0-3.9-1.6c-2.1-.8-4.4-1.3-6.4-2.4-.5-.3-1-.6-1.2-1.2 0-.5.5-.7.9-1Z" fill="#FFD83D"/>
    <path d="M6.3 11.2a8 8 0 0 1 2.3-3.4c.3 2.3 1.2 4.4 2.8 6a10 10 0 0 0 7.2 3c1 .1 2.1-.1 3.2-.3a8.1 8.1 0 0 1-14.5 2 8.2 8.2 0 0 1-1-7.3Z" fill="#FFD83D"/>
    <path d="M18 10.8c1.4.4 2.7.9 4 1.6.1.9.2 1.7 0 2.6l-1.6-1.1c-1-.9-2-1.8-2.4-3.1Z" fill="#FF6F03"/>
</svg>