<svg viewBox="0 0 28 28" fill="none" xmlns="http://www.w3.org/2000/svg">
    <path d="M14 28a14 14 0 1 0 0-28 14 14 0 0 0 0 28Z" fill="#05BCA9"/>
    <path fill-rule="evenodd" clip-rule="evenodd" d="M24.5 13.96a.18.18 0 0 1-.1.2l-.07.03-2.02 2.03.78 2.92a.18.18 0 0 1-.12.22l-2.81.76-.78 2.9a.18.18 0 0 1-.22.12l-2.96-.8-2.1 2.1a.18.18 0 0 1-.25 0l-2.08-2.07-2.87.77a.18.18 0 0 1-.22-.13l-.77-2.9-2.8-.75a.18.18 0 0 1-.14-.22l.76-2.83-2.18-2.18a.18.18 0 0 1 0-.26l2.12-2.12-.76-2.83a.18.18 0 0 1 .13-.23l2.94-.78.76-2.87a.18.18 0 0 1 .22-.12l2.78.74 2.1-2.1a.18.18 0 0 1 .26 0l2.13 2.13 2.87-.77a.18.18 0 0 1 .22.12l.02.08.01.03.74 2.75 2.94.8c.1.02.15.12.12.21l-.78 2.93 1.97 1.98a.18.18 0 0 1 .15.14Zm-2.3 1.85 1.18-1.17-1.33.61.15.57Zm.43 3-.61-2.3-1.22 1.23 1.83 1.07Zm-1.93-.71-.43 1.62 2.19-.6-1.76-1.02Zm-1.57 4.49.63-2.37-1.73.47 1.1 1.9Zm-2.2-.98-.44.44 1.74.47-1.3-.91Zm-2.78 2.28 1.65-1.65-1.65-.45v2.1Zm-.36-2.06-1.62.43 1.62 1.63v-2.06Zm-4.54.84 2.23-.6-1.2-1.2-1.03 1.8Zm-.94-2.45.5 1.85.14-1.67-.64-.18Zm-2.7-1.1 2.2.6-.45-1.64-1.76 1.05Zm1.58-1.35-1.17-1.16-.59 2.2 1.76-1.04Zm-3.05-3.56 1.7 1.7.45-1.7H4.14Zm1.82-1.38-.18-.68-1.43 1.43 1.61-.75Zm-.59-3.59.6 2.21 1.17-1.18-1.77-1.03Zm2.05.75.45-1.68-2.32.62 1.86 1.08v-.02Zm1.55-4.4-.6 2.2L10 7.37 8.97 5.6Zm2.05.8.43-.43-1.68-.45 1.25.88Zm2.77-2.28-1.65 1.66 1.65.45v-2.1Zm.36 2.14 1.68-.45-1.68-1.69v2.14Zm4.72-.9-2.34.63 1.25 1.26 1.1-1.89Zm.27 2.3.55.15-.42-1.58-.13 1.43Zm3.37 1.28L20.2 8.3l.44 1.67 1.87-1.05Zm-1.69 1.36 1.26 1.26.62-2.32-1.88 1.06Zm3.02 3.53-1.58-1.58-.42 1.58h2Zm-2.07.36.19.72 1.55-.72h-1.74Zm-.28.94.14-.07-.06-.21-.07.28Zm-.12.45-.39 1.47.93-.93-.19-.7-.35.16Zm-1.08 2.67-2 2 1.57-.42.43-1.58Zm-2.51 2.01 2.7-2.7.47-1.78-4.54 2.11 1.37 2.37Zm-.08.59-.5.5 1.34.96-.84-1.46Zm-.95.2.14.1.2-.2-.34.1Zm-.46.11-1.56.43 1.36.36.55-.55-.34-.24Zm-2.95.43-2.53-.68 1.07 1.07 1.46-.4Zm-3.99-1.64-.01.19.27.07-.26-.26Zm-.33-.33-1.2-1.2.38 1.41.78.21.04-.42Zm-1.89-2.4-.63-2.37-.37 1.36 1 1Zm-.9-3.36-.18-.67-1.42.67h1.6Zm.4-.94-.24.12.1.42.15-.54Zm.13-.45.47-1.77-1.16 1.16.22.83.47-.22Zm1.17-2.97 1.62-1.64-1.28.35-.34 1.29Zm2.34-2.36.5-.49-1.3-.9.8 1.4Zm1.02-.11-.23-.17-.3.31.53-.14Zm.45-.13 1.6-.42-1.5-.4-.52.52.42.3Zm2.99-.42 2.42.65-1.02-1.03-1.4.38Zm4 1.72.03-.27-.41-.1.38.37Zm.33.34 1.12 1.12-.38-1.45-.7-.19-.04.52Zm1.82 2.32.69 2.6.4-1.5-1.1-1.1Zm-5.06 6 .41.72 4.84-2.26.3-1.13h-2.8l-.15 1.6a.18.18 0 0 1-.33.08l-.88-1.48-1.39 2.48Zm-.68 1.23.77-.36-.3-.5-.47.86Zm-3.05-.33 4.27 3.01 1.13-.3-1.4-2.43-1.3.61a.18.18 0 0 1-.24-.25l.82-1.46-2.83.03-.45.8Zm-.18.32-1.38 2.38 3.5.94 1.88-.5-4-2.82Zm.22-1.1-1.14.01.8.57.34-.58ZM9.86 14.2l-.47 5.27.82.81 1.4-2.43-1.28-.9a.18.18 0 0 1 .1-.33l1.74-.02-1.42-2.4h-.89Zm-.36 0H6.7l.94 3.5 1.42 1.43.44-4.93Zm1.03-.36-.55-.95-.09.95h.64Zm1.27-3.34-4.74 2.2-.3 1.14h2.77l.14-1.54a.18.18 0 0 1 .33-.07l.88 1.48 1.37-2.44-.45-.77Zm-.18-.32L10.2 7.72l-2.46 2.46-.55 2.08 4.43-2.07Zm4.38.14L11.67 7.3l-1.13.3 1.41 2.45 1.4-.65a.18.18 0 0 1 .23.25l-.82 1.46 2.82-.03.42-.74Zm.18-.3 1.4-2.43-3.55-.95-1.9.51 4.05 2.86ZM16 11.05h1.02l-.72-.52-.3.52Zm2.2 3.12h-.7l.61 1.02.1-1.02Zm-5.75-3.27.55-.96-.87.4.32.57Zm3.12 5.66L17 14.02l-1.53-2.58v-.01l-2.91.03-1.47 2.62 1.5 2.52 2.96-.03h.02ZM19.02 9l-.43 4.83h2.7l-.92-3.47-1.35-1.36Zm-.79 4.83.46-5.16-.83-.83-1.38 2.4 1.2.85a.18.18 0 0 1 .01.29.18.18 0 0 1-.1.04l-1.7.01 1.4 2.4h.94Zm.56-6.26.14-1.58-.8 1.4.66.18ZM9.3 20.49l-.14 1.63.83-1.44-.69-.19Z" fill="#fff"/>
</svg>