<svg viewBox="0 0 22 22" fill="none" xmlns="http://www.w3.org/2000/svg">
<path d="M11 0.5C5.19969 0.5 0.5 5.19969 0.5 11C0.5 16.8003 5.19969 21.5 11 21.5C16.8003 21.5 21.5 16.8003 21.5 11C21.5 5.19969 16.8003 0.5 11 0.5ZM7.01562 15.5886C6.88438 15.8122 6.64391 15.9486 6.38469 15.9472C6.25484 15.9481 6.12687 15.913 6.01625 15.8459C5.66937 15.6448 5.5512 15.2009 5.75183 14.8541C5.7523 14.8531 5.75277 14.8522 5.75323 14.8512L6.46995 13.6597C6.54355 13.5345 6.67808 13.4577 6.82339 13.4581H6.92933C7.44917 13.4581 7.81292 13.7708 7.91886 14.0736L7.01562 15.5886ZM13.0836 13.2448L8.39 13.25H5.27047C4.87016 13.2514 4.54437 12.9284 4.5425 12.5281C4.54203 12.5159 4.5425 12.5042 4.54297 12.4925C4.55797 12.0988 4.90156 11.8006 5.29297 11.8006H7.55422L10.235 7.23734L9.36687 5.75844C9.17141 5.42141 9.25813 4.97703 9.59328 4.76516C9.93172 4.54625 10.3831 4.64281 10.602 4.98125C10.6072 4.98969 10.6128 4.99812 10.618 5.00703L11.082 5.79969H11.0872L11.5517 5.00703C11.757 4.65969 12.2052 4.54531 12.552 4.75109C12.5591 4.75531 12.5666 4.75953 12.5736 4.76422C12.9069 4.97609 12.9927 5.42047 12.7958 5.75891L11.9277 7.23781L11.0839 8.67641L9.25156 11.8011V11.8063H11.952C12.2905 11.8063 12.7147 11.9881 12.8862 12.2806L12.9012 12.3111C13.0527 12.5684 13.1384 12.7452 13.1384 13.0025C13.1356 13.0859 13.1169 13.168 13.0836 13.2448ZM16.7281 13.25H15.4573V13.2552L16.3864 14.8353C16.5941 15.1813 16.4862 15.6303 16.1441 15.8445V15.8445C16.0297 15.9139 15.8989 15.9504 15.7653 15.9509C15.5066 15.9504 15.267 15.815 15.1344 15.5937L13.7614 13.2565L12.9083 11.8034L11.8077 9.92183C11.4833 9.3748 11.4716 8.69792 11.7772 8.14058C11.9947 7.75667 12.1611 7.65589 12.1611 7.65589L14.6094 11.7968H16.7145C17.1083 11.7968 17.4463 12.0996 17.4645 12.4882C17.48 12.8928 17.1641 13.2335 16.7595 13.249C16.7492 13.249 16.7394 13.2495 16.7291 13.2495L16.7281 13.25Z" fill="currentColor"/>
</svg>
