
<svg width="24" height="24" viewBox="0 0 48 48" xmlns="http://www.w3.org/2000/svg">
    <!--Generated by IJSVG (https://github.com/iconjar/IJSVG)-->
    <path fill="currentColor" d="M45 2H11v0c-.56 0-1 .44-1 1v38 0c0 1.65-1.35 3-3 3 -1.66 0-3-1.35-3-3V26h3v0c.55 0 1-.45 1-1 0-.56-.45-1-1-1H3v0c-.56 0-1 .44-1 1v16 0c0 2.76 2.23 4.99 5 5h34v0c2.76-.01 4.99-2.24 5-5V3v0c0-.56-.45-1-1-1Zm-7 34H18v0c-.56 0-1-.45-1-1 0-.56.44-1 1-1h20v0c.55 0 1 .44 1 1 0 .55-.45 1-1 1Zm0-8H18v0c-.56 0-1-.45-1-1 0-.56.44-1 1-1h20v0c.55 0 1 .44 1 1 0 .55-.45 1-1 1Zm1-9v0c0 .55-.45 1-1 1H18v0c-.56 0-1-.45-1-1v-8 0c0-.56.44-1 1-1h20v0c.55 0 1 .44 1 1Z"/>
</svg>