<svg width="40" height="40" viewBox="0 0 40 40" fill="none" xmlns="http://www.w3.org/2000/svg">
<g clip-path="url(#clip0_1905_47906)">
<mask id="mask0_1905_47906" style="mask-type:luminance" maskUnits="userSpaceOnUse" x="0" y="0" width="40" height="40">
<path d="M40 0H0V40H40V0Z" fill="white"/>
</mask>
<g mask="url(#mask0_1905_47906)">
<path d="M30.9091 0H9.09091C4.07014 0 0 4.07014 0 9.09091V30.9091C0 35.9299 4.07014 40 9.09091 40H30.9091C35.9299 40 40 35.9299 40 30.9091V9.09091C40 4.07014 35.9299 0 30.9091 0Z" fill="url(#paint0_linear_1905_47906)"/>
<path d="M14.8102 29.148L8.74644 18.394C8.59528 18.1259 8.51574 17.8218 8.51574 17.5122C8.51574 17.2027 8.59528 16.8986 8.74644 16.6305L14.8102 5.88174C14.9614 5.61364 15.1788 5.39102 15.4406 5.23625C15.7025 5.08148 15.9994 4.99999 16.3018 5H28.4241C28.7265 4.99999 29.0235 5.08148 29.2853 5.23625C29.5472 5.39102 29.7646 5.61364 29.9157 5.88174L36 16.6409L33.0168 18.4045L27.4502 8.53743H17.3167L12.2473 17.5227L17.8139 27.3949L14.8102 29.148Z" fill="#9C6CFF"/>
<path d="M23.6982 35H11.5503C11.2479 35 10.9509 34.9185 10.689 34.7637C10.4272 34.6089 10.2098 34.3863 10.0586 34.1182L4 23.3748L6.97808 21.6113L12.5446 31.4835H22.6731L27.7373 22.493L22.1759 12.626L25.1539 10.8625L31.2177 21.6113C31.3688 21.8793 31.4484 22.1835 31.4484 22.493C31.4484 22.8025 31.3688 23.1067 31.2177 23.3748L25.1539 34.1288C25.0053 34.3902 24.7931 34.6079 24.5381 34.7606C24.283 34.9132 23.9936 34.9957 23.6982 35Z" fill="#05D2DD"/>
</g>
</g>
<defs>
<linearGradient id="paint0_linear_1905_47906" x1="23.4091" y1="0.5" x2="23.4091" y2="41" gradientUnits="userSpaceOnUse">
<stop offset="0.578126" stop-color="#FFFAFA"/>
<stop offset="1" stop-color="#EFEFEF"/>
</linearGradient>
<clipPath id="clip0_1905_47906">
<rect width="40" height="40" fill="white"/>
</clipPath>
</defs>
</svg>
