<svg viewBox="0 0 128 128" fill="none" xmlns="http://www.w3.org/2000/svg">
    <path d="M64 65.11c-.23 0-.45-.05-.64-.18l-48.09-28.1a1.28 1.28 0 0 1 0-2.2L63.36 6.45c.4-.22.88-.22 1.28 0l48.09 28.16a1.28 1.28 0 0 1 0 2.22l-48.09 28.1c-.2.12-.41.18-.64.17ZM18.44 35.67 64 62.35l45.56-26.63L64 9.1 18.44 35.67Z" fill="#060612"/>
    <path d="M64.37 121.6a1.28 1.28 0 0 0 .65-2.38l-1.93-1.13-45.53-26.67V35.73a1.28 1.28 0 1 0-2.56 0v56.43c0 .46.23.88.63 1.11l48.09 28.16c.2.12.42.17.65.17Z" fill="#060612"/>
    <path d="M16.28 34.45a1.28 1.28 0 0 0-.65 2.38l1.93 1.13 45.53 26.67v55.69a1.28 1.28 0 0 0 2.56 0V63.9c0-.46-.24-.89-.63-1.12L16.93 34.61c-.2-.11-.42-.17-.65-.16Z" fill="#060612"/>
    <path d="M63.09 118.09 17.56 91.42V37.96l45.53 26.67v53.46Z" stroke-width="1.5" stroke="#060612" fill="#060612"/>
    <path d="M64 121.6a1.28 1.28 0 0 1-.65-2.38l1.93-1.13 45.53-26.67V35.73a1.28 1.28 0 1 1 2.56 0v56.43c0 .46-.23.88-.63 1.11l-48.09 28.16c-.2.12-.42.17-.65.17Z" fill="#060612"/>
    <path d="M112.09 34.45a1.28 1.28 0 0 1 .65 2.38l-1.93 1.13-45.53 26.67v55.69a1.28 1.28 0 0 1-2.56 0V63.9c0-.46.23-.89.63-1.12l48.09-28.16c.2-.11.42-.17.65-.16Z" fill="#060612"/>
    <path d="M76.92 101.12a1.28 1.28 0 0 1-1.28-1.28V70.89c0-.45.24-.86.62-1.1l24.04-14.37a1.28 1.28 0 0 1 1.93 1.1v28.95c0 .45-.23.87-.62 1.1L77.57 100.9c-.2.13-.42.2-.65.22Zm1.28-29.44v25.87l21.47-12.8V58.78L78.2 71.68Z" fill="#060612"/>
    <path d="M100.95 86.75c-.23 0-.46-.07-.66-.2L76.25 72a1.28 1.28 0 0 1 1.28-2.2l24.09 14.58a1.28 1.28 0 0 1-.67 2.38Z" fill="#060612"/>
</svg>