<svg viewBox="0 0 128 128" fill="none" xmlns="http://www.w3.org/2000/svg">
    <path d="M64 65.11c-.23 0-.45-.05-.64-.18l-48.09-28.1a1.28 1.28 0 0 1 0-2.2L63.36 6.45c.4-.22.88-.22 1.28 0l48.09 28.16a1.28 1.28 0 0 1 0 2.22l-48.09 28.1c-.2.12-.41.18-.64.17ZM18.44 35.67 64 62.35l45.56-26.63L64 9.1 18.44 35.67Z" fill="#060612"/>
    <path d="M18.44 35.67 64 62.35l45.56-26.63L64 9.1 18.44 35.67Z" stroke-width="1.5" stroke="#060612" fill="#060612"/>
    <path d="M64 121.6c-.22 0-.45-.06-.64-.17L15.27 93.44c-.4-.23-.64-.65-.64-1.1V35.72a1.28 1.28 0 1 1 2.56 0V91.6l45.53 26.54v-54.3a1.28 1.28 0 1 1 2.56 0v56.48A1.28 1.28 0 0 1 64 121.6Z" fill="#060612"/>
    <path d="M64 121.6a1.28 1.28 0 0 1-.65-2.38l47.46-27.8v-55.7a1.28 1.28 0 1 1 2.56 0v56.44c0 .46-.23.88-.63 1.11l-48.09 28.16c-.2.12-.42.17-.65.17Z" fill="#060612"/>
    <path d="M51.42 101.12c-.23 0-.45-.06-.64-.18l-24.6-14.37a1.28 1.28 0 0 1-.62-1.1V56.52a1.28 1.28 0 0 1 1.92-1.1l24.59 14.37c.39.23.63.64.63 1.1v28.95a1.28 1.28 0 0 1-1.28 1.28Zm-23.26-16.4 22.02 12.8V71.68L28.16 58.75v25.97Z" fill="#060612"/>
    <path d="M26.88 86.75a1.28 1.28 0 0 1-.65-2.38L50.8 69.79A1.28 1.28 0 0 1 52.08 72L27.5 86.57c-.18.1-.4.17-.61.18Z" fill="#060612"/>
</svg>