<svg viewBox="0 0 24 24" fill="none" xmlns="http://www.w3.org/2000/svg">
<path d="M2.24996 2.78879V21.2107C2.24996 21.3227 2.34137 21.4132 2.4534 21.4127C2.50637 21.4122 2.55699 21.3911 2.59496 21.3541L12.187 11.9997L2.59496 2.64442C2.5148 2.56567 2.38637 2.56661 2.30762 2.64629C2.27012 2.68379 2.24902 2.73489 2.24902 2.78786L2.24996 2.78879Z" fill="currentColor"/>
<path d="M16.2093 8.15639L4.18216 1.53014L4.17466 1.52592C3.96747 1.41342 3.7706 1.69373 3.94028 1.85686L13.3683 10.8719L16.2093 8.15639Z" fill="currentColor"/>
<path d="M3.9412 22.1439C3.77057 22.307 3.96745 22.5873 4.17557 22.4748L4.18307 22.4706L16.2093 15.8443L13.3682 13.1279L3.9412 22.1439Z" fill="currentColor"/>
<path d="M21.0647 10.8282L17.7061 8.97852L14.5481 12.0001L17.7061 15.0202L21.0647 13.172C21.9783 12.6671 21.9783 11.333 21.0647 10.8282Z" fill="currentColor"/>
</svg>
