<svg viewBox="0 0 32 32" fill="none" xmlns="http://www.w3.org/2000/svg">
<path d="M27.5305 3.5656L17.5367 10.9881L19.3848 6.60891L27.5305 3.5656Z" fill="#E2761B" stroke="#E2761B" stroke-linecap="round" stroke-linejoin="round"/>
<path d="M4.45947 3.5656L14.3728 11.0584L12.6152 6.60891L4.45947 3.5656Z" fill="#E4761B" stroke="#E4761B" stroke-linecap="round" stroke-linejoin="round"/>
<path d="M23.9347 20.7709L21.2731 24.8487L26.968 26.4156L28.6051 20.8613L23.9347 20.7709Z" fill="#E4761B" stroke="#E4761B" stroke-linecap="round" stroke-linejoin="round"/>
<path d="M3.40491 20.8613L5.03203 26.4156L10.7269 24.8487L8.0653 20.7709L3.40491 20.8613Z" fill="#E4761B" stroke="#E4761B" stroke-linecap="round" stroke-linejoin="round"/>
<path d="M10.4055 13.8807L8.8186 16.2812L14.4733 16.5323L14.2725 10.4557L10.4055 13.8807Z" fill="#E4761B" stroke="#E4761B" stroke-linecap="round" stroke-linejoin="round"/>
<path d="M21.5845 13.8807L17.6673 10.3854L17.5367 16.5323L23.1814 16.2812L21.5845 13.8807Z" fill="#E4761B" stroke="#E4761B" stroke-linecap="round" stroke-linejoin="round"/>
<path d="M10.7269 24.8487L14.1218 23.1915L11.1889 20.9014L10.7269 24.8487Z" fill="#E4761B" stroke="#E4761B" stroke-linecap="round" stroke-linejoin="round"/>
<path d="M17.8682 23.1915L21.2731 24.8487L20.801 20.9014L17.8682 23.1915Z" fill="#E4761B" stroke="#E4761B" stroke-linecap="round" stroke-linejoin="round"/>
<path d="M21.2731 24.8487L17.8682 23.1915L18.1394 25.4112L18.1092 26.3453L21.2731 24.8487Z" fill="#D7C1B3" stroke="#D7C1B3" stroke-linecap="round" stroke-linejoin="round"/>
<path d="M10.7269 24.8487L13.8908 26.3453L13.8707 25.4112L14.1218 23.1915L10.7269 24.8487Z" fill="#D7C1B3" stroke="#D7C1B3" stroke-linecap="round" stroke-linejoin="round"/>
<path d="M13.941 19.435L11.1086 18.6014L13.1074 17.6874L13.941 19.435Z" fill="#233447" stroke="#233447" stroke-linecap="round" stroke-linejoin="round"/>
<path d="M18.049 19.435L18.8826 17.6874L20.8914 18.6014L18.049 19.435Z" fill="#233447" stroke="#233447" stroke-linecap="round" stroke-linejoin="round"/>
<path d="M10.727 24.8487L11.2091 20.7709L8.06531 20.8613L10.727 24.8487Z" fill="#CD6116" stroke="#CD6116" stroke-linecap="round" stroke-linejoin="round"/>
<path d="M20.791 20.7709L21.2731 24.8487L23.9348 20.8613L20.791 20.7709Z" fill="#CD6116" stroke="#CD6116" stroke-linecap="round" stroke-linejoin="round"/>
<path d="M23.1814 16.2812L17.5367 16.5323L18.059 19.435L18.8927 17.6874L20.9015 18.6014L23.1814 16.2812Z" fill="#CD6116" stroke="#CD6116" stroke-linecap="round" stroke-linejoin="round"/>
<path d="M11.1086 18.6014L13.1174 17.6874L13.941 19.435L14.4733 16.5323L8.8186 16.2812L11.1086 18.6014Z" fill="#CD6116" stroke="#CD6116" stroke-linecap="round" stroke-linejoin="round"/>
<path d="M8.8186 16.2812L11.189 20.9014L11.1086 18.6014L8.8186 16.2812Z" fill="#E4751F" stroke="#E4751F" stroke-linecap="round" stroke-linejoin="round"/>
<path d="M20.9015 18.6014L20.801 20.9014L23.1814 16.2812L20.9015 18.6014Z" fill="#E4751F" stroke="#E4751F" stroke-linecap="round" stroke-linejoin="round"/>
<path d="M14.4734 16.5323L13.941 19.435L14.6039 22.86L14.7546 18.3503L14.4734 16.5323Z" fill="#E4751F" stroke="#E4751F" stroke-linecap="round" stroke-linejoin="round"/>
<path d="M17.5367 16.5323L17.2655 18.3402L17.386 22.86L18.059 19.435L17.5367 16.5323Z" fill="#E4751F" stroke="#E4751F" stroke-linecap="round" stroke-linejoin="round"/>
<path d="M18.0591 19.435L17.3861 22.86L17.8682 23.1915L20.801 20.9014L20.9015 18.6014L18.0591 19.435Z" fill="#F6851B" stroke="#F6851B" stroke-linecap="round" stroke-linejoin="round"/>
<path d="M11.1086 18.6014L11.189 20.9014L14.1218 23.1915L14.6039 22.86L13.941 19.435L11.1086 18.6014Z" fill="#F6851B" stroke="#F6851B" stroke-linecap="round" stroke-linejoin="round"/>
<path d="M18.1092 26.3453L18.1394 25.4112L17.8883 25.1902H14.1017L13.8707 25.4112L13.8908 26.3453L10.7269 24.8487L11.8318 25.7527L14.0716 27.3095H17.9184L20.1682 25.7527L21.2731 24.8487L18.1092 26.3453Z" fill="#C0AD9E" stroke="#C0AD9E" stroke-linecap="round" stroke-linejoin="round"/>
<path d="M17.8682 23.1915L17.3861 22.86H14.6039L14.1218 23.1915L13.8707 25.4112L14.1017 25.1902H17.8883L18.1394 25.4112L17.8682 23.1915Z" fill="#161616" stroke="#161616" stroke-linecap="round" stroke-linejoin="round"/>
<path d="M27.9523 11.4702L28.806 7.37225L27.5304 3.5656L17.8682 10.737L21.5844 13.8807L26.8374 15.4174L28.0025 14.0615L27.5003 13.6999L28.3038 12.9667L27.6811 12.4846L28.4846 11.8719L27.9523 11.4702Z" fill="#763D16" stroke="#763D16" stroke-linecap="round" stroke-linejoin="round"/>
<path d="M3.19397 7.37225L4.0477 11.4702L3.50533 11.8719L4.30885 12.4846L3.69617 12.9667L4.49968 13.6999L3.99749 14.0615L5.15254 15.4174L10.4055 13.8807L14.1218 10.737L4.45951 3.5656L3.19397 7.37225Z" fill="#763D16" stroke="#763D16" stroke-linecap="round" stroke-linejoin="round"/>
<path d="M26.8374 15.4174L21.5845 13.8807L23.1814 16.2812L20.801 20.9014L23.9347 20.8613H28.6052L26.8374 15.4174Z" fill="#F6851B" stroke="#F6851B" stroke-linecap="round" stroke-linejoin="round"/>
<path d="M10.4055 13.8807L5.15255 15.4174L3.40491 20.8613H8.0653L11.189 20.9014L8.81859 16.2812L10.4055 13.8807Z" fill="#F6851B" stroke="#F6851B" stroke-linecap="round" stroke-linejoin="round"/>
<path d="M17.5368 16.5323L17.8682 10.737L19.3949 6.60892H12.6152L14.1218 10.737L14.4734 16.5323L14.5939 18.3603L14.6039 22.86H17.3861L17.4062 18.3603L17.5368 16.5323Z" fill="#F6851B" stroke="#F6851B" stroke-linecap="round" stroke-linejoin="round"/>
</svg>