<svg width="14" height="14" viewBox="0 0 14 14" fill="none" xmlns="http://www.w3.org/2000/svg">
<path d="M6.16675 6.5V1C6.16675 0.854 6.21358 0.734167 6.30725 0.6405C6.40091 0.546833 6.52075 0.5 6.66675 0.5C6.81275 0.5 6.93258 0.546833 7.02625 0.6405C7.11991 0.734167 7.16675 0.854 7.16675 1V6.5H12.6667C12.8127 6.5 12.9326 6.54683 13.0262 6.6405C13.1199 6.73417 13.1667 6.854 13.1667 7C13.1667 7.146 13.1199 7.26583 13.0262 7.3595C12.9326 7.45317 12.8127 7.5 12.6667 7.5H7.16675V13C7.16675 13.146 7.11991 13.2658 7.02625 13.3595C6.93258 13.4532 6.81275 13.5 6.66675 13.5C6.52075 13.5 6.40091 13.4532 6.30725 13.3595C6.21358 13.2658 6.16675 13.146 6.16675 13V7.5H0.666748C0.520748 7.5 0.400915 7.45317 0.307248 7.3595C0.213581 7.26583 0.166748 7.146 0.166748 7C0.166748 6.854 0.213581 6.73417 0.307248 6.6405C0.400915 6.54683 0.520748 6.5 0.666748 6.5H6.16675Z" fill="black"/>
</svg>
