<svg viewBox="0 0 25 24" fill="none" xmlns="http://www.w3.org/2000/svg">
<path fill-rule="evenodd" clip-rule="evenodd" d="M24.5 12C24.5 18.6274 19.1274 24 12.5 24C5.87258 24 0.5 18.6274 0.5 12C0.5 5.37258 5.87258 0 12.5 0C19.1274 0 24.5 5.37258 24.5 12ZM18.7456 10.2456C19.714 10.2456 20.5 11.0316 20.5 12C20.5 12.7158 20.0649 13.3333 19.4895 13.614C19.5175 13.7824 19.5316 13.9509 19.5316 14.1333C19.5316 16.828 16.4018 19.0035 12.5281 19.0035C8.65439 19.0035 5.52457 16.828 5.52457 14.1333C5.52457 13.9509 5.5386 13.7684 5.56667 13.6C4.94913 13.3193 4.52808 12.7158 4.52808 12C4.52808 11.0316 5.31404 10.2456 6.28246 10.2456C6.74562 10.2456 7.18071 10.4421 7.48948 10.7368C8.6965 9.85261 10.3667 9.30524 12.2333 9.2491L13.1176 5.06664C13.1456 4.98243 13.1877 4.91226 13.2579 4.87015C13.3281 4.82805 13.4123 4.81401 13.4965 4.82805L16.4018 5.44559C16.5983 5.02454 17.0193 4.74384 17.5105 4.74384C18.1983 4.74384 18.7597 5.30524 18.7597 5.99296C18.7597 6.68068 18.1983 7.24208 17.5105 7.24208C16.8368 7.24208 16.2895 6.70875 16.2614 6.0491L13.6649 5.50173L12.8649 9.2491C14.6895 9.31928 16.3456 9.88068 17.5386 10.7368C17.8474 10.428 18.2684 10.2456 18.7456 10.2456ZM9.74913 12C9.06141 12 8.50001 12.5614 8.50001 13.2491C8.50001 13.9368 9.06141 14.4982 9.74913 14.4982C10.4368 14.4982 10.9983 13.9368 10.9983 13.2491C10.9983 12.5614 10.4368 12 9.74913 12ZM12.514 17.4596C12.9912 17.4596 14.6193 17.4035 15.4754 16.5473C15.6018 16.421 15.6018 16.2245 15.5035 16.0842C15.3772 15.9579 15.1667 15.9579 15.0404 16.0842C14.493 16.6175 13.3561 16.814 12.5281 16.814C11.7 16.814 10.5491 16.6175 10.0158 16.0842C9.88948 15.9579 9.67895 15.9579 9.55264 16.0842C9.42632 16.2105 9.42632 16.421 9.55264 16.5473C10.3947 17.3895 12.0368 17.4596 12.514 17.4596ZM14.0018 13.2491C14.0018 13.9368 14.5632 14.4982 15.2509 14.4982C15.9386 14.4982 16.5 13.9368 16.5 13.2491C16.5 12.5614 15.9386 12 15.2509 12C14.5632 12 14.0018 12.5614 14.0018 13.2491Z" fill="currentColor"/>
</svg>
