<svg width="14" height="14" viewBox="0 0 14 14" fill="none" xmlns="http://www.w3.org/2000/svg">
<path d="M4.16675 9.9139C3.93762 9.9139 3.71449 9.88894 3.50008 9.84166C2.16409 9.54707 1.16675 8.38602 1.16675 6.99862C1.16675 5.41564 2.46509 4.12733 4.08341 4.08444" stroke="currentColor" stroke-width="1.5" stroke-linecap="round" stroke-linejoin="round"/>
<path d="M7.76916 5.62C7.45846 5.0962 6.98473 4.64904 6.41675 4.37436" stroke="currentColor" stroke-width="1.5" stroke-linecap="round" stroke-linejoin="round"/>
<path d="M9.83325 4.08332C10.0624 4.08332 10.2855 4.10829 10.4999 4.15556C11.8359 4.45016 12.8333 5.6112 12.8333 6.9986C12.8333 8.60867 11.4901 9.91388 9.83325 9.91388C9.67215 9.91388 9.02851 9.91389 8.83325 9.91389C7.18481 9.91389 5.83325 8.45211 5.83325 6.9986C5.83325 6.9986 5.83325 6.41666 6.12492 6.125" stroke="currentColor" stroke-width="1.5" stroke-linecap="round" stroke-linejoin="round"/>
<path d="M1.75 1.75L12.25 12.25" stroke="currentColor" stroke-width="1.5" stroke-linecap="round" stroke-linejoin="round"/>
</svg>
