<svg xmlns="http://www.w3.org/2000/svg" width="24" height="18" fill="none">
  <path fill="currentColor" d="M23.76 4.2s-.233-1.655-.955-2.381C21.89.863 20.869.858 20.4.802 17.044.558 12.005.558 12.005.558h-.01S6.956.558 3.6.802c-.469.056-1.49.06-2.405 1.017C.473 2.545.244 4.2.244 4.2S0 6.145 0 8.086v1.819c0 1.94.24 3.886.24 3.886s.233 1.654.95 2.38c.915.957 2.115.924 2.65 1.027 1.92.183 8.16.24 8.16.24s5.044-.01 8.4-.249c.469-.056 1.49-.06 2.405-1.017.722-.727.956-2.381.956-2.381S24 11.85 24 9.905V8.086c0-1.94-.24-3.886-.24-3.886ZM9.52 12.113V5.367l6.483 3.385-6.483 3.36Z"/>
</svg>
