<svg width="140" height="67" viewBox="0 0 140 67" fill="none" xmlns="http://www.w3.org/2000/svg">
<g clip-path="url(#clip0_29_3239)">
<path d="M79.5643 31.6898C79.5643 32.5493 79.3292 33.2477 78.8591 33.785C78.4025 34.3222 77.7847 34.7184 77.0057 34.9736C76.2267 35.2288 75.3671 35.3564 74.427 35.3564H67.3959V21.0525H75.6962C76.3677 21.0525 76.9453 21.2338 77.4288 21.5965C77.9257 21.9457 78.3018 22.4023 78.557 22.9664C78.8256 23.5305 78.9599 24.1148 78.9599 24.7192C78.9599 25.3773 78.7853 26.0152 78.4361 26.633C78.1003 27.2509 77.5899 27.7142 76.905 28.0231C77.7242 28.2649 78.3689 28.688 78.839 29.2924C79.3225 29.8967 79.5643 30.6959 79.5643 31.6898ZM75.5753 30.8839C75.5753 30.6422 75.5283 30.434 75.4343 30.2594C75.3537 30.0713 75.2395 29.9236 75.0918 29.8162C74.9441 29.7087 74.7695 29.655 74.568 29.655H71.3244V32.0524H74.427C74.6419 32.0524 74.8366 32.0054 75.0112 31.9114C75.1858 31.8174 75.3201 31.683 75.4141 31.5084C75.5216 31.3338 75.5753 31.1257 75.5753 30.8839ZM71.3244 24.3968V26.5928H74.0039C74.1785 26.5928 74.3464 26.5659 74.5076 26.5122C74.6687 26.445 74.803 26.3309 74.9105 26.1697C75.0179 26.0085 75.0716 25.7802 75.0716 25.4847C75.0716 25.2161 75.0246 25.0079 74.9306 24.8602C74.85 24.699 74.7359 24.5848 74.5881 24.5177C74.4538 24.4371 74.2994 24.3968 74.1248 24.3968H71.3244ZM87.1479 35.4773C86.06 35.4773 85.0729 35.2758 84.1864 34.8729C83.3 34.4565 82.5344 33.9059 81.8897 33.2209C81.2585 32.5225 80.7683 31.7435 80.4191 30.8839C80.0833 30.0109 79.9154 29.111 79.9154 28.1843C79.9154 27.2307 80.0967 26.3241 80.4594 25.4646C80.822 24.605 81.3256 23.8394 81.9703 23.1679C82.6284 22.4829 83.4007 21.9457 84.2872 21.5562C85.187 21.1667 86.1675 20.9719 87.2285 20.9719C88.3164 20.9719 89.3036 21.1801 90.19 21.5965C91.0764 21.9994 91.8353 22.5501 92.4665 23.2485C93.0978 23.9469 93.5813 24.7326 93.9171 25.6056C94.2663 26.4652 94.4409 27.3516 94.4409 28.2649C94.4409 29.2051 94.2596 30.1049 93.8969 30.9645C93.5477 31.8241 93.0441 32.5963 92.386 33.2813C91.7413 33.9529 90.9757 34.4901 90.0893 34.893C89.2028 35.2825 88.2224 35.4773 87.1479 35.4773ZM83.9044 28.2246C83.9044 28.7081 83.9715 29.1782 84.1058 29.6348C84.2401 30.0781 84.4416 30.481 84.7102 30.8436C84.9788 31.1928 85.3146 31.4749 85.7175 31.6898C86.1339 31.8912 86.6241 31.992 87.1882 31.992C87.7523 31.992 88.2425 31.8845 88.6589 31.6696C89.0752 31.4547 89.411 31.166 89.6662 30.8033C89.9348 30.4273 90.1296 30.0176 90.2504 29.5744C90.3848 29.1178 90.4519 28.6544 90.4519 28.1843C90.4519 27.7008 90.3848 27.2374 90.2504 26.7942C90.1161 26.351 89.9147 25.9548 89.6461 25.6056C89.3774 25.243 89.035 24.9609 88.6186 24.7594C88.2022 24.558 87.7187 24.4572 87.1681 24.4572C86.604 24.4572 86.1137 24.5647 85.6974 24.7796C85.2945 24.9945 84.9587 25.2832 84.6901 25.6459C84.4215 25.9951 84.22 26.398 84.0857 26.8547C83.9648 27.2979 83.9044 27.7545 83.9044 28.2246ZM99.4301 28.3253V35.3564H95.5015V21.0525H98.5638L104.305 28.3253V21.0525H108.234V35.3564H105.111L99.4301 28.3253ZM116.331 35.4773C115.189 35.4773 114.209 35.2892 113.39 34.9132C112.57 34.5371 111.899 34.02 111.375 33.3619C110.865 32.7038 110.488 31.9517 110.247 31.1055C110.005 30.2459 109.884 29.3461 109.884 28.4059V21.0525H113.813V28.4059C113.813 28.876 113.86 29.3259 113.954 29.7557C114.048 30.1855 114.195 30.5683 114.397 30.9041C114.598 31.2398 114.854 31.5084 115.162 31.7099C115.485 31.8979 115.874 31.992 116.331 31.992C116.801 31.992 117.197 31.8979 117.52 31.7099C117.842 31.5084 118.097 31.2398 118.285 30.9041C118.487 30.5549 118.634 30.1654 118.728 29.7356C118.822 29.3058 118.869 28.8626 118.869 28.4059V21.0525H122.798V28.4059C122.798 29.3998 122.664 30.3265 122.395 31.1861C122.14 32.0457 121.75 32.7978 121.226 33.4425C120.703 34.0872 120.031 34.5908 119.212 34.9535C118.406 35.3027 117.446 35.4773 116.331 35.4773ZM133.116 25.7265C133.116 25.7265 133.002 25.6593 132.774 25.525C132.545 25.3907 132.243 25.243 131.867 25.0818C131.491 24.9072 131.081 24.7527 130.638 24.6184C130.195 24.4841 129.758 24.417 129.329 24.417C128.993 24.417 128.717 24.4707 128.503 24.5781C128.288 24.6856 128.18 24.8669 128.18 25.1221C128.18 25.3638 128.288 25.5586 128.503 25.7063C128.717 25.8541 129.02 25.9884 129.409 26.1092C129.812 26.2301 130.289 26.3779 130.84 26.5525C131.726 26.8211 132.492 27.13 133.136 27.4792C133.781 27.8284 134.278 28.2783 134.627 28.829C134.976 29.3662 135.151 30.0848 135.151 30.9846C135.151 31.8442 134.996 32.5695 134.687 33.1604C134.379 33.738 133.962 34.2013 133.438 34.5505C132.915 34.8997 132.33 35.1549 131.686 35.3161C131.041 35.4638 130.383 35.5377 129.711 35.5377C129.026 35.5377 128.308 35.4705 127.556 35.3362C126.817 35.1885 126.098 34.9938 125.4 34.752C124.702 34.4968 124.064 34.2013 123.486 33.8656L125.178 30.4205C125.178 30.4205 125.313 30.5011 125.581 30.6623C125.85 30.8235 126.206 31.0048 126.649 31.2063C127.092 31.4077 127.583 31.589 128.12 31.7502C128.67 31.9114 129.221 31.992 129.772 31.992C130.202 31.992 130.497 31.9382 130.658 31.8308C130.833 31.7099 130.92 31.5555 130.92 31.3674C130.92 31.0854 130.772 30.8705 130.477 30.7227C130.181 30.5616 129.792 30.4138 129.308 30.2795C128.838 30.1318 128.315 29.9639 127.737 29.7759C126.904 29.4938 126.219 29.1782 125.682 28.829C125.145 28.4664 124.749 28.0433 124.493 27.5598C124.238 27.0628 124.111 26.4652 124.111 25.7668C124.111 24.7057 124.359 23.8193 124.856 23.1074C125.353 22.3956 126.004 21.8584 126.81 21.4957C127.63 21.1197 128.509 20.9316 129.449 20.9316C130.148 20.9316 130.819 21.019 131.464 21.1936C132.122 21.3547 132.733 21.5562 133.297 21.7979C133.875 22.0397 134.379 22.268 134.808 22.4829L133.116 25.7265Z" fill="#1E1C4E"/>
<path d="M76.7844 47.9984C76.7844 48.6797 76.5982 49.2332 76.2256 49.6589C75.8637 50.0847 75.3741 50.3987 74.7567 50.6009C74.1394 50.8031 73.4582 50.9043 72.7131 50.9043H67.1409V39.5684H73.7189C74.2511 39.5684 74.7088 39.7121 75.092 39.9994C75.4859 40.2762 75.7839 40.6381 75.9861 41.0851C76.199 41.5322 76.3054 41.9952 76.3054 42.4742C76.3054 42.9957 76.1671 43.5013 75.8903 43.991C75.6242 44.4806 75.2198 44.8478 74.6769 45.0926C75.3262 45.2842 75.8371 45.6195 76.2096 46.0985C76.5928 46.5775 76.7844 47.2108 76.7844 47.9984ZM73.6231 47.3598C73.6231 47.1682 73.5859 47.0032 73.5114 46.8649C73.4475 46.7158 73.357 46.5987 73.24 46.5136C73.1229 46.4284 72.9845 46.3859 72.8248 46.3859H70.2543V48.2858H72.7131C72.8834 48.2858 73.0377 48.2486 73.1761 48.1741C73.3145 48.0996 73.4209 47.9931 73.4954 47.8547C73.5806 47.7164 73.6231 47.5514 73.6231 47.3598ZM70.2543 42.2187V43.959H72.3778C72.5162 43.959 72.6492 43.9377 72.7769 43.8952C72.9047 43.8419 73.0111 43.7515 73.0963 43.6237C73.1814 43.496 73.224 43.3151 73.224 43.0809C73.224 42.868 73.1867 42.703 73.1122 42.5859C73.0484 42.4582 72.9579 42.3677 72.8408 42.3145C72.7344 42.2507 72.612 42.2187 72.4736 42.2187H70.2543ZM77.6854 50.9043V39.5684H80.7988V48.19H85.9398V50.9043H77.6854ZM91.5147 51.0001C90.6526 51.0001 89.8702 50.8404 89.1677 50.5211C88.4652 50.1911 87.8585 49.7547 87.3476 49.2119C86.8473 48.6584 86.4588 48.041 86.1821 47.3598C85.916 46.6679 85.7829 45.9548 85.7829 45.2203C85.7829 44.4646 85.9266 43.7461 86.214 43.0649C86.5014 42.3837 86.9006 41.777 87.4115 41.2448C87.933 40.7019 88.5451 40.2762 89.2476 39.9675C89.9607 39.6588 90.7377 39.5045 91.5786 39.5045C92.4408 39.5045 93.2231 39.6695 93.9256 39.9994C94.6281 40.3188 95.2295 40.7552 95.7298 41.3087C96.2301 41.8621 96.6132 42.4848 96.8793 43.1767C97.1561 43.8579 97.2945 44.5604 97.2945 45.2842C97.2945 46.0293 97.1508 46.7424 96.8634 47.4237C96.5866 48.1049 96.1875 48.7169 95.6659 49.2598C95.155 49.792 94.5483 50.2177 93.8458 50.537C93.1433 50.8457 92.3663 51.0001 91.5147 51.0001ZM88.9442 45.2523C88.9442 45.6355 88.9974 46.008 89.1039 46.3699C89.2103 46.7212 89.37 47.0405 89.5829 47.3279C89.7957 47.6046 90.0618 47.8281 90.3812 47.9984C90.7111 48.1581 91.0996 48.2379 91.5467 48.2379C91.9937 48.2379 92.3822 48.1528 92.7122 47.9825C93.0422 47.8122 93.3083 47.5833 93.5105 47.2959C93.7234 46.9979 93.8777 46.6733 93.9735 46.322C94.08 45.9601 94.1332 45.5929 94.1332 45.2203C94.1332 44.8372 94.08 44.4699 93.9735 44.1187C93.8671 43.7674 93.7074 43.4534 93.4945 43.1767C93.2817 42.8893 93.0102 42.6658 92.6803 42.5061C92.3503 42.3465 91.9671 42.2666 91.5307 42.2666C91.0837 42.2666 90.6952 42.3518 90.3652 42.5221C90.0459 42.6924 89.7798 42.9212 89.5669 43.2086C89.354 43.4854 89.1943 43.8047 89.0879 44.1666C88.9921 44.5178 88.9442 44.8797 88.9442 45.2523ZM97.5124 45.1405C97.5124 44.4487 97.6401 43.7728 97.8956 43.1128C98.1617 42.4422 98.5448 41.8355 99.0451 41.2927C99.5454 40.7498 100.152 40.3188 100.865 39.9994C101.589 39.6695 102.403 39.5045 103.308 39.5045C104.394 39.5045 105.341 39.7333 106.15 40.191C106.959 40.6381 107.56 41.2342 107.954 41.9792L105.575 43.6716C105.437 43.2991 105.235 43.0117 104.969 42.8095C104.713 42.6072 104.431 42.4689 104.122 42.3944C103.824 42.3092 103.532 42.2666 103.244 42.2666C102.797 42.2666 102.409 42.3571 102.079 42.538C101.759 42.7084 101.493 42.9372 101.28 43.2246C101.078 43.512 100.924 43.8313 100.817 44.1826C100.722 44.5338 100.674 44.8851 100.674 45.2363C100.674 45.6301 100.732 46.008 100.849 46.3699C100.966 46.7318 101.137 47.0564 101.36 47.3438C101.584 47.6206 101.855 47.8388 102.174 47.9984C102.504 48.1581 102.872 48.2379 103.276 48.2379C103.564 48.2379 103.856 48.1954 104.154 48.1102C104.452 48.0144 104.724 47.8654 104.969 47.6632C105.213 47.4609 105.4 47.1895 105.527 46.8489L108.066 48.3657C107.842 48.9192 107.47 49.3928 106.948 49.7866C106.427 50.1805 105.836 50.4838 105.176 50.6967C104.516 50.8989 103.862 51.0001 103.212 51.0001C102.371 51.0001 101.6 50.8351 100.897 50.5051C100.205 50.1645 99.6039 49.7175 99.093 49.164C98.5927 48.5998 98.2042 47.9718 97.9275 47.28C97.6507 46.5775 97.5124 45.8643 97.5124 45.1405ZM108.695 50.9043V39.5684H111.808V43.8792L115.257 39.5684H118.77L114.65 44.6456L119.057 50.9043H115.481L112.671 46.7371L111.808 47.6312V50.9043H108.695Z" fill="#F5BF5B"/>
<path d="M54.9874 5.57193H38.495L46.7412 19.9043H63.2335L54.9874 5.57193Z" fill="white"/>
<path d="M46.7412 19.9043L38.495 5.57193L30.3494 19.9043L38.4913 34.1293L38.495 34.1357L46.7412 19.9043Z" fill="#1E1C4E"/>
<path d="M30.3494 19.9043H13.7565L22.0302 34.1357H38.495L38.4913 34.1293L30.3494 19.9043Z" fill="white"/>
<path d="M22.0302 34.1357L13.7565 19.9043L5.53784 34.2367L13.7565 48.4681L22.0302 34.1357Z" fill="#1E1C4E"/>
<path d="M38.495 34.1357L46.7486 48.4681H63.2335L55.0879 34.2367L38.495 34.1357Z" fill="white"/>
<path d="M30.1483 48.569L38.3945 62.8004L46.7486 48.4681L38.495 34.1357L30.1483 48.569Z" fill="#1E1C4E"/>
<path d="M22.0302 34.1357L13.7565 48.4681L30.1483 48.569L38.495 34.1357H22.0302Z" fill="#F5BF5B"/>
<path d="M63.2335 19.9043H46.7412L38.495 34.1357L55.0879 34.2367L63.2335 19.9043Z" fill="#F5BF5B"/>
<path d="M46.7486 48.4681L38.3945 62.8004L54.3573 62.8004L63.2335 48.4681H46.7486Z" fill="#F5BF5B"/>
</g>
<defs>
<clipPath id="clip0_29_3239">
<rect width="139.628" height="66.8218" fill="white"/>
</clipPath>
</defs>
</svg>
