<svg width="140" height="67" viewBox="0 0 140 67" fill="none" xmlns="http://www.w3.org/2000/svg">
<path d="M79.776 31.7236C79.776 32.5854 79.5403 33.2857 79.069 33.8244C78.6111 34.363 77.9917 34.7603 77.2106 35.0162C76.4295 35.272 75.5677 35.4 74.625 35.4H67.5752V21.058H75.8976C76.5709 21.058 77.15 21.2398 77.6348 21.6034C78.1331 21.9535 78.5101 22.4114 78.766 22.977C79.0353 23.5426 79.17 24.1284 79.17 24.7344C79.17 25.3942 78.9949 26.0339 78.6448 26.6534C78.3081 27.2728 77.7964 27.7374 77.1096 28.0472C77.9311 28.2896 78.5775 28.7138 79.0488 29.3198C79.5336 29.9258 79.776 30.727 79.776 31.7236ZM75.7764 30.9156C75.7764 30.6732 75.7293 30.4644 75.635 30.2894C75.5542 30.1008 75.4397 29.9527 75.2916 29.845C75.1435 29.7372 74.9684 29.6834 74.7664 29.6834H71.5142V32.0872H74.625C74.8405 32.0872 75.0357 32.04 75.2108 31.9458C75.3859 31.8515 75.5205 31.7168 75.6148 31.5418C75.7225 31.3667 75.7764 31.158 75.7764 30.9156ZM71.5142 24.4112V26.613H74.2008C74.3759 26.613 74.5442 26.586 74.7058 26.5322C74.8674 26.4648 75.0021 26.3504 75.1098 26.1888C75.2175 26.0272 75.2714 25.7982 75.2714 25.502C75.2714 25.2326 75.2243 25.0239 75.13 24.8758C75.0492 24.7142 74.9347 24.5997 74.7866 24.5324C74.6519 24.4516 74.4971 24.4112 74.322 24.4112H71.5142Z" fill="#060612"/>
<path d="M87.3799 35.5212C86.2891 35.5212 85.2993 35.3192 84.4105 34.9152C83.5217 34.4977 82.7541 33.9456 82.1077 33.2588C81.4747 32.5585 80.9832 31.7774 80.6331 30.9156C80.2964 30.0402 80.1281 29.138 80.1281 28.2088C80.1281 27.2526 80.3099 26.3436 80.6735 25.4818C81.0371 24.6199 81.5421 23.8523 82.1885 23.179C82.8483 22.4922 83.6227 21.9535 84.5115 21.563C85.4137 21.1724 86.3968 20.9772 87.4607 20.9772C88.5515 20.9772 89.5413 21.1859 90.4301 21.6034C91.3189 22.0074 92.0797 22.5595 92.7127 23.2598C93.3456 23.96 93.8304 24.7478 94.1671 25.6232C94.5172 26.485 94.6923 27.3738 94.6923 28.2896C94.6923 29.2322 94.5105 30.1345 94.1469 30.9964C93.7967 31.8582 93.2917 32.6326 92.6319 33.3194C91.9855 33.9927 91.2179 34.5314 90.3291 34.9354C89.4403 35.3259 88.4572 35.5212 87.3799 35.5212ZM84.1277 28.2492C84.1277 28.734 84.195 29.2053 84.3297 29.6632C84.4643 30.1076 84.6663 30.5116 84.9357 30.8752C85.205 31.2253 85.5417 31.5081 85.9457 31.7236C86.3631 31.9256 86.8547 32.0266 87.4203 32.0266C87.9859 32.0266 88.4774 31.9188 88.8949 31.7034C89.3123 31.4879 89.649 31.1984 89.9049 30.8348C90.1742 30.4577 90.3695 30.047 90.4907 29.6026C90.6253 29.1447 90.6927 28.6801 90.6927 28.2088C90.6927 27.724 90.6253 27.2594 90.4907 26.815C90.356 26.3706 90.154 25.9733 89.8847 25.6232C89.6153 25.2596 89.2719 24.9768 88.8545 24.7748C88.437 24.5728 87.9522 24.4718 87.4001 24.4718C86.8345 24.4718 86.3429 24.5795 85.9255 24.795C85.5215 25.0104 85.1848 25.3 84.9155 25.6636C84.6461 26.0137 84.4441 26.4177 84.3095 26.8756C84.1883 27.32 84.1277 27.7778 84.1277 28.2492Z" fill="#060612"/>
<path d="M99.6948 28.3502V35.4H95.7558V21.058H98.8262L104.583 28.3502V21.058H108.522V35.4H105.391L99.6948 28.3502Z" fill="#060612"/>
<path d="M116.641 35.5212C115.496 35.5212 114.513 35.3326 113.691 34.9556C112.87 34.5785 112.197 34.06 111.671 33.4002C111.16 32.7403 110.783 31.9862 110.54 31.1378C110.298 30.2759 110.177 29.3736 110.177 28.431V21.058H114.116V28.431C114.116 28.9023 114.163 29.3534 114.257 29.7844C114.351 30.2153 114.499 30.5991 114.701 30.9358C114.903 31.2724 115.159 31.5418 115.469 31.7438C115.792 31.9323 116.183 32.0266 116.641 32.0266C117.112 32.0266 117.509 31.9323 117.832 31.7438C118.156 31.5418 118.412 31.2724 118.6 30.9358C118.802 30.5856 118.95 30.1951 119.044 29.7642C119.139 29.3332 119.186 28.8888 119.186 28.431V21.058H123.125V28.431C123.125 29.4275 122.99 30.3567 122.721 31.2186C122.465 32.0804 122.074 32.8346 121.549 33.481C121.024 34.1274 120.351 34.6324 119.529 34.996C118.721 35.3461 117.758 35.5212 116.641 35.5212Z" fill="#060612"/>
<path d="M133.471 25.7444C133.471 25.7444 133.356 25.677 133.127 25.5424C132.898 25.4077 132.595 25.2596 132.218 25.098C131.841 24.9229 131.43 24.768 130.986 24.6334C130.542 24.4987 130.104 24.4314 129.673 24.4314C129.336 24.4314 129.06 24.4852 128.845 24.593C128.629 24.7007 128.522 24.8825 128.522 25.1384C128.522 25.3808 128.629 25.576 128.845 25.7242C129.06 25.8723 129.363 26.007 129.754 26.1282C130.158 26.2494 130.636 26.3975 131.188 26.5726C132.077 26.8419 132.844 27.1516 133.491 27.5018C134.137 27.8519 134.635 28.303 134.986 28.8552C135.336 29.3938 135.511 30.1143 135.511 31.0166C135.511 31.8784 135.356 32.6056 135.046 33.1982C134.736 33.7772 134.319 34.2418 133.794 34.592C133.269 34.9421 132.683 35.198 132.036 35.3596C131.39 35.5077 130.73 35.5818 130.057 35.5818C129.37 35.5818 128.65 35.5144 127.895 35.3798C127.155 35.2316 126.434 35.0364 125.734 34.794C125.034 34.5381 124.394 34.2418 123.815 33.9052L125.512 30.451C125.512 30.451 125.646 30.5318 125.916 30.6934C126.185 30.855 126.542 31.0368 126.986 31.2388C127.431 31.4408 127.922 31.6226 128.461 31.7842C129.013 31.9458 129.565 32.0266 130.117 32.0266C130.548 32.0266 130.845 31.9727 131.006 31.865C131.181 31.7438 131.269 31.5889 131.269 31.4004C131.269 31.1176 131.121 30.9021 130.824 30.754C130.528 30.5924 130.138 30.4442 129.653 30.3096C129.181 30.1614 128.656 29.9931 128.077 29.8046C127.242 29.5218 126.555 29.2053 126.017 28.8552C125.478 28.4916 125.081 28.0674 124.825 27.5826C124.569 27.0843 124.441 26.485 124.441 25.7848C124.441 24.7209 124.69 23.8321 125.189 23.1184C125.687 22.4046 126.34 21.866 127.148 21.5024C127.969 21.1253 128.852 20.9368 129.794 20.9368C130.494 20.9368 131.168 21.0243 131.814 21.1994C132.474 21.361 133.087 21.563 133.652 21.8054C134.231 22.0478 134.736 22.2767 135.167 22.4922L133.471 25.7444Z" fill="#060612"/>
<path d="M76.989 48.0864C76.989 48.7695 76.8023 49.3244 76.4287 49.7513C76.0659 50.1782 75.575 50.4931 74.9559 50.6958C74.3369 50.8986 73.6539 51 72.9068 51H67.3198V39.6339H73.9154C74.449 39.6339 74.9079 39.7779 75.2921 40.0661C75.687 40.3436 75.9858 40.7064 76.1886 41.1547C76.4021 41.6029 76.5088 42.0672 76.5088 42.5474C76.5088 43.0704 76.37 43.5773 76.0926 44.0683C75.8258 44.5592 75.4202 44.9274 74.8759 45.1729C75.5269 45.365 76.0392 45.7011 76.4127 46.1814C76.7969 46.6617 76.989 47.2967 76.989 48.0864ZM73.8193 47.4461C73.8193 47.254 73.782 47.0886 73.7073 46.9498C73.6432 46.8004 73.5525 46.683 73.4351 46.5976C73.3177 46.5122 73.179 46.4696 73.0189 46.4696H70.4415V48.3746H72.9068C73.0776 48.3746 73.2324 48.3372 73.3711 48.2625C73.5098 48.1878 73.6166 48.0811 73.6913 47.9423C73.7766 47.8036 73.8193 47.6382 73.8193 47.4461ZM70.4415 42.2913V44.0362H72.5707C72.7094 44.0362 72.8428 44.0149 72.9709 43.9722C73.0989 43.9188 73.2057 43.8281 73.291 43.7001C73.3764 43.572 73.4191 43.3906 73.4191 43.1558C73.4191 42.9423 73.3818 42.7769 73.3071 42.6595C73.243 42.5314 73.1523 42.4407 73.0349 42.3873C72.9282 42.3233 72.8055 42.2913 72.6667 42.2913H70.4415Z" fill="#F5BF5B"/>
<path d="M77.8924 51V39.6339H81.0141V48.2785H86.1689V51H77.8924Z" fill="#F5BF5B"/>
<path d="M91.7586 51.0961C90.8942 51.0961 90.1098 50.936 89.4054 50.6158C88.701 50.2849 88.0927 49.8474 87.5804 49.3031C87.0788 48.7481 86.6892 48.1291 86.4118 47.4461C86.145 46.7524 86.0115 46.0373 86.0115 45.3009C86.0115 44.5432 86.1556 43.8228 86.4438 43.1398C86.7319 42.4567 87.1322 41.8484 87.6444 41.3148C88.1674 40.7705 88.781 40.3436 89.4854 40.0341C90.2005 39.7246 90.9796 39.5698 91.8227 39.5698C92.6872 39.5698 93.4716 39.7352 94.176 40.0661C94.8803 40.3863 95.4833 40.8238 95.9849 41.3788C96.4865 41.9338 96.8707 42.5581 97.1376 43.2518C97.415 43.9348 97.5538 44.6392 97.5538 45.365C97.5538 46.112 97.4097 46.8271 97.1215 47.5101C96.8441 48.1931 96.4438 48.8068 95.9209 49.3511C95.4086 49.8847 94.8003 50.3116 94.0959 50.6318C93.3915 50.9413 92.6124 51.0961 91.7586 51.0961ZM89.1813 45.3329C89.1813 45.7171 89.2346 46.0907 89.3413 46.4535C89.4481 46.8057 89.6082 47.1259 89.8216 47.4141C90.0351 47.6915 90.3019 47.9157 90.622 48.0864C90.9529 48.2465 91.3424 48.3266 91.7907 48.3266C92.2389 48.3266 92.6285 48.2412 92.9593 48.0704C93.2901 47.8997 93.557 47.6702 93.7597 47.382C93.9732 47.0832 94.1279 46.7577 94.224 46.4055C94.3307 46.0427 94.3841 45.6745 94.3841 45.3009C94.3841 44.9167 94.3307 44.5485 94.224 44.1963C94.1173 43.8441 93.9572 43.5293 93.7437 43.2518C93.5303 42.9637 93.2581 42.7395 92.9273 42.5795C92.5964 42.4194 92.2122 42.3393 91.7747 42.3393C91.3264 42.3393 90.9369 42.4247 90.606 42.5955C90.2859 42.7662 90.019 42.9957 89.8056 43.2838C89.5921 43.5613 89.4321 43.8815 89.3253 44.2443C89.2293 44.5965 89.1813 44.9594 89.1813 45.3329Z" fill="#F5BF5B"/>
<path d="M97.7723 45.2209C97.7723 44.5272 97.9003 43.8495 98.1565 43.1878C98.4233 42.5154 98.8075 41.9071 99.3091 41.3628C99.8107 40.8185 100.419 40.3863 101.134 40.0661C101.86 39.7352 102.676 39.5698 103.583 39.5698C104.672 39.5698 105.622 39.7993 106.433 40.2582C107.244 40.7064 107.847 41.3041 108.242 42.0512L105.857 43.7481C105.718 43.3745 105.515 43.0864 105.248 42.8836C104.992 42.6808 104.709 42.5421 104.4 42.4674C104.101 42.382 103.808 42.3393 103.519 42.3393C103.071 42.3393 102.682 42.43 102.351 42.6115C102.031 42.7822 101.764 43.0117 101.55 43.2998C101.348 43.588 101.193 43.9082 101.086 44.2604C100.99 44.6125 100.942 44.9647 100.942 45.3169C100.942 45.7118 101.001 46.0907 101.118 46.4535C101.235 46.8164 101.406 47.1419 101.63 47.4301C101.854 47.7076 102.127 47.9263 102.447 48.0864C102.778 48.2465 103.146 48.3266 103.551 48.3266C103.84 48.3266 104.133 48.2839 104.432 48.1985C104.731 48.1024 105.003 47.953 105.248 47.7502C105.494 47.5475 105.681 47.2753 105.809 46.9338L108.354 48.4546C108.13 49.0096 107.756 49.4845 107.233 49.8794C106.71 50.2743 106.118 50.5784 105.456 50.7919C104.795 50.9947 104.138 51.0961 103.487 51.0961C102.644 51.0961 101.87 50.9306 101.166 50.5998C100.472 50.2583 99.8694 49.81 99.3571 49.2551C98.8555 48.6894 98.466 48.0597 98.1885 47.366C97.911 46.6617 97.7723 45.9466 97.7723 45.2209Z" fill="#F5BF5B"/>
<path d="M108.985 51V39.6339H112.107V43.9562L115.564 39.6339H119.086L114.956 44.7246L119.374 51H115.789L112.971 46.8217L112.107 47.7182V51H108.985Z" fill="#F5BF5B"/>
<path d="M52.6208 5.83447H36.5521L44.5865 19.7987H60.6552L52.6208 5.83447Z" fill="white"/>
<path d="M44.5865 19.7987L36.5521 5.83447L28.6157 19.7987L36.5485 33.6583L36.5521 33.6646L44.5865 19.7987Z" fill="#060612"/>
<path d="M28.6157 19.7987H12.449L20.5101 33.6646H36.5521L36.5485 33.6583L28.6157 19.7987Z" fill="white"/>
<path d="M20.5101 33.6646L12.449 19.7987L4.44141 33.763L12.449 47.6289L20.5101 33.6646Z" fill="#060612"/>
<path d="M36.5521 33.6646L44.5937 47.6289H60.6552L52.7188 33.763L36.5521 33.6646Z" fill="white"/>
<path d="M28.4197 47.7272L36.4541 61.5931L44.5937 47.6289L36.5521 33.6646L28.4197 47.7272Z" fill="#060612"/>
<path d="M20.5101 33.6646L12.449 47.6289L28.4197 47.7272L36.5521 33.6646H20.5101Z" fill="#F5BF5B"/>
<path d="M60.6552 19.7987H44.5865L36.5521 33.6646L52.7188 33.763L60.6552 19.7987Z" fill="#F5BF5B"/>
<path d="M44.5937 47.6289L36.4541 61.5931L52.0069 61.5931L60.6552 47.6289H44.5937Z" fill="#F5BF5B"/>
</svg>
