<svg width="141" height="48" viewBox="0 0 141 48" fill="none" xmlns="http://www.w3.org/2000/svg">
<path d="M53.7563 32.8889L47.7596 15.1111H42.1279L36.1313 32.8889H39.2322L40.8967 27.7895H48.9909L50.6553 32.8889H53.7563ZM44.9551 15.4853L48.1473 25.2164H41.7403L44.9551 15.4853Z" fill="black"/>
<path d="M57.5227 20.7155H54.6375V32.8889H57.5459V26.0681C57.5459 23.9452 58.6395 23.2225 60.8964 23.2225H61.6875V20.4445C59.2677 20.4445 58.0113 21.8447 57.5227 23.6742V20.7155Z" fill="black"/>
<path d="M67.9845 32.8889C70.9931 32.8889 73.3952 31.3417 74.025 28.5124H71.0864C70.62 30.0596 69.6404 30.9438 67.9845 30.9438C65.8855 30.9438 64.6494 29.3081 64.6494 26.6556C64.6494 24.0474 65.8623 22.3896 67.9845 22.3896C69.6637 22.3896 70.62 23.4948 70.9464 24.8653H73.9083C73.3719 22.2128 71.203 20.4445 67.9845 20.4445C64.2064 20.4445 61.6875 22.9422 61.6875 26.6556C61.6875 30.3691 64.183 32.8889 67.9845 32.8889Z" fill="black"/>
<path d="M82.314 20C80.2564 20 79.0839 21.3099 78.5309 22.8538V15.1111H75.7875V32.8889H78.5529V25.5672C78.5529 23.1579 79.5264 22.0819 81.075 22.0819C82.6457 22.0819 83.5971 23.1345 83.5971 25.5205V25.5672V32.8889H86.3625V25.0059V24.9591C86.3625 22.1521 85.0572 20 82.314 20Z" fill="black"/>
<path d="M102.35 32.5888L100.322 20.4445H95.316L93.2878 32.5888L90.7627 20.4445H88.125L90.7401 32.8889H95.835L97.8189 20.7215L99.8028 32.8889H104.898L107.512 20.4445H104.876L102.35 32.5888Z" fill="black"/>
<path d="M113.462 20.4445C110.382 20.4445 108.235 21.9255 107.932 24.2684H110.872C111.035 23.2737 111.899 22.3896 113.462 22.3896C115.212 22.3896 116.052 23.5169 116.052 24.9094V24.9536V25.1084L112.716 25.44C110.336 25.661 107.513 26.2578 107.513 29.0208C107.513 31.2754 109.425 32.8889 111.805 32.8889C114.209 32.8889 115.282 31.8279 116.075 30.2586V32.6236H118.969V25.0642V25.0199C118.969 22.5885 117.335 20.4445 113.462 20.4445ZM112.925 31.1427C111.596 31.1427 110.476 30.3691 110.476 29.0208C110.476 27.4735 112.202 27.2525 113.789 27.0757L116.052 26.8546V27.5619C116.052 29.5512 115.002 31.1427 112.925 31.1427Z" fill="black"/>
<path d="M126.183 31.0833L122.601 20.4445H119.85L123.627 31.497H126.052L124.326 37.3333H127.143L132.188 20.4445H129.326L126.183 31.0833Z" fill="black"/>
<path d="M3.52499 24.1067C3.52499 16.684 9.44325 10.6667 16.7437 10.6667C24.0442 10.6667 29.9625 16.684 29.9625 24.1067V37.32C29.9553 29.9623 24.0398 24 16.7437 24C9.44325 24 3.52499 29.9695 3.52499 37.3333V24.1067Z" fill="black"/>
</svg>
