<svg width="318" height="250" viewBox="0 0 318 250" fill="none" xmlns="http://www.w3.org/2000/svg">
    <g clip-path="url(#clip0_1859_16587)">
        <g clip-path="url(#clip1_1859_16587)" filter="url(#filter0_dii_1859_16587)">
            <rect width="355.556" height="42" transform="translate(-18.7773)" fill="#FF4D00"/>
            <path d="M63.6414 20.933C63.6171 18.3091 65.8449 17.0326 65.9467 16.9732C64.6851 15.1797 62.7296 14.9347 62.0424 14.9151C60.4 14.7466 58.8068 15.8733 57.9702 15.8733C57.1168 15.8733 55.8284 14.9314 54.4399 14.9591C52.653 14.986 50.9813 15.9946 50.0645 17.561C48.1725 20.7547 49.5836 25.4481 51.3963 28.0296C52.3031 29.2939 53.3627 30.7056 54.7496 30.6559C56.1065 30.6014 56.6133 29.8125 58.2507 29.8125C59.8731 29.8125 60.349 30.6559 61.7635 30.6242C63.2197 30.6014 64.1365 29.3542 65.0116 28.0785C66.0595 26.6293 66.4803 25.2022 66.497 25.1289C66.4627 25.1175 63.6689 24.0779 63.6414 20.933Z" fill="#F2EFED"/>
            <path d="M60.9693 13.2166C61.6991 12.3267 62.1984 11.1162 62.0598 9.8877C61.0035 9.93329 59.6826 10.6 58.9219 11.4703C58.2489 12.2372 57.6477 13.4942 57.803 14.6763C58.9896 14.7626 60.2078 14.0925 60.9693 13.2166Z" fill="#F2EFED"/>
            <path d="M79.4404 12.9749C79.4404 13.9331 79.1456 14.6544 78.5569 15.1388C78.0117 15.5858 77.2368 15.8097 76.2332 15.8097C75.7355 15.8097 75.3097 15.7885 74.9531 15.7462V10.5106C75.4182 10.4374 75.9192 10.3999 76.4603 10.3999C77.4164 10.3999 78.1369 10.6026 78.6229 11.008C79.1673 11.4664 79.4404 12.1217 79.4404 12.9749ZM78.5177 12.9985C78.5177 12.3774 78.349 11.9011 78.0117 11.569C77.6744 11.2376 77.1817 11.0715 76.5329 11.0715C76.2574 11.0715 76.0227 11.0895 75.8282 11.1269V15.1071C75.9359 15.1234 76.133 15.1307 76.4194 15.1307C77.089 15.1307 77.6059 14.9491 77.97 14.5861C78.334 14.223 78.5177 13.6938 78.5177 12.9985Z" fill="#F2EFED"/>
            <path d="M84.3327 13.8119C84.3327 14.4022 84.1598 14.8857 83.8141 15.2651C83.4517 15.6551 82.9717 15.8497 82.3721 15.8497C81.7943 15.8497 81.3342 15.6632 80.9911 15.2887C80.6487 14.9151 80.4775 14.4437 80.4775 13.8754C80.4775 13.2811 80.6537 12.7935 81.0078 12.4149C81.3618 12.0364 81.8377 11.8467 82.4372 11.8467C83.0151 11.8467 83.4793 12.0331 83.8309 12.4068C84.1648 12.7699 84.3327 13.2388 84.3327 13.8119ZM83.4251 13.8396C83.4251 13.4855 83.3465 13.1818 83.1904 12.9286C83.0067 12.6225 82.7453 12.4695 82.4055 12.4695C82.054 12.4695 81.7868 12.6225 81.6031 12.9286C81.4461 13.1818 81.3685 13.4904 81.3685 13.8551C81.3685 14.2092 81.447 14.5129 81.6031 14.7661C81.7926 15.0722 82.0565 15.2252 82.3971 15.2252C82.7312 15.2252 82.9933 15.0697 83.1821 14.7579C83.344 14.4999 83.4251 14.1938 83.4251 13.8396Z" fill="#F2EFED"/>
            <path d="M90.8923 11.9253L89.6608 15.763H88.8592L88.349 14.0965C88.2196 13.6805 88.1144 13.2669 88.0326 12.8566H88.0167C87.9407 13.2783 87.8355 13.6911 87.7002 14.0965L87.1583 15.763H86.3476L85.1895 11.9253H86.0887L86.5337 13.7497C86.6414 14.1812 86.73 14.5923 86.8009 14.9815H86.8168C86.8819 14.6607 86.9896 14.252 87.1416 13.7579L87.7002 11.9261H88.4133L88.9485 13.7188C89.078 14.156 89.1832 14.5768 89.2641 14.9823H89.2884C89.3477 14.5874 89.437 14.1665 89.5556 13.7188L90.0331 11.9261H90.8923V11.9253Z" fill="#F2EFED"/>
            <path d="M95.4286 15.7625H94.5536V13.5645C94.5536 12.8871 94.2897 12.5484 93.7603 12.5484C93.5006 12.5484 93.2911 12.6413 93.1283 12.8277C92.9671 13.0141 92.8853 13.2339 92.8853 13.4855V15.7617H92.0102V13.0214C92.0102 12.6844 91.9994 12.3189 91.9785 11.9232H92.7475L92.7884 12.5232H92.8127C92.9145 12.3368 93.0665 12.1829 93.2661 12.06C93.5032 11.9167 93.7687 11.8442 94.0592 11.8442C94.4267 11.8442 94.7323 11.9598 94.9752 12.1919C95.2775 12.476 95.4286 12.9001 95.4286 13.4635V15.7625Z" fill="#F2EFED"/>
            <path d="M97.842 15.7627H96.9678V10.1641H97.842V15.7627Z" fill="#F2EFED"/>
            <path d="M102.994 13.8119C102.994 14.4022 102.821 14.8857 102.476 15.2651C102.113 15.6551 101.632 15.8497 101.033 15.8497C100.455 15.8497 99.9946 15.6632 99.6522 15.2887C99.3098 14.9151 99.1387 14.4437 99.1387 13.8754C99.1387 13.2811 99.3149 12.7935 99.6689 12.4149C100.023 12.0364 100.499 11.8467 101.098 11.8467C101.676 11.8467 102.14 12.0331 102.492 12.4068C102.826 12.7699 102.994 13.2388 102.994 13.8119ZM102.085 13.8396C102.085 13.4855 102.007 13.1818 101.851 12.9286C101.668 12.6225 101.406 12.4695 101.067 12.4695C100.714 12.4695 100.447 12.6225 100.264 12.9286C100.107 13.1818 100.03 13.4904 100.03 13.8551C100.03 14.2092 100.108 14.5129 100.264 14.7661C100.454 15.0722 100.718 15.2252 101.058 15.2252C101.392 15.2252 101.654 15.0697 101.842 14.7579C102.005 14.4999 102.085 14.1938 102.085 13.8396Z" fill="#F2EFED"/>
            <path d="M107.228 15.7625H106.443L106.378 15.3205H106.354C106.085 15.673 105.702 15.8497 105.204 15.8497C104.832 15.8497 104.532 15.7332 104.305 15.502C104.1 15.292 103.997 15.0307 103.997 14.7205C103.997 14.2516 104.197 13.8942 104.601 13.6467C105.003 13.3992 105.57 13.2779 106.298 13.2836V13.2119C106.298 12.7064 106.026 12.454 105.481 12.454C105.093 12.454 104.75 12.5493 104.455 12.7381L104.277 12.178C104.643 11.9574 105.094 11.8467 105.627 11.8467C106.656 11.8467 107.172 12.3759 107.172 13.4342V14.8475C107.172 15.2309 107.191 15.5362 107.228 15.7625ZM106.32 14.4437V13.8518C105.355 13.8355 104.873 14.0936 104.873 14.6252C104.873 14.8255 104.928 14.9753 105.04 15.0754C105.153 15.1756 105.297 15.2252 105.467 15.2252C105.66 15.2252 105.839 15.1658 106.003 15.0478C106.168 14.9289 106.268 14.7783 106.306 14.5935C106.315 14.552 106.32 14.5015 106.32 14.4437Z" fill="#F2EFED"/>
            <path d="M112.201 15.7627H111.424L111.384 15.1464H111.359C111.111 15.6153 110.689 15.8498 110.095 15.8498C109.621 15.8498 109.226 15.6682 108.913 15.3051C108.6 14.942 108.443 14.4707 108.443 13.8918C108.443 13.2707 108.613 12.7676 108.954 12.3833C109.284 12.0251 109.688 11.846 110.169 11.846C110.697 11.846 111.067 12.0194 111.278 12.367H111.294V10.1641H112.17V14.7287C112.17 15.1024 112.18 15.4468 112.201 15.7627ZM111.294 14.1442V13.5043C111.294 13.3936 111.286 13.304 111.27 13.2357C111.221 13.0305 111.115 12.8579 110.953 12.7187C110.791 12.5795 110.594 12.5095 110.368 12.5095C110.042 12.5095 109.786 12.6357 109.598 12.8889C109.412 13.142 109.318 13.4652 109.318 13.8601C109.318 14.2395 109.407 14.5472 109.587 14.7841C109.776 15.0365 110.032 15.1627 110.352 15.1627C110.639 15.1627 110.868 15.0576 111.043 14.8468C111.211 14.6522 111.294 14.4177 111.294 14.1442Z" fill="#F2EFED"/>
            <path d="M119.685 13.8119C119.685 14.4022 119.512 14.8857 119.167 15.2651C118.804 15.6551 118.325 15.8497 117.724 15.8497C117.148 15.8497 116.687 15.6632 116.344 15.2887C116.001 14.9151 115.83 14.4437 115.83 13.8754C115.83 13.2811 116.006 12.7935 116.361 12.4149C116.714 12.0364 117.19 11.8467 117.791 11.8467C118.368 11.8467 118.833 12.0331 119.184 12.4068C119.517 12.7699 119.685 13.2388 119.685 13.8119ZM118.778 13.8396C118.778 13.4855 118.7 13.1818 118.544 12.9286C118.359 12.6225 118.099 12.4695 117.758 12.4695C117.408 12.4695 117.14 12.6225 116.955 12.9286C116.799 13.1818 116.721 13.4904 116.721 13.8551C116.721 14.2092 116.799 14.5129 116.955 14.7661C117.145 15.0722 117.409 15.2252 117.749 15.2252C118.084 15.2252 118.347 15.0697 118.535 14.7579C118.696 14.4999 118.778 14.1938 118.778 13.8396Z" fill="#F2EFED"/>
            <path d="M124.39 15.7625H123.516V13.5645C123.516 12.8871 123.252 12.5484 122.721 12.5484C122.462 12.5484 122.252 12.6413 122.09 12.8277C121.929 13.0141 121.847 13.2339 121.847 13.4855V15.7617H120.972V13.0214C120.972 12.6844 120.962 12.3189 120.94 11.9232H121.709L121.75 12.5232H121.774C121.877 12.3368 122.029 12.1829 122.227 12.06C122.465 11.9167 122.73 11.8442 123.021 11.8442C123.388 11.8442 123.693 11.9598 123.936 12.1919C124.239 12.476 124.39 12.9001 124.39 13.4635V15.7625Z" fill="#F2EFED"/>
            <path d="M130.279 12.5641H129.316V14.4284C129.316 14.9022 129.487 15.1391 129.826 15.1391C129.983 15.1391 130.113 15.1261 130.216 15.0992L130.238 15.7464C130.066 15.8099 129.838 15.8417 129.559 15.8417C129.213 15.8417 128.944 15.7391 128.75 15.534C128.554 15.3288 128.457 14.9836 128.457 14.4992V12.5641H127.882V11.925H128.457V11.2216L129.315 10.9692V11.9242H130.278L130.279 12.5641Z" fill="#F2EFED"/>
            <path d="M134.912 15.7627H134.036V13.5808C134.036 12.8929 133.772 12.5486 133.243 12.5486C132.838 12.5486 132.56 12.748 132.408 13.1469C132.382 13.2308 132.367 13.3334 132.367 13.4538V15.7618H131.493V10.1641H132.367V12.4769H132.384C132.66 12.056 133.054 11.846 133.567 11.846C133.929 11.846 134.229 11.9616 134.467 12.1936C134.763 12.4826 134.912 12.9125 134.912 13.4807V15.7627Z" fill="#F2EFED"/>
            <path d="M139.69 13.6621C139.69 13.8152 139.679 13.9438 139.657 14.0488H137.033C137.045 14.4282 137.17 14.7172 137.413 14.9175C137.635 15.0966 137.921 15.1862 138.272 15.1862C138.66 15.1862 139.015 15.1259 139.334 15.0046L139.471 15.5973C139.097 15.7552 138.658 15.8342 138.149 15.8342C137.54 15.8342 137.06 15.6592 136.713 15.3091C136.363 14.959 136.19 14.4893 136.19 13.8999C136.19 13.321 136.352 12.8391 136.676 12.4548C137.016 12.0445 137.474 11.8394 138.053 11.8394C138.619 11.8394 139.049 12.0445 139.339 12.4548C139.574 12.7805 139.69 13.1834 139.69 13.6621ZM138.855 13.4415C138.862 13.1883 138.804 12.9702 138.685 12.7862C138.534 12.5493 138.302 12.4304 137.989 12.4304C137.703 12.4304 137.47 12.546 137.293 12.778C137.147 12.9628 137.062 13.1834 137.033 13.4415H138.855Z" fill="#F2EFED"/>
            <path d="M83.2775 30.4743H81.3813L80.3426 27.2919H76.7321L75.7426 30.4743H73.8965L77.4736 19.6401H79.6829L83.2775 30.4743ZM80.0295 25.9568L79.0901 23.1278C78.9907 22.8388 78.8046 22.1582 78.5298 21.0868H78.4964C78.387 21.5476 78.2109 22.2282 77.9687 23.1278L77.0461 25.9568H80.0295Z" fill="#F2EFED"/>
            <path d="M92.4758 26.4724C92.4758 27.801 92.1076 28.8512 91.3711 29.6221C90.7115 30.3084 89.8924 30.6512 88.9146 30.6512C87.8592 30.6512 87.101 30.2816 86.6393 29.5424H86.6059V33.6577H84.8257V25.2341C84.8257 24.3988 84.8032 23.5416 84.7598 22.6623H86.3254L86.4247 23.9006H86.4581C87.0518 22.9676 87.9527 22.502 89.1618 22.502C90.107 22.502 90.896 22.8659 91.5273 23.5945C92.1602 24.3239 92.4758 25.2829 92.4758 26.4724ZM90.6622 26.5359C90.6622 25.7755 90.4869 25.1486 90.1345 24.6553C89.7496 24.1408 89.2327 23.8835 88.5848 23.8835C88.1456 23.8835 87.7465 24.0268 87.39 24.3093C87.0326 24.5942 86.7987 24.9663 86.6894 25.427C86.6343 25.642 86.6067 25.8178 86.6067 25.9562V27.2588C86.6067 27.827 86.7854 28.3066 87.1428 28.6981C87.5002 29.0897 87.9644 29.2851 88.5355 29.2851C89.2061 29.2851 89.7279 29.0327 90.1011 28.5296C90.4752 28.0257 90.6622 27.3614 90.6622 26.5359Z" fill="#F2EFED"/>
            <path d="M101.692 26.4724C101.692 27.801 101.324 28.8512 100.586 29.6221C99.9275 30.3084 99.1084 30.6512 98.1306 30.6512C97.0752 30.6512 96.3171 30.2816 95.8561 29.5424H95.8227V33.6577H94.0426V25.2341C94.0426 24.3988 94.02 23.5416 93.9766 22.6623H95.5422L95.6415 23.9006H95.6749C96.2678 22.9676 97.1687 22.502 98.3786 22.502C99.323 22.502 100.112 22.8659 100.745 23.5945C101.376 24.3239 101.692 25.2829 101.692 26.4724ZM99.8782 26.5359C99.8782 25.7755 99.7021 25.1486 99.3497 24.6553C98.9648 24.1408 98.4496 23.8835 97.8008 23.8835C97.3607 23.8835 96.9625 24.0268 96.6051 24.3093C96.2477 24.5942 96.0148 24.9663 95.9054 25.427C95.8511 25.642 95.8227 25.8178 95.8227 25.9562V27.2588C95.8227 27.827 96.0014 28.3066 96.3571 28.6981C96.7145 29.0889 97.1788 29.2851 97.7515 29.2851C98.422 29.2851 98.9439 29.0327 99.3171 28.5296C99.6912 28.0257 99.8782 27.3614 99.8782 26.5359Z" fill="#F2EFED"/>
            <path d="M111.995 27.4361C111.995 28.3577 111.667 29.1075 111.008 29.6863C110.284 30.3189 109.277 30.6347 107.982 30.6347C106.786 30.6347 105.827 30.41 105.102 29.9598L105.514 28.5132C106.296 28.974 107.153 29.2052 108.087 29.2052C108.758 29.2052 109.28 29.057 109.655 28.7623C110.028 28.4676 110.214 28.0719 110.214 27.5786C110.214 27.139 110.061 26.7685 109.753 26.4681C109.446 26.1677 108.934 25.8885 108.22 25.6304C106.274 24.9229 105.302 23.8866 105.302 22.5238C105.302 21.6331 105.643 20.9029 106.325 20.3346C107.005 19.7656 107.911 19.4814 109.046 19.4814C110.056 19.4814 110.897 19.6532 111.567 19.996L111.122 21.4109C110.496 21.0787 109.788 20.9126 108.996 20.9126C108.369 20.9126 107.88 21.0633 107.529 21.3629C107.233 21.6307 107.084 21.9572 107.084 22.3439C107.084 22.7721 107.253 23.1262 107.594 23.4046C107.891 23.6619 108.429 23.9403 109.211 24.2407C110.167 24.616 110.869 25.0548 111.321 25.558C111.771 26.0594 111.995 26.6871 111.995 27.4361Z" fill="#F2EFED"/>
            <path d="M117.882 23.9649H115.92V27.7579C115.92 28.7226 116.265 29.2045 116.958 29.2045C117.276 29.2045 117.54 29.1777 117.749 29.1239L117.798 30.442C117.448 30.5698 116.985 30.6341 116.414 30.6341C115.71 30.6341 115.161 30.4249 114.765 30.0072C114.37 29.5888 114.171 28.887 114.171 27.9011V23.9633H113.002V22.6607H114.171V21.2303L115.92 20.7158V22.6607H117.882V23.9649Z" fill="#F2EFED"/>
            <path d="M126.735 26.5038C126.735 27.7046 126.383 28.6905 125.68 29.4614C124.942 30.2552 123.964 30.6509 122.744 30.6509C121.568 30.6509 120.632 30.2707 119.934 29.5103C119.236 28.7499 118.887 27.7901 118.887 26.6332C118.887 25.4227 119.246 24.4311 119.966 23.6601C120.685 22.8883 121.656 22.5024 122.876 22.5024C124.051 22.5024 124.998 22.8826 125.711 23.6438C126.394 24.3822 126.735 25.3355 126.735 26.5038ZM124.888 26.56C124.888 25.8395 124.73 25.2216 124.41 24.7062C124.037 24.0826 123.503 23.7716 122.812 23.7716C122.097 23.7716 121.553 24.0834 121.18 24.7062C120.86 25.2224 120.702 25.8501 120.702 26.5925C120.702 27.313 120.86 27.9309 121.18 28.4454C121.565 29.069 122.102 29.38 122.796 29.38C123.476 29.38 124.009 29.0625 124.394 28.4292C124.723 27.9041 124.888 27.2796 124.888 26.56Z" fill="#F2EFED"/>
            <path d="M132.521 24.1888C132.345 24.157 132.157 24.1408 131.96 24.1408C131.334 24.1408 130.85 24.3711 130.509 24.8327C130.213 25.2398 130.064 25.7543 130.064 26.3755V30.4745H128.284L128.301 25.1226C128.301 24.2222 128.279 23.4024 128.234 22.6631H129.785L129.85 24.1579H129.9C130.087 23.6441 130.384 23.2306 130.789 22.9204C131.186 22.6412 131.614 22.502 132.076 22.502C132.24 22.502 132.389 22.5134 132.521 22.5337V24.1888Z" fill="#F2EFED"/>
            <path d="M140.483 26.1988C140.483 26.5098 140.462 26.772 140.418 26.9861H135.078C135.098 27.7578 135.356 28.3481 135.852 28.7551C136.302 29.119 136.884 29.3014 137.599 29.3014C138.39 29.3014 139.111 29.1785 139.76 28.9318L140.039 30.1367C139.281 30.4591 138.385 30.6194 137.353 30.6194C136.11 30.6194 135.135 30.2629 134.425 29.5505C133.717 28.8382 133.362 27.8816 133.362 26.6816C133.362 25.5036 133.692 24.5226 134.352 23.7402C135.044 22.9049 135.978 22.4873 137.154 22.4873C138.309 22.4873 139.183 22.9049 139.777 23.7402C140.247 24.4037 140.483 25.2243 140.483 26.1988ZM138.786 25.7486C138.797 25.2341 138.681 24.7896 138.44 24.4143C138.132 23.9315 137.658 23.6906 137.021 23.6906C136.439 23.6906 135.966 23.9258 135.604 24.398C135.308 24.7733 135.131 25.2235 135.078 25.7478H138.786V25.7486Z" fill="#F2EFED"/>
            <rect x="32.5358" y="-1.12243" width="124.621" height="44.4629" rx="4.69678" stroke="#CCCCCC" stroke-width="0.626238"/>
            <path d="M174.324 10.9643C174.078 11.2146 173.937 11.6044 173.937 12.1092V30.1132C173.937 30.6179 174.078 31.0076 174.324 31.258L174.384 31.3129L184.732 21.2282V20.99L174.384 10.9053L174.324 10.9643Z" fill="#F2EFED"/>
            <path d="M189.43 24.5912L185.984 21.2279V20.9898L189.434 17.6265L189.511 17.6702L193.596 19.9365C194.762 20.5797 194.762 21.638 193.596 22.2852L189.511 24.5475L189.43 24.5912Z" fill="#F2EFED"/>
            <path d="M188.885 25.1735L185.358 21.7349L174.95 31.8838C175.337 32.2806 175.969 32.3285 176.687 31.9316L188.885 25.1735Z" fill="#F2EFED"/>
            <path d="M188.885 17.0441L176.687 10.286C175.969 9.8932 175.337 9.94103 174.95 10.3379L185.358 20.4827L188.885 17.0441Z" fill="#F2EFED"/>
            <path d="M205.83 13.1662C205.83 13.846 205.621 14.3904 205.21 14.7964C204.737 15.2778 204.121 15.52 203.367 15.52C202.645 15.52 202.03 15.2738 201.524 14.7883C201.018 14.2958 200.766 13.6913 200.766 12.9678C200.766 12.2442 201.018 11.6398 201.524 11.1513C202.03 10.6618 202.645 10.4155 203.367 10.4155C203.726 10.4155 204.068 10.4878 204.395 10.6221C204.72 10.7575 204.985 10.9406 205.177 11.1666L204.741 11.596C204.406 11.2103 203.95 11.02 203.367 11.02C202.841 11.02 202.384 11.1991 201.997 11.5604C201.614 11.9226 201.422 12.3918 201.422 12.9678C201.422 13.5438 201.614 14.017 201.997 14.3792C202.384 14.7364 202.841 14.9196 203.367 14.9196C203.925 14.9196 204.395 14.7364 204.765 14.3752C205.009 14.136 205.148 13.8063 205.185 13.385H203.367V12.7968H205.792C205.821 12.924 205.83 13.0472 205.83 13.1662Z" fill="#F2EFED"/>
            <path d="M209.678 11.1272H207.4V12.674H209.454V13.2622H207.4V14.809H209.678V15.4084H206.755V10.5278H209.678V11.1272Z" fill="#F2EFED"/>
            <path d="M212.394 15.4084H211.749V11.1272H210.352V10.5278H213.793V11.1272H212.394V15.4084Z" fill="#F2EFED"/>
            <path d="M216.282 15.4084V10.5278H216.926V15.4084H216.282Z" fill="#F2EFED"/>
            <path d="M219.782 15.4084H219.142V11.1272H217.739V10.5278H221.185V11.1272H219.782V15.4084Z" fill="#F2EFED"/>
            <path d="M227.699 14.7802C227.205 15.2738 226.594 15.52 225.864 15.52C225.13 15.52 224.519 15.2738 224.025 14.7802C223.532 14.2876 223.287 13.6832 223.287 12.9678C223.287 12.2523 223.532 11.6479 224.025 11.1554C224.519 10.6618 225.13 10.4155 225.864 10.4155C226.589 10.4155 227.201 10.6618 227.695 11.1594C228.192 11.656 228.437 12.2564 228.437 12.9678C228.437 13.6832 228.192 14.2876 227.699 14.7802ZM224.502 14.3711C224.874 14.7364 225.326 14.9196 225.864 14.9196C226.398 14.9196 226.855 14.7364 227.222 14.3711C227.592 14.0057 227.78 13.5366 227.78 12.9678C227.78 12.3989 227.592 11.9298 227.222 11.5644C226.855 11.1991 226.398 11.0159 225.864 11.0159C225.326 11.0159 224.874 11.1991 224.502 11.5644C224.131 11.9298 223.944 12.3989 223.944 12.9678C223.944 13.5366 224.131 14.0057 224.502 14.3711Z" fill="#F2EFED"/>
            <path d="M229.342 15.4084V10.5278H230.125L232.559 14.3236H232.587L232.559 13.3853V10.5278H233.203V15.4084H232.531L229.982 11.4254H229.954L229.982 12.3677V15.4084H229.342Z" fill="#F2EFED"/>
            <path d="M223.129 22.5355C221.168 22.5355 219.565 23.9907 219.565 25.9985C219.565 27.99 221.168 29.4605 223.129 29.4605C225.094 29.4605 226.696 27.99 226.696 25.9985C226.696 23.9907 225.094 22.5355 223.129 22.5355ZM223.129 28.0969C222.053 28.0969 221.127 27.2308 221.127 25.9985C221.127 24.7499 222.053 23.8991 223.129 23.8991C224.205 23.8991 225.135 24.7499 225.135 25.9985C225.135 27.2308 224.205 28.0969 223.129 28.0969ZM215.354 22.5355C213.389 22.5355 211.791 23.9907 211.791 25.9985C211.791 27.99 213.389 29.4605 215.354 29.4605C217.318 29.4605 218.917 27.99 218.917 25.9985C218.917 23.9907 217.318 22.5355 215.354 22.5355ZM215.354 28.0969C214.277 28.0969 213.348 27.2308 213.348 25.9985C213.348 24.7499 214.277 23.8991 215.354 23.8991C216.43 23.8991 217.356 24.7499 217.356 25.9985C217.356 27.2308 216.43 28.0969 215.354 28.0969ZM206.102 23.5969V25.0684H209.706C209.601 25.8906 209.319 26.4951 208.887 26.9164C208.361 27.4252 207.542 27.99 206.102 27.99C203.884 27.99 202.148 26.2448 202.148 24.0823C202.148 21.9198 203.884 20.1746 206.102 20.1746C207.302 20.1746 208.174 20.6315 208.818 21.2238L209.882 20.1868C208.981 19.3482 207.783 18.7041 206.102 18.7041C203.061 18.7041 200.505 21.1169 200.505 24.0823C200.505 27.0477 203.061 29.4605 206.102 29.4605C207.746 29.4605 208.981 28.9354 209.952 27.9503C210.946 26.9805 211.256 25.6169 211.256 24.5158C211.256 24.1738 211.227 23.8594 211.175 23.5969H206.102ZM243.933 24.7376C243.64 23.9632 242.735 22.5355 240.892 22.5355C239.065 22.5355 237.545 23.9388 237.545 25.9985C237.545 27.9381 239.05 29.4605 241.068 29.4605C242.699 29.4605 243.64 28.4907 244.027 27.9259L242.817 27.1393C242.413 27.7152 241.863 28.0969 241.068 28.0969C240.277 28.0969 239.71 27.7437 239.347 27.0477L244.097 25.1315L243.933 24.7376ZM239.091 25.8906C239.05 24.5555 240.154 23.8716 240.945 23.8716C241.565 23.8716 242.091 24.1738 242.267 24.6064L239.091 25.8906ZM235.23 29.2498H236.791V19.0735H235.23V29.2498ZM232.673 23.3068H232.62C232.27 22.9018 231.601 22.5355 230.753 22.5355C228.975 22.5355 227.349 24.0579 227.349 26.0097C227.349 27.9503 228.975 29.4605 230.753 29.4605C231.601 29.4605 232.27 29.0911 232.62 28.6739H232.673V29.1705C232.673 30.4944 231.947 31.2057 230.777 31.2057C229.823 31.2057 229.232 30.5341 228.987 29.9693L227.629 30.5219C228.021 31.4398 229.057 32.5694 230.777 32.5694C232.608 32.5694 234.153 31.5192 234.153 28.9639V22.7462H232.673V23.3068ZM230.887 28.0969C229.811 28.0969 228.91 27.2186 228.91 26.0097C228.91 24.7896 229.811 23.8991 230.887 23.8991C231.947 23.8991 232.783 24.7896 232.783 26.0097C232.783 27.2186 231.947 28.0969 230.887 28.0969ZM251.244 19.0735H247.509V29.2498H249.066V25.394H251.244C252.973 25.394 254.669 24.1738 254.669 22.2333C254.669 20.2936 252.969 19.0735 251.244 19.0735ZM251.285 23.9785H249.066V20.489H251.285C252.447 20.489 253.111 21.4303 253.111 22.2333C253.111 23.0209 252.447 23.9785 251.285 23.9785ZM260.91 22.5161C259.786 22.5161 258.615 23.0005 258.134 24.0742L259.516 24.639C259.814 24.0742 260.361 23.891 260.939 23.891C261.747 23.891 262.566 24.3642 262.579 25.1996V25.3065C262.297 25.1478 261.693 24.9127 260.951 24.9127C259.463 24.9127 257.947 25.7115 257.947 27.2023C257.947 28.566 259.166 29.4442 260.536 29.4442C261.584 29.4442 262.162 28.9832 262.526 28.4469H262.579V29.2335H264.082V25.3299C264.082 23.5256 262.701 22.5161 260.91 22.5161ZM260.723 28.0928C260.214 28.0928 259.504 27.8465 259.504 27.2308C259.504 26.4432 260.389 26.141 261.155 26.141C261.84 26.141 262.162 26.2885 262.579 26.4829C262.457 27.4252 261.624 28.0928 260.723 28.0928ZM269.562 22.739L267.772 27.1505H267.719L265.868 22.739H264.189L266.969 28.9038L265.383 32.3343H267.01L271.295 22.739H269.562ZM255.525 29.2498H257.087V19.0735H255.525V29.2498Z" fill="#F2EFED"/>
            <rect x="160.288" y="-1.12243" width="124.621" height="44.4629" rx="4.69678" stroke="#CCCCCC" stroke-width="0.626238"/>
            <rect width="318" height="208" transform="translate(0 42)" fill="white"/>
            <path d="M32.0273 79H25.8262V64.6055H32.0273C32.9193 64.6185 33.6615 64.7227 34.2539 64.918C35.263 65.25 36.0801 65.8587 36.7051 66.7441C37.2064 67.4603 37.5482 68.235 37.7305 69.0684C37.9128 69.9017 38.0039 70.696 38.0039 71.4512C38.0039 73.3652 37.6198 74.9863 36.8516 76.3145C35.8099 78.1048 34.2018 79 32.0273 79ZM34.2637 68.2773C33.8014 67.4961 32.8867 67.1055 31.5195 67.1055H28.7461V76.5H31.5195C32.9388 76.5 33.9284 75.8001 34.4883 74.4004C34.7943 73.6322 34.9473 72.7174 34.9473 71.6562C34.9473 70.1914 34.7194 69.0651 34.2637 68.2773ZM48.9316 69.7031C49.8301 70.8294 50.2793 72.1608 50.2793 73.6973C50.2793 75.2598 49.8301 76.5977 48.9316 77.7109C48.0332 78.8177 46.6693 79.3711 44.8398 79.3711C43.0104 79.3711 41.6465 78.8177 40.748 77.7109C39.8496 76.5977 39.4004 75.2598 39.4004 73.6973C39.4004 72.1608 39.8496 70.8294 40.748 69.7031C41.6465 68.5768 43.0104 68.0137 44.8398 68.0137C46.6693 68.0137 48.0332 68.5768 48.9316 69.7031ZM44.8301 70.3672C44.0163 70.3672 43.388 70.6569 42.9453 71.2363C42.5091 71.8092 42.291 72.6296 42.291 73.6973C42.291 74.765 42.5091 75.5885 42.9453 76.168C43.388 76.7474 44.0163 77.0371 44.8301 77.0371C45.6439 77.0371 46.2689 76.7474 46.7051 76.168C47.1413 75.5885 47.3594 74.765 47.3594 73.6973C47.3594 72.6296 47.1413 71.8092 46.7051 71.2363C46.2689 70.6569 45.6439 70.3672 44.8301 70.3672ZM60.3574 79L58.6875 71.2461L56.998 79H54.1074L51.1191 68.3555H54.1074L55.7676 75.9922L57.3008 68.3555H60.123L61.7441 76.0215L63.4043 68.3555H66.3047L63.2188 79H60.3574ZM72.8574 70.416C71.9134 70.416 71.2656 70.8164 70.9141 71.6172C70.7318 72.0404 70.6406 72.5807 70.6406 73.2383V79H67.8672V68.375H70.5527V69.9277C70.9108 69.3809 71.2493 68.987 71.5684 68.7461C72.1413 68.3164 72.8672 68.1016 73.7461 68.1016C74.8464 68.1016 75.7448 68.3913 76.4414 68.9707C77.1445 69.5436 77.4961 70.4974 77.4961 71.832V79H74.6445V72.5254C74.6445 71.9655 74.5697 71.5358 74.4199 71.2363C74.1465 70.6895 73.6257 70.416 72.8574 70.416ZM80.1328 64.6055H82.916V79H80.1328V64.6055ZM94.5176 69.7031C95.416 70.8294 95.8652 72.1608 95.8652 73.6973C95.8652 75.2598 95.416 76.5977 94.5176 77.7109C93.6191 78.8177 92.2552 79.3711 90.4258 79.3711C88.5964 79.3711 87.2324 78.8177 86.334 77.7109C85.4355 76.5977 84.9863 75.2598 84.9863 73.6973C84.9863 72.1608 85.4355 70.8294 86.334 69.7031C87.2324 68.5768 88.5964 68.0137 90.4258 68.0137C92.2552 68.0137 93.6191 68.5768 94.5176 69.7031ZM90.416 70.3672C89.6022 70.3672 88.974 70.6569 88.5312 71.2363C88.0951 71.8092 87.877 72.6296 87.877 73.6973C87.877 74.765 88.0951 75.5885 88.5312 76.168C88.974 76.7474 89.6022 77.0371 90.416 77.0371C91.2298 77.0371 91.8548 76.7474 92.291 76.168C92.7272 75.5885 92.9453 74.765 92.9453 73.6973C92.9453 72.6296 92.7272 71.8092 92.291 71.2363C91.8548 70.6569 91.2298 70.3672 90.416 70.3672ZM98.2676 69.5078C99.0033 68.5703 100.266 68.1016 102.057 68.1016C103.222 68.1016 104.257 68.3327 105.162 68.7949C106.067 69.2572 106.52 70.1296 106.52 71.4121V76.2949C106.52 76.6335 106.526 77.0436 106.539 77.5254C106.559 77.89 106.614 78.1374 106.705 78.2676C106.796 78.3978 106.933 78.5052 107.115 78.5898V79H104.088C104.003 78.7852 103.945 78.5833 103.912 78.3945C103.88 78.2057 103.854 77.9909 103.834 77.75C103.45 78.1667 103.007 78.5215 102.506 78.8145C101.907 79.1595 101.23 79.332 100.475 79.332C99.5111 79.332 98.7135 79.0586 98.082 78.5117C97.457 77.9583 97.1445 77.1771 97.1445 76.168C97.1445 74.8594 97.6491 73.9121 98.6582 73.3262C99.2116 73.0072 100.025 72.7793 101.1 72.6426L102.047 72.5254C102.561 72.4603 102.929 72.3789 103.15 72.2812C103.548 72.112 103.746 71.8483 103.746 71.4902C103.746 71.054 103.593 70.7546 103.287 70.5918C102.988 70.4225 102.545 70.3379 101.959 70.3379C101.301 70.3379 100.836 70.5007 100.562 70.8262C100.367 71.0671 100.237 71.3926 100.172 71.8027H97.4863C97.5449 70.8717 97.8053 70.1068 98.2676 69.5078ZM100.338 76.9883C100.598 77.2031 100.917 77.3105 101.295 77.3105C101.894 77.3105 102.444 77.1348 102.945 76.7832C103.453 76.4316 103.717 75.7904 103.736 74.8594V73.8242C103.561 73.9349 103.382 74.026 103.199 74.0977C103.023 74.1628 102.779 74.2246 102.467 74.2832L101.842 74.4004C101.256 74.5046 100.836 74.6315 100.582 74.7812C100.152 75.0352 99.9375 75.429 99.9375 75.9629C99.9375 76.4382 100.071 76.7799 100.338 76.9883ZM118.688 64.625V79H115.982V77.5254C115.585 78.1569 115.133 78.6159 114.625 78.9023C114.117 79.1888 113.486 79.332 112.73 79.332C111.487 79.332 110.439 78.8307 109.586 77.8281C108.74 76.819 108.316 75.5267 108.316 73.9512C108.316 72.1348 108.733 70.7057 109.566 69.6641C110.406 68.6224 111.526 68.1016 112.926 68.1016C113.57 68.1016 114.143 68.2448 114.645 68.5312C115.146 68.8112 115.553 69.2018 115.865 69.7031V64.625H118.688ZM111.188 73.7461C111.188 74.7292 111.383 75.5137 111.773 76.0996C112.158 76.6921 112.743 76.9883 113.531 76.9883C114.319 76.9883 114.918 76.6953 115.328 76.1094C115.738 75.5234 115.943 74.765 115.943 73.834C115.943 72.5319 115.615 71.6009 114.957 71.041C114.553 70.7025 114.085 70.5332 113.551 70.5332C112.737 70.5332 112.138 70.8424 111.754 71.4609C111.376 72.0729 111.188 72.8346 111.188 73.7461ZM141.021 64.6055H144.078L140.025 79H137.154L135.416 70.582L134.908 67.7988L134.4 70.582L132.662 79H129.869L125.787 64.6055H128.98L130.885 72.8477L131.295 75.1426L131.715 72.8965L133.336 64.6055H136.51L138.219 72.8477L138.658 75.1426L139.098 72.9355L141.021 64.6055ZM145.338 69.5078C146.074 68.5703 147.337 68.1016 149.127 68.1016C150.292 68.1016 151.327 68.3327 152.232 68.7949C153.137 69.2572 153.59 70.1296 153.59 71.4121V76.2949C153.59 76.6335 153.596 77.0436 153.609 77.5254C153.629 77.89 153.684 78.1374 153.775 78.2676C153.867 78.3978 154.003 78.5052 154.186 78.5898V79H151.158C151.074 78.7852 151.015 78.5833 150.982 78.3945C150.95 78.2057 150.924 77.9909 150.904 77.75C150.52 78.1667 150.077 78.5215 149.576 78.8145C148.977 79.1595 148.3 79.332 147.545 79.332C146.581 79.332 145.784 79.0586 145.152 78.5117C144.527 77.9583 144.215 77.1771 144.215 76.168C144.215 74.8594 144.719 73.9121 145.729 73.3262C146.282 73.0072 147.096 72.7793 148.17 72.6426L149.117 72.5254C149.632 72.4603 149.999 72.3789 150.221 72.2812C150.618 72.112 150.816 71.8483 150.816 71.4902C150.816 71.054 150.663 70.7546 150.357 70.5918C150.058 70.4225 149.615 70.3379 149.029 70.3379C148.372 70.3379 147.906 70.5007 147.633 70.8262C147.438 71.0671 147.307 71.3926 147.242 71.8027H144.557C144.615 70.8717 144.876 70.1068 145.338 69.5078ZM147.408 76.9883C147.669 77.2031 147.988 77.3105 148.365 77.3105C148.964 77.3105 149.514 77.1348 150.016 76.7832C150.523 76.4316 150.787 75.7904 150.807 74.8594V73.8242C150.631 73.9349 150.452 74.026 150.27 74.0977C150.094 74.1628 149.85 74.2246 149.537 74.2832L148.912 74.4004C148.326 74.5046 147.906 74.6315 147.652 74.7812C147.223 75.0352 147.008 75.429 147.008 75.9629C147.008 76.4382 147.141 76.7799 147.408 76.9883ZM156.129 64.6055H158.912V79H156.129V64.6055ZM161.695 64.6055H164.479V79H161.695V64.6055ZM176.314 75.875C176.243 76.5065 175.914 77.1478 175.328 77.7988C174.417 78.834 173.141 79.3516 171.5 79.3516C170.146 79.3516 168.951 78.9154 167.916 78.043C166.881 77.1706 166.363 75.7513 166.363 73.7852C166.363 71.9427 166.829 70.5299 167.76 69.5469C168.697 68.5638 169.911 68.0723 171.402 68.0723C172.288 68.0723 173.085 68.2383 173.795 68.5703C174.505 68.9023 175.09 69.4264 175.553 70.1426C175.969 70.7741 176.24 71.5065 176.363 72.3398C176.435 72.8281 176.464 73.5312 176.451 74.4492H169.166C169.205 75.5169 169.54 76.2656 170.172 76.6953C170.556 76.9622 171.018 77.0957 171.559 77.0957C172.132 77.0957 172.597 76.9329 172.955 76.6074C173.15 76.4316 173.323 76.1875 173.473 75.875H176.314ZM173.561 72.6133C173.515 71.8776 173.29 71.321 172.887 70.9434C172.49 70.5592 171.995 70.3672 171.402 70.3672C170.758 70.3672 170.257 70.569 169.898 70.9727C169.547 71.3763 169.326 71.9232 169.234 72.6133H173.561ZM183.209 77.0176V79.0977L181.891 79.1465C180.576 79.1921 179.677 78.9642 179.195 78.4629C178.883 78.1439 178.727 77.6523 178.727 76.9883V70.4355H177.242V68.4531H178.727V65.4844H181.48V68.4531H183.209V70.4355H181.48V76.0605C181.48 76.4967 181.536 76.7702 181.646 76.8809C181.757 76.985 182.096 77.0371 182.662 77.0371C182.747 77.0371 182.835 77.0371 182.926 77.0371C183.023 77.0306 183.118 77.0241 183.209 77.0176Z" fill="black"/>
            <path d="M29.4004 103.685C31.1732 103.685 32.4857 104.254 33.3379 105.394C34.0033 106.282 34.3359 107.419 34.3359 108.805C34.3359 110.304 33.9554 111.55 33.1943 112.544C32.3011 113.711 31.0273 114.294 29.373 114.294C27.8281 114.294 26.6136 113.784 25.7295 112.763C24.9411 111.778 24.5469 110.534 24.5469 109.03C24.5469 107.672 24.8841 106.51 25.5586 105.544C26.4245 104.304 27.7051 103.685 29.4004 103.685ZM29.5371 113.077C30.7357 113.077 31.6016 112.649 32.1348 111.792C32.6725 110.931 32.9414 109.942 32.9414 108.825C32.9414 107.645 32.6315 106.695 32.0117 105.975C31.3965 105.255 30.5534 104.895 29.4824 104.895C28.4434 104.895 27.5957 105.252 26.9395 105.968C26.2832 106.679 25.9551 107.729 25.9551 109.119C25.9551 110.231 26.2354 111.17 26.7959 111.936C27.361 112.697 28.2747 113.077 29.5371 113.077ZM35.7988 106.679H36.9678V107.718C37.3141 107.289 37.681 106.982 38.0684 106.795C38.4557 106.608 38.8864 106.515 39.3604 106.515C40.3994 106.515 41.1012 106.877 41.4658 107.602C41.6663 107.998 41.7666 108.565 41.7666 109.304V114H40.5156V109.386C40.5156 108.939 40.4495 108.579 40.3174 108.306C40.0986 107.85 39.7021 107.622 39.1279 107.622C38.8363 107.622 38.597 107.652 38.4102 107.711C38.0729 107.811 37.7767 108.012 37.5215 108.312C37.3164 108.554 37.182 108.805 37.1182 109.064C37.0589 109.32 37.0293 109.687 37.0293 110.165V114H35.7988V106.679ZM52.041 109.885L50.5166 105.448L48.8965 109.885H52.041ZM49.8057 103.958H51.3438L54.9873 114H53.4971L52.4785 110.992H48.5068L47.4199 114H46.0254L49.8057 103.958ZM56.792 111.703C56.8285 112.113 56.931 112.428 57.0996 112.646C57.4095 113.043 57.9473 113.241 58.7129 113.241C59.1686 113.241 59.5697 113.143 59.916 112.947C60.2624 112.747 60.4355 112.439 60.4355 112.024C60.4355 111.71 60.2965 111.471 60.0186 111.307C59.8408 111.206 59.4899 111.09 58.9658 110.958L57.9883 110.712C57.3639 110.557 56.9036 110.384 56.6074 110.192C56.0788 109.86 55.8145 109.399 55.8145 108.812C55.8145 108.119 56.0628 107.558 56.5596 107.13C57.0609 106.701 57.7331 106.487 58.5762 106.487C59.679 106.487 60.4743 106.811 60.9619 107.458C61.2673 107.868 61.4154 108.31 61.4062 108.784H60.2441C60.2214 108.506 60.1234 108.253 59.9502 108.025C59.6676 107.702 59.1777 107.54 58.4805 107.54C58.0156 107.54 57.6624 107.629 57.4209 107.807C57.1839 107.984 57.0654 108.219 57.0654 108.511C57.0654 108.83 57.2227 109.085 57.5371 109.276C57.7194 109.39 57.9883 109.491 58.3438 109.577L59.1572 109.775C60.0413 109.99 60.6338 110.197 60.9346 110.397C61.4131 110.712 61.6523 111.206 61.6523 111.881C61.6523 112.533 61.404 113.095 60.9072 113.569C60.415 114.043 59.6631 114.28 58.6514 114.28C57.5622 114.28 56.7897 114.034 56.334 113.542C55.8828 113.045 55.6413 112.432 55.6094 111.703H56.792ZM63.3066 104.635H64.5508V106.679H65.7197V107.684H64.5508V112.462C64.5508 112.717 64.6374 112.888 64.8105 112.975C64.9062 113.025 65.0658 113.05 65.2891 113.05C65.3483 113.05 65.4121 113.05 65.4805 113.05C65.5488 113.045 65.6286 113.038 65.7197 113.029V114C65.5785 114.041 65.4303 114.071 65.2754 114.089C65.125 114.107 64.9609 114.116 64.7832 114.116C64.209 114.116 63.8193 113.97 63.6143 113.679C63.4092 113.382 63.3066 113 63.3066 112.53V107.684H62.3154V106.679H63.3066V104.635ZM66.9912 106.679H68.1602V107.943C68.2559 107.697 68.4906 107.399 68.8643 107.048C69.238 106.692 69.6686 106.515 70.1562 106.515C70.179 106.515 70.2178 106.517 70.2725 106.521C70.3271 106.526 70.4206 106.535 70.5527 106.549V107.848C70.4798 107.834 70.4115 107.825 70.3477 107.82C70.2884 107.816 70.2223 107.813 70.1494 107.813C69.5296 107.813 69.0534 108.014 68.7207 108.415C68.388 108.812 68.2217 109.27 68.2217 109.789V114H66.9912V106.679ZM74.5244 113.207C75.3402 113.207 75.8984 112.899 76.1992 112.284C76.5046 111.664 76.6572 110.976 76.6572 110.22C76.6572 109.536 76.5479 108.98 76.3291 108.552C75.9827 107.877 75.3857 107.54 74.5381 107.54C73.7861 107.54 73.2393 107.827 72.8975 108.401C72.5557 108.976 72.3848 109.668 72.3848 110.479C72.3848 111.259 72.5557 111.908 72.8975 112.428C73.2393 112.947 73.7816 113.207 74.5244 113.207ZM74.5723 106.467C75.5156 106.467 76.3132 106.781 76.9648 107.41C77.6165 108.039 77.9424 108.964 77.9424 110.186C77.9424 111.366 77.6553 112.341 77.0811 113.111C76.5068 113.882 75.6159 114.267 74.4082 114.267C73.401 114.267 72.6012 113.927 72.0088 113.248C71.4163 112.564 71.1201 111.648 71.1201 110.5C71.1201 109.27 71.4323 108.29 72.0566 107.561C72.681 106.831 73.5195 106.467 74.5723 106.467ZM80.0137 106.679L81.9688 112.64L84.0127 106.679H85.3594L82.5977 114H81.2852L78.585 106.679H80.0137ZM87.3555 112.052C87.3555 112.407 87.4854 112.688 87.7451 112.893C88.0049 113.098 88.3125 113.2 88.668 113.2C89.1009 113.2 89.5202 113.1 89.9258 112.899C90.6094 112.567 90.9512 112.022 90.9512 111.266V110.274C90.8008 110.37 90.6071 110.45 90.3701 110.514C90.1331 110.577 89.9007 110.623 89.6729 110.65L88.9277 110.746C88.4811 110.805 88.1462 110.899 87.9229 111.026C87.5446 111.241 87.3555 111.582 87.3555 112.052ZM90.3359 109.563C90.6185 109.527 90.8076 109.409 90.9033 109.208C90.958 109.099 90.9854 108.941 90.9854 108.736C90.9854 108.317 90.835 108.014 90.5342 107.827C90.238 107.636 89.8118 107.54 89.2559 107.54C88.6133 107.54 88.1576 107.713 87.8887 108.06C87.7383 108.251 87.6403 108.536 87.5947 108.914H86.4463C86.4691 108.012 86.7607 107.385 87.3213 107.034C87.8864 106.679 88.5404 106.501 89.2832 106.501C90.1445 106.501 90.8441 106.665 91.3818 106.993C91.915 107.321 92.1816 107.832 92.1816 108.524V112.742C92.1816 112.87 92.2067 112.972 92.2568 113.05C92.3115 113.127 92.4232 113.166 92.5918 113.166C92.6465 113.166 92.708 113.164 92.7764 113.159C92.8447 113.15 92.9176 113.139 92.9951 113.125V114.034C92.8037 114.089 92.6579 114.123 92.5576 114.137C92.4574 114.15 92.3206 114.157 92.1475 114.157C91.7236 114.157 91.416 114.007 91.2246 113.706C91.1243 113.547 91.0537 113.321 91.0127 113.029C90.762 113.357 90.402 113.642 89.9326 113.884C89.4632 114.125 88.946 114.246 88.3809 114.246C87.7018 114.246 87.1458 114.041 86.7129 113.631C86.2845 113.216 86.0703 112.699 86.0703 112.079C86.0703 111.4 86.2822 110.874 86.7061 110.5C87.1299 110.126 87.6859 109.896 88.374 109.81L90.3359 109.563ZM95.4355 106.679V111.539C95.4355 111.913 95.4948 112.218 95.6133 112.455C95.832 112.893 96.2399 113.111 96.8369 113.111C97.6937 113.111 98.277 112.729 98.5869 111.963C98.7555 111.553 98.8398 110.99 98.8398 110.274V106.679H100.07V114H98.9082L98.9219 112.92C98.7624 113.198 98.5641 113.433 98.3271 113.624C97.8577 114.007 97.2881 114.198 96.6182 114.198C95.5745 114.198 94.8636 113.85 94.4854 113.152C94.2803 112.779 94.1777 112.28 94.1777 111.655V106.679H95.4355ZM102.032 103.958H103.263V114H102.032V103.958ZM105.361 104.635H106.605V106.679H107.774V107.684H106.605V112.462C106.605 112.717 106.692 112.888 106.865 112.975C106.961 113.025 107.12 113.05 107.344 113.05C107.403 113.05 107.467 113.05 107.535 113.05C107.604 113.045 107.683 113.038 107.774 113.029V114C107.633 114.041 107.485 114.071 107.33 114.089C107.18 114.107 107.016 114.116 106.838 114.116C106.264 114.116 105.874 113.97 105.669 113.679C105.464 113.382 105.361 113 105.361 112.53V107.684H104.37V106.679H105.361V104.635ZM115.492 106.549C116.066 106.549 116.568 106.69 116.996 106.973C117.229 107.132 117.465 107.365 117.707 107.67V106.747H118.842V113.405C118.842 114.335 118.705 115.069 118.432 115.606C117.921 116.6 116.957 117.097 115.54 117.097C114.752 117.097 114.089 116.919 113.551 116.563C113.013 116.213 112.712 115.661 112.648 114.909H113.899C113.959 115.237 114.077 115.49 114.255 115.668C114.533 115.941 114.97 116.078 115.567 116.078C116.511 116.078 117.128 115.745 117.42 115.08C117.593 114.688 117.673 113.989 117.659 112.981C117.413 113.355 117.117 113.633 116.771 113.815C116.424 113.998 115.966 114.089 115.396 114.089C114.604 114.089 113.909 113.809 113.312 113.248C112.719 112.683 112.423 111.751 112.423 110.452C112.423 109.226 112.721 108.269 113.318 107.581C113.92 106.893 114.645 106.549 115.492 106.549ZM117.707 110.309C117.707 109.402 117.52 108.729 117.146 108.292C116.773 107.854 116.297 107.636 115.718 107.636C114.852 107.636 114.259 108.041 113.94 108.853C113.772 109.285 113.688 109.853 113.688 110.555C113.688 111.38 113.854 112.008 114.187 112.441C114.524 112.87 114.975 113.084 115.54 113.084C116.424 113.084 117.046 112.685 117.406 111.888C117.607 111.437 117.707 110.91 117.707 110.309ZM123.75 106.515C124.27 106.515 124.773 106.638 125.261 106.884C125.748 107.125 126.12 107.44 126.375 107.827C126.621 108.196 126.785 108.627 126.867 109.119C126.94 109.456 126.977 109.994 126.977 110.732H121.61C121.633 111.475 121.809 112.072 122.137 112.523C122.465 112.97 122.973 113.193 123.661 113.193C124.304 113.193 124.816 112.981 125.199 112.558C125.418 112.312 125.573 112.027 125.664 111.703H126.874C126.842 111.972 126.735 112.273 126.553 112.605C126.375 112.934 126.174 113.202 125.951 113.412C125.577 113.777 125.115 114.023 124.563 114.15C124.267 114.223 123.932 114.26 123.559 114.26C122.647 114.26 121.875 113.929 121.241 113.269C120.608 112.603 120.291 111.674 120.291 110.479C120.291 109.304 120.61 108.349 121.248 107.615C121.886 106.882 122.72 106.515 123.75 106.515ZM125.712 109.755C125.662 109.222 125.546 108.796 125.363 108.477C125.026 107.884 124.463 107.588 123.675 107.588C123.11 107.588 122.636 107.793 122.253 108.203C121.87 108.609 121.667 109.126 121.645 109.755H125.712ZM128.74 104.635H129.984V106.679H131.153V107.684H129.984V112.462C129.984 112.717 130.071 112.888 130.244 112.975C130.34 113.025 130.499 113.05 130.723 113.05C130.782 113.05 130.846 113.05 130.914 113.05C130.982 113.045 131.062 113.038 131.153 113.029V114C131.012 114.041 130.864 114.071 130.709 114.089C130.559 114.107 130.395 114.116 130.217 114.116C129.643 114.116 129.253 113.97 129.048 113.679C128.843 113.382 128.74 113 128.74 112.53V107.684H127.749V106.679H128.74V104.635ZM140.84 109.885L139.315 105.448L137.695 109.885H140.84ZM138.604 103.958H140.143L143.786 114H142.296L141.277 110.992H137.306L136.219 114H134.824L138.604 103.958ZM149.692 108.559C150.33 108.559 150.834 108.431 151.203 108.176C151.577 107.921 151.764 107.46 151.764 106.795C151.764 106.079 151.504 105.592 150.984 105.332C150.706 105.195 150.335 105.127 149.87 105.127H146.548V108.559H149.692ZM145.188 103.958H149.836C150.602 103.958 151.233 104.07 151.729 104.293C152.673 104.721 153.145 105.512 153.145 106.665C153.145 107.267 153.019 107.759 152.769 108.142C152.522 108.524 152.176 108.832 151.729 109.064C152.121 109.224 152.415 109.434 152.611 109.693C152.812 109.953 152.924 110.375 152.946 110.958L152.994 112.305C153.008 112.688 153.04 112.972 153.09 113.159C153.172 113.478 153.318 113.683 153.527 113.774V114H151.859C151.814 113.913 151.777 113.802 151.75 113.665C151.723 113.528 151.7 113.264 151.682 112.872L151.6 111.197C151.568 110.541 151.324 110.101 150.868 109.878C150.608 109.755 150.201 109.693 149.645 109.693H146.548V114H145.188V103.958ZM159.372 103.685C160.644 103.685 161.63 104.02 162.332 104.689C163.034 105.359 163.424 106.12 163.501 106.973H162.175C162.024 106.326 161.724 105.813 161.272 105.435C160.826 105.056 160.197 104.867 159.386 104.867C158.397 104.867 157.597 105.216 156.986 105.913C156.38 106.606 156.077 107.67 156.077 109.105C156.077 110.281 156.351 111.236 156.897 111.97C157.449 112.699 158.269 113.063 159.358 113.063C160.361 113.063 161.124 112.678 161.648 111.908C161.926 111.503 162.134 110.969 162.271 110.309H163.597C163.478 111.366 163.086 112.252 162.421 112.968C161.623 113.829 160.548 114.26 159.194 114.26C158.028 114.26 157.048 113.907 156.255 113.2C155.211 112.266 154.689 110.824 154.689 108.873C154.689 107.392 155.081 106.177 155.865 105.229C156.713 104.2 157.882 103.685 159.372 103.685ZM165.292 103.958H166.666V108.107H171.889V103.958H173.263V114H171.889V109.304H166.666V114H165.292V103.958ZM179.887 110.425C179.887 111.209 180.053 111.865 180.386 112.394C180.718 112.922 181.252 113.187 181.985 113.187C182.555 113.187 183.022 112.943 183.387 112.455C183.756 111.963 183.94 111.259 183.94 110.343C183.94 109.418 183.751 108.734 183.373 108.292C182.995 107.845 182.528 107.622 181.972 107.622C181.352 107.622 180.848 107.859 180.461 108.333C180.078 108.807 179.887 109.504 179.887 110.425ZM181.739 106.549C182.3 106.549 182.769 106.667 183.147 106.904C183.366 107.041 183.615 107.28 183.893 107.622V103.924H185.075V114H183.968V112.981C183.681 113.433 183.341 113.758 182.949 113.959C182.557 114.16 182.108 114.26 181.603 114.26C180.787 114.26 180.08 113.918 179.483 113.234C178.886 112.546 178.588 111.632 178.588 110.493C178.588 109.427 178.859 108.504 179.401 107.725C179.948 106.941 180.728 106.549 181.739 106.549ZM189.949 106.515C190.469 106.515 190.972 106.638 191.46 106.884C191.948 107.125 192.319 107.44 192.574 107.827C192.82 108.196 192.984 108.627 193.066 109.119C193.139 109.456 193.176 109.994 193.176 110.732H187.81C187.832 111.475 188.008 112.072 188.336 112.523C188.664 112.97 189.172 113.193 189.86 113.193C190.503 113.193 191.016 112.981 191.398 112.558C191.617 112.312 191.772 112.027 191.863 111.703H193.073C193.041 111.972 192.934 112.273 192.752 112.605C192.574 112.934 192.374 113.202 192.15 113.412C191.777 113.777 191.314 114.023 190.763 114.15C190.466 114.223 190.132 114.26 189.758 114.26C188.846 114.26 188.074 113.929 187.44 113.269C186.807 112.603 186.49 111.674 186.49 110.479C186.49 109.304 186.809 108.349 187.447 107.615C188.085 106.882 188.919 106.515 189.949 106.515ZM191.911 109.755C191.861 109.222 191.745 108.796 191.562 108.477C191.225 107.884 190.662 107.588 189.874 107.588C189.309 107.588 188.835 107.793 188.452 108.203C188.069 108.609 187.867 109.126 187.844 109.755H191.911ZM194.728 106.679H195.896V107.943C195.992 107.697 196.227 107.399 196.601 107.048C196.974 106.692 197.405 106.515 197.893 106.515C197.915 106.515 197.954 106.517 198.009 106.521C198.063 106.526 198.157 106.535 198.289 106.549V107.848C198.216 107.834 198.148 107.825 198.084 107.82C198.025 107.816 197.959 107.813 197.886 107.813C197.266 107.813 196.79 108.014 196.457 108.415C196.124 108.812 195.958 109.27 195.958 109.789V114H194.728V106.679ZM199.355 106.713H200.606V114H199.355V106.713ZM199.355 103.958H200.606V105.353H199.355V103.958ZM203.074 106.679L205.029 112.64L207.073 106.679H208.42L205.658 114H204.346L201.646 106.679H203.074ZM210.416 112.052C210.416 112.407 210.546 112.688 210.806 112.893C211.065 113.098 211.373 113.2 211.729 113.2C212.161 113.2 212.581 113.1 212.986 112.899C213.67 112.567 214.012 112.022 214.012 111.266V110.274C213.861 110.37 213.668 110.45 213.431 110.514C213.194 110.577 212.961 110.623 212.733 110.65L211.988 110.746C211.542 110.805 211.207 110.899 210.983 111.026C210.605 111.241 210.416 111.582 210.416 112.052ZM213.396 109.563C213.679 109.527 213.868 109.409 213.964 109.208C214.019 109.099 214.046 108.941 214.046 108.736C214.046 108.317 213.896 108.014 213.595 107.827C213.299 107.636 212.872 107.54 212.316 107.54C211.674 107.54 211.218 107.713 210.949 108.06C210.799 108.251 210.701 108.536 210.655 108.914H209.507C209.53 108.012 209.821 107.385 210.382 107.034C210.947 106.679 211.601 106.501 212.344 106.501C213.205 106.501 213.905 106.665 214.442 106.993C214.976 107.321 215.242 107.832 215.242 108.524V112.742C215.242 112.87 215.267 112.972 215.317 113.05C215.372 113.127 215.484 113.166 215.652 113.166C215.707 113.166 215.769 113.164 215.837 113.159C215.905 113.15 215.978 113.139 216.056 113.125V114.034C215.864 114.089 215.718 114.123 215.618 114.137C215.518 114.15 215.381 114.157 215.208 114.157C214.784 114.157 214.477 114.007 214.285 113.706C214.185 113.547 214.114 113.321 214.073 113.029C213.823 113.357 213.463 113.642 212.993 113.884C212.524 114.125 212.007 114.246 211.441 114.246C210.762 114.246 210.206 114.041 209.773 113.631C209.345 113.216 209.131 112.699 209.131 112.079C209.131 111.4 209.343 110.874 209.767 110.5C210.19 110.126 210.746 109.896 211.435 109.81L213.396 109.563ZM217.512 104.635H218.756V106.679H219.925V107.684H218.756V112.462C218.756 112.717 218.842 112.888 219.016 112.975C219.111 113.025 219.271 113.05 219.494 113.05C219.553 113.05 219.617 113.05 219.686 113.05C219.754 113.045 219.834 113.038 219.925 113.029V114C219.784 114.041 219.635 114.071 219.48 114.089C219.33 114.107 219.166 114.116 218.988 114.116C218.414 114.116 218.024 113.97 217.819 113.679C217.614 113.382 217.512 113 217.512 112.53V107.684H216.521V106.679H217.512V104.635ZM221.162 106.713H222.413V114H221.162V106.713ZM221.162 103.958H222.413V105.353H221.162V103.958ZM224.881 106.679L226.836 112.64L228.88 106.679H230.227L227.465 114H226.152L223.452 106.679H224.881ZM234.328 106.515C234.848 106.515 235.351 106.638 235.839 106.884C236.326 107.125 236.698 107.44 236.953 107.827C237.199 108.196 237.363 108.627 237.445 109.119C237.518 109.456 237.555 109.994 237.555 110.732H232.188C232.211 111.475 232.387 112.072 232.715 112.523C233.043 112.97 233.551 113.193 234.239 113.193C234.882 113.193 235.395 112.981 235.777 112.558C235.996 112.312 236.151 112.027 236.242 111.703H237.452C237.42 111.972 237.313 112.273 237.131 112.605C236.953 112.934 236.753 113.202 236.529 113.412C236.156 113.777 235.693 114.023 235.142 114.15C234.845 114.223 234.51 114.26 234.137 114.26C233.225 114.26 232.453 113.929 231.819 113.269C231.186 112.603 230.869 111.674 230.869 110.479C230.869 109.304 231.188 108.349 231.826 107.615C232.464 106.882 233.298 106.515 234.328 106.515ZM236.29 109.755C236.24 109.222 236.124 108.796 235.941 108.477C235.604 107.884 235.041 107.588 234.253 107.588C233.688 107.588 233.214 107.793 232.831 108.203C232.448 108.609 232.245 109.126 232.223 109.755H236.29ZM243.536 106.679L244.944 112.448L246.373 106.679H247.754L249.189 112.414L250.687 106.679H251.917L249.791 114H248.513L247.022 108.333L245.58 114H244.302L242.189 106.679H243.536ZM253.086 106.713H254.337V114H253.086V106.713ZM253.086 103.958H254.337V105.353H253.086V103.958ZM256.449 104.635H257.693V106.679H258.862V107.684H257.693V112.462C257.693 112.717 257.78 112.888 257.953 112.975C258.049 113.025 258.208 113.05 258.432 113.05C258.491 113.05 258.555 113.05 258.623 113.05C258.691 113.045 258.771 113.038 258.862 113.029V114C258.721 114.041 258.573 114.071 258.418 114.089C258.268 114.107 258.104 114.116 257.926 114.116C257.352 114.116 256.962 113.97 256.757 113.679C256.552 113.382 256.449 113 256.449 112.53V107.684H255.458V106.679H256.449V104.635ZM260.1 103.924H261.33V107.67C261.622 107.301 261.884 107.041 262.116 106.891C262.513 106.631 263.007 106.501 263.6 106.501C264.661 106.501 265.382 106.872 265.76 107.615C265.965 108.021 266.067 108.584 266.067 109.304V114H264.803V109.386C264.803 108.848 264.734 108.454 264.598 108.203C264.374 107.802 263.955 107.602 263.34 107.602C262.829 107.602 262.367 107.777 261.952 108.128C261.537 108.479 261.33 109.142 261.33 110.117V114H260.1V103.924ZM272.732 112.052C272.732 112.407 272.862 112.688 273.122 112.893C273.382 113.098 273.689 113.2 274.045 113.2C274.478 113.2 274.897 113.1 275.303 112.899C275.986 112.567 276.328 112.022 276.328 111.266V110.274C276.178 110.37 275.984 110.45 275.747 110.514C275.51 110.577 275.278 110.623 275.05 110.65L274.305 110.746C273.858 110.805 273.523 110.899 273.3 111.026C272.922 111.241 272.732 111.582 272.732 112.052ZM275.713 109.563C275.995 109.527 276.185 109.409 276.28 109.208C276.335 109.099 276.362 108.941 276.362 108.736C276.362 108.317 276.212 108.014 275.911 107.827C275.615 107.636 275.189 107.54 274.633 107.54C273.99 107.54 273.535 107.713 273.266 108.06C273.115 108.251 273.017 108.536 272.972 108.914H271.823C271.846 108.012 272.138 107.385 272.698 107.034C273.263 106.679 273.917 106.501 274.66 106.501C275.521 106.501 276.221 106.665 276.759 106.993C277.292 107.321 277.559 107.832 277.559 108.524V112.742C277.559 112.87 277.584 112.972 277.634 113.05C277.688 113.127 277.8 113.166 277.969 113.166C278.023 113.166 278.085 113.164 278.153 113.159C278.222 113.15 278.295 113.139 278.372 113.125V114.034C278.181 114.089 278.035 114.123 277.935 114.137C277.834 114.15 277.698 114.157 277.524 114.157C277.101 114.157 276.793 114.007 276.602 113.706C276.501 113.547 276.431 113.321 276.39 113.029C276.139 113.357 275.779 113.642 275.31 113.884C274.84 114.125 274.323 114.246 273.758 114.246C273.079 114.246 272.523 114.041 272.09 113.631C271.661 113.216 271.447 112.699 271.447 112.079C271.447 111.4 271.659 110.874 272.083 110.5C272.507 110.126 273.063 109.896 273.751 109.81L275.713 109.563ZM279.828 104.635H281.072V106.679H282.241V107.684H281.072V112.462C281.072 112.717 281.159 112.888 281.332 112.975C281.428 113.025 281.587 113.05 281.811 113.05C281.87 113.05 281.934 113.05 282.002 113.05C282.07 113.045 282.15 113.038 282.241 113.029V114C282.1 114.041 281.952 114.071 281.797 114.089C281.646 114.107 281.482 114.116 281.305 114.116C280.73 114.116 280.341 113.97 280.136 113.679C279.931 113.382 279.828 113 279.828 112.53V107.684H278.837V106.679H279.828V104.635ZM24.9365 125.958H26.167V136H24.9365V125.958ZM31.0684 128.515C31.5879 128.515 32.0915 128.638 32.5791 128.884C33.0667 129.125 33.4382 129.44 33.6934 129.827C33.9395 130.196 34.1035 130.627 34.1855 131.119C34.2585 131.456 34.2949 131.994 34.2949 132.732H28.9287C28.9515 133.475 29.127 134.072 29.4551 134.523C29.7832 134.97 30.2913 135.193 30.9795 135.193C31.6221 135.193 32.1348 134.981 32.5176 134.558C32.7363 134.312 32.8913 134.027 32.9824 133.703H34.1924C34.1605 133.972 34.0534 134.273 33.8711 134.605C33.6934 134.934 33.4928 135.202 33.2695 135.412C32.8958 135.777 32.4333 136.023 31.8818 136.15C31.5856 136.223 31.2507 136.26 30.877 136.26C29.9655 136.26 29.193 135.929 28.5596 135.269C27.9261 134.603 27.6094 133.674 27.6094 132.479C27.6094 131.304 27.9284 130.349 28.5664 129.615C29.2044 128.882 30.0384 128.515 31.0684 128.515ZM33.0303 131.755C32.9801 131.222 32.8639 130.796 32.6816 130.477C32.3444 129.884 31.7816 129.588 30.9932 129.588C30.4281 129.588 29.9541 129.793 29.5713 130.203C29.1885 130.609 28.9857 131.126 28.9629 131.755H33.0303ZM36.7559 134.052C36.7559 134.407 36.8857 134.688 37.1455 134.893C37.4053 135.098 37.7129 135.2 38.0684 135.2C38.5013 135.2 38.9206 135.1 39.3262 134.899C40.0098 134.567 40.3516 134.022 40.3516 133.266V132.274C40.2012 132.37 40.0075 132.45 39.7705 132.514C39.5335 132.577 39.3011 132.623 39.0732 132.65L38.3281 132.746C37.8815 132.805 37.5465 132.899 37.3232 133.026C36.945 133.241 36.7559 133.582 36.7559 134.052ZM39.7363 131.563C40.0189 131.527 40.208 131.409 40.3037 131.208C40.3584 131.099 40.3857 130.941 40.3857 130.736C40.3857 130.317 40.2354 130.014 39.9346 129.827C39.6383 129.636 39.2122 129.54 38.6562 129.54C38.0137 129.54 37.5579 129.713 37.2891 130.06C37.1387 130.251 37.0407 130.536 36.9951 130.914H35.8467C35.8695 130.012 36.1611 129.385 36.7217 129.034C37.2868 128.679 37.9408 128.501 38.6836 128.501C39.5449 128.501 40.2445 128.665 40.7822 128.993C41.3154 129.321 41.582 129.832 41.582 130.524V134.742C41.582 134.87 41.6071 134.972 41.6572 135.05C41.7119 135.127 41.8236 135.166 41.9922 135.166C42.0469 135.166 42.1084 135.164 42.1768 135.159C42.2451 135.15 42.318 135.139 42.3955 135.125V136.034C42.2041 136.089 42.0583 136.123 41.958 136.137C41.8577 136.15 41.721 136.157 41.5479 136.157C41.124 136.157 40.8164 136.007 40.625 135.706C40.5247 135.547 40.4541 135.321 40.4131 135.029C40.1624 135.357 39.8024 135.642 39.333 135.884C38.8636 136.125 38.3464 136.246 37.7812 136.246C37.1022 136.246 36.5462 136.041 36.1133 135.631C35.6849 135.216 35.4707 134.699 35.4707 134.079C35.4707 133.4 35.6826 132.874 36.1064 132.5C36.5303 132.126 37.0863 131.896 37.7744 131.81L39.7363 131.563ZM44.3369 133.703C44.3734 134.113 44.4759 134.428 44.6445 134.646C44.9544 135.043 45.4922 135.241 46.2578 135.241C46.7135 135.241 47.1146 135.143 47.4609 134.947C47.8073 134.747 47.9805 134.439 47.9805 134.024C47.9805 133.71 47.8415 133.471 47.5635 133.307C47.3857 133.206 47.0348 133.09 46.5107 132.958L45.5332 132.712C44.9089 132.557 44.4486 132.384 44.1523 132.192C43.6237 131.86 43.3594 131.399 43.3594 130.812C43.3594 130.119 43.6077 129.558 44.1045 129.13C44.6058 128.701 45.278 128.487 46.1211 128.487C47.224 128.487 48.0192 128.811 48.5068 129.458C48.8122 129.868 48.9603 130.31 48.9512 130.784H47.7891C47.7663 130.506 47.6683 130.253 47.4951 130.025C47.2126 129.702 46.7227 129.54 46.0254 129.54C45.5605 129.54 45.2074 129.629 44.9658 129.807C44.7288 129.984 44.6104 130.219 44.6104 130.511C44.6104 130.83 44.7676 131.085 45.082 131.276C45.2643 131.39 45.5332 131.491 45.8887 131.577L46.7021 131.775C47.5863 131.99 48.1787 132.197 48.4795 132.397C48.958 132.712 49.1973 133.206 49.1973 133.881C49.1973 134.533 48.9489 135.095 48.4521 135.569C47.96 136.043 47.208 136.28 46.1963 136.28C45.1071 136.28 44.3346 136.034 43.8789 135.542C43.4277 135.045 43.1862 134.432 43.1543 133.703H44.3369ZM50.8516 126.635H52.0957V128.679H53.2646V129.684H52.0957V134.462C52.0957 134.717 52.1823 134.888 52.3555 134.975C52.4512 135.025 52.6107 135.05 52.834 135.05C52.8932 135.05 52.957 135.05 53.0254 135.05C53.0938 135.045 53.1735 135.038 53.2646 135.029V136C53.1234 136.041 52.9753 136.071 52.8203 136.089C52.6699 136.107 52.5059 136.116 52.3281 136.116C51.7539 136.116 51.3643 135.97 51.1592 135.679C50.9541 135.382 50.8516 135 50.8516 134.53V129.684H49.8604V128.679H50.8516V126.635ZM61.3037 135.207C62.1195 135.207 62.6777 134.899 62.9785 134.284C63.2839 133.664 63.4365 132.976 63.4365 132.22C63.4365 131.536 63.3271 130.98 63.1084 130.552C62.762 129.877 62.165 129.54 61.3174 129.54C60.5654 129.54 60.0186 129.827 59.6768 130.401C59.335 130.976 59.1641 131.668 59.1641 132.479C59.1641 133.259 59.335 133.908 59.6768 134.428C60.0186 134.947 60.5609 135.207 61.3037 135.207ZM61.3516 128.467C62.2949 128.467 63.0924 128.781 63.7441 129.41C64.3958 130.039 64.7217 130.964 64.7217 132.186C64.7217 133.366 64.4346 134.341 63.8604 135.111C63.2861 135.882 62.3952 136.267 61.1875 136.267C60.1803 136.267 59.3805 135.927 58.7881 135.248C58.1956 134.564 57.8994 133.648 57.8994 132.5C57.8994 131.27 58.2116 130.29 58.8359 129.561C59.4603 128.831 60.2988 128.467 61.3516 128.467ZM66.499 127.564C66.5173 127.054 66.6061 126.68 66.7656 126.443C67.0527 126.024 67.6064 125.814 68.4268 125.814C68.5042 125.814 68.584 125.817 68.666 125.821C68.748 125.826 68.8415 125.833 68.9463 125.842V126.963C68.8187 126.954 68.7253 126.949 68.666 126.949C68.6113 126.945 68.5589 126.942 68.5088 126.942C68.1351 126.942 67.9118 127.04 67.8389 127.236C67.766 127.428 67.7295 127.92 67.7295 128.713H68.9463V129.684H67.7158V136H66.499V129.684H65.4805V128.713H66.499V127.564ZM74.4219 129.068V128.125C75.3105 128.038 75.9303 127.895 76.2812 127.694C76.6322 127.489 76.8942 127.008 77.0674 126.252H78.0381V136H76.7256V129.068H74.4219ZM84.9766 128.679H86.5693L88.251 131.256L89.9531 128.679L91.4502 128.713L88.9824 132.247L91.5596 136H89.9873L88.1689 133.252L86.4053 136H84.8467L87.4238 132.247L84.9766 128.679ZM97.9922 131.885L96.4678 127.448L94.8477 131.885H97.9922ZM95.7568 125.958H97.2949L100.938 136H99.4482L98.4297 132.992H94.458L93.3711 136H91.9766L95.7568 125.958ZM106.845 130.559C107.483 130.559 107.986 130.431 108.355 130.176C108.729 129.921 108.916 129.46 108.916 128.795C108.916 128.079 108.656 127.592 108.137 127.332C107.859 127.195 107.487 127.127 107.022 127.127H103.7V130.559H106.845ZM102.34 125.958H106.988C107.754 125.958 108.385 126.07 108.882 126.293C109.825 126.721 110.297 127.512 110.297 128.665C110.297 129.267 110.172 129.759 109.921 130.142C109.675 130.524 109.328 130.832 108.882 131.064C109.274 131.224 109.568 131.434 109.764 131.693C109.964 131.953 110.076 132.375 110.099 132.958L110.146 134.305C110.16 134.688 110.192 134.972 110.242 135.159C110.324 135.478 110.47 135.683 110.68 135.774V136H109.012C108.966 135.913 108.93 135.802 108.902 135.665C108.875 135.528 108.852 135.264 108.834 134.872L108.752 133.197C108.72 132.541 108.476 132.101 108.021 131.878C107.761 131.755 107.353 131.693 106.797 131.693H103.7V136H102.34V125.958ZM116.524 125.685C117.796 125.685 118.783 126.02 119.484 126.689C120.186 127.359 120.576 128.12 120.653 128.973H119.327C119.177 128.326 118.876 127.813 118.425 127.435C117.978 127.056 117.349 126.867 116.538 126.867C115.549 126.867 114.749 127.216 114.139 127.913C113.533 128.606 113.229 129.67 113.229 131.105C113.229 132.281 113.503 133.236 114.05 133.97C114.601 134.699 115.422 135.063 116.511 135.063C117.513 135.063 118.277 134.678 118.801 133.908C119.079 133.503 119.286 132.969 119.423 132.309H120.749C120.631 133.366 120.239 134.252 119.573 134.968C118.776 135.829 117.7 136.26 116.347 136.26C115.18 136.26 114.2 135.907 113.407 135.2C112.364 134.266 111.842 132.824 111.842 130.873C111.842 129.392 112.234 128.177 113.018 127.229C113.865 126.2 115.034 125.685 116.524 125.685ZM122.444 125.958H123.818V130.107H129.041V125.958H130.415V136H129.041V131.304H123.818V136H122.444V125.958ZM137.203 134.052C137.203 134.407 137.333 134.688 137.593 134.893C137.853 135.098 138.16 135.2 138.516 135.2C138.949 135.2 139.368 135.1 139.773 134.899C140.457 134.567 140.799 134.022 140.799 133.266V132.274C140.648 132.37 140.455 132.45 140.218 132.514C139.981 132.577 139.748 132.623 139.521 132.65L138.775 132.746C138.329 132.805 137.994 132.899 137.771 133.026C137.392 133.241 137.203 133.582 137.203 134.052ZM140.184 131.563C140.466 131.527 140.655 131.409 140.751 131.208C140.806 131.099 140.833 130.941 140.833 130.736C140.833 130.317 140.683 130.014 140.382 129.827C140.086 129.636 139.66 129.54 139.104 129.54C138.461 129.54 138.005 129.713 137.736 130.06C137.586 130.251 137.488 130.536 137.442 130.914H136.294C136.317 130.012 136.608 129.385 137.169 129.034C137.734 128.679 138.388 128.501 139.131 128.501C139.992 128.501 140.692 128.665 141.229 128.993C141.763 129.321 142.029 129.832 142.029 130.524V134.742C142.029 134.87 142.054 134.972 142.104 135.05C142.159 135.127 142.271 135.166 142.439 135.166C142.494 135.166 142.556 135.164 142.624 135.159C142.692 135.15 142.765 135.139 142.843 135.125V136.034C142.651 136.089 142.506 136.123 142.405 136.137C142.305 136.15 142.168 136.157 141.995 136.157C141.571 136.157 141.264 136.007 141.072 135.706C140.972 135.547 140.901 135.321 140.86 135.029C140.61 135.357 140.25 135.642 139.78 135.884C139.311 136.125 138.794 136.246 138.229 136.246C137.549 136.246 136.993 136.041 136.561 135.631C136.132 135.216 135.918 134.699 135.918 134.079C135.918 133.4 136.13 132.874 136.554 132.5C136.978 132.126 137.534 131.896 138.222 131.81L140.184 131.563ZM144.053 128.679H145.222V129.718C145.568 129.289 145.935 128.982 146.322 128.795C146.71 128.608 147.14 128.515 147.614 128.515C148.653 128.515 149.355 128.877 149.72 129.602C149.92 129.998 150.021 130.565 150.021 131.304V136H148.77V131.386C148.77 130.939 148.703 130.579 148.571 130.306C148.353 129.85 147.956 129.622 147.382 129.622C147.09 129.622 146.851 129.652 146.664 129.711C146.327 129.811 146.031 130.012 145.775 130.312C145.57 130.554 145.436 130.805 145.372 131.064C145.313 131.32 145.283 131.687 145.283 132.165V136H144.053V128.679ZM152.625 132.425C152.625 133.209 152.791 133.865 153.124 134.394C153.457 134.922 153.99 135.187 154.724 135.187C155.293 135.187 155.76 134.943 156.125 134.455C156.494 133.963 156.679 133.259 156.679 132.343C156.679 131.418 156.49 130.734 156.111 130.292C155.733 129.845 155.266 129.622 154.71 129.622C154.09 129.622 153.587 129.859 153.199 130.333C152.816 130.807 152.625 131.504 152.625 132.425ZM154.478 128.549C155.038 128.549 155.507 128.667 155.886 128.904C156.104 129.041 156.353 129.28 156.631 129.622V125.924H157.813V136H156.706V134.981C156.419 135.433 156.079 135.758 155.688 135.959C155.296 136.16 154.847 136.26 154.341 136.26C153.525 136.26 152.819 135.918 152.222 135.234C151.625 134.546 151.326 133.632 151.326 132.493C151.326 131.427 151.597 130.504 152.14 129.725C152.687 128.941 153.466 128.549 154.478 128.549ZM164.479 134.052C164.479 134.407 164.608 134.688 164.868 134.893C165.128 135.098 165.436 135.2 165.791 135.2C166.224 135.2 166.643 135.1 167.049 134.899C167.732 134.567 168.074 134.022 168.074 133.266V132.274C167.924 132.37 167.73 132.45 167.493 132.514C167.256 132.577 167.024 132.623 166.796 132.65L166.051 132.746C165.604 132.805 165.269 132.899 165.046 133.026C164.668 133.241 164.479 133.582 164.479 134.052ZM167.459 131.563C167.742 131.527 167.931 131.409 168.026 131.208C168.081 131.099 168.108 130.941 168.108 130.736C168.108 130.317 167.958 130.014 167.657 129.827C167.361 129.636 166.935 129.54 166.379 129.54C165.736 129.54 165.281 129.713 165.012 130.06C164.861 130.251 164.763 130.536 164.718 130.914H163.569C163.592 130.012 163.884 129.385 164.444 129.034C165.009 128.679 165.663 128.501 166.406 128.501C167.268 128.501 167.967 128.665 168.505 128.993C169.038 129.321 169.305 129.832 169.305 130.524V134.742C169.305 134.87 169.33 134.972 169.38 135.05C169.435 135.127 169.546 135.166 169.715 135.166C169.77 135.166 169.831 135.164 169.899 135.159C169.968 135.15 170.041 135.139 170.118 135.125V136.034C169.927 136.089 169.781 136.123 169.681 136.137C169.58 136.15 169.444 136.157 169.271 136.157C168.847 136.157 168.539 136.007 168.348 135.706C168.247 135.547 168.177 135.321 168.136 135.029C167.885 135.357 167.525 135.642 167.056 135.884C166.586 136.125 166.069 136.246 165.504 136.246C164.825 136.246 164.269 136.041 163.836 135.631C163.408 135.216 163.193 134.699 163.193 134.079C163.193 133.4 163.405 132.874 163.829 132.5C164.253 132.126 164.809 131.896 165.497 131.81L167.459 131.563ZM171.232 125.924H172.429V129.567C172.698 129.216 173.019 128.95 173.393 128.768C173.766 128.581 174.172 128.487 174.609 128.487C175.521 128.487 176.259 128.802 176.824 129.431C177.394 130.055 177.679 130.978 177.679 132.199C177.679 133.357 177.398 134.318 176.838 135.084C176.277 135.85 175.5 136.232 174.507 136.232C173.951 136.232 173.481 136.098 173.099 135.829C172.871 135.67 172.627 135.414 172.367 135.063V136H171.232V125.924ZM174.432 135.146C175.097 135.146 175.594 134.881 175.922 134.353C176.255 133.824 176.421 133.127 176.421 132.261C176.421 131.491 176.255 130.853 175.922 130.347C175.594 129.841 175.108 129.588 174.466 129.588C173.905 129.588 173.413 129.795 172.989 130.21C172.57 130.625 172.36 131.308 172.36 132.261C172.36 132.949 172.447 133.507 172.62 133.936C172.944 134.742 173.548 135.146 174.432 135.146ZM182.026 135.207C182.842 135.207 183.4 134.899 183.701 134.284C184.007 133.664 184.159 132.976 184.159 132.22C184.159 131.536 184.05 130.98 183.831 130.552C183.485 129.877 182.888 129.54 182.04 129.54C181.288 129.54 180.741 129.827 180.399 130.401C180.058 130.976 179.887 131.668 179.887 132.479C179.887 133.259 180.058 133.908 180.399 134.428C180.741 134.947 181.284 135.207 182.026 135.207ZM182.074 128.467C183.018 128.467 183.815 128.781 184.467 129.41C185.118 130.039 185.444 130.964 185.444 132.186C185.444 133.366 185.157 134.341 184.583 135.111C184.009 135.882 183.118 136.267 181.91 136.267C180.903 136.267 180.103 135.927 179.511 135.248C178.918 134.564 178.622 133.648 178.622 132.5C178.622 131.27 178.934 130.29 179.559 129.561C180.183 128.831 181.021 128.467 182.074 128.467ZM187.516 128.679L189.471 134.64L191.515 128.679H192.861L190.1 136H188.787L186.087 128.679H187.516ZM196.963 128.515C197.482 128.515 197.986 128.638 198.474 128.884C198.961 129.125 199.333 129.44 199.588 129.827C199.834 130.196 199.998 130.627 200.08 131.119C200.153 131.456 200.189 131.994 200.189 132.732H194.823C194.846 133.475 195.021 134.072 195.35 134.523C195.678 134.97 196.186 135.193 196.874 135.193C197.517 135.193 198.029 134.981 198.412 134.558C198.631 134.312 198.786 134.027 198.877 133.703H200.087C200.055 133.972 199.948 134.273 199.766 134.605C199.588 134.934 199.387 135.202 199.164 135.412C198.79 135.777 198.328 136.023 197.776 136.15C197.48 136.223 197.145 136.26 196.771 136.26C195.86 136.26 195.088 135.929 194.454 135.269C193.821 134.603 193.504 133.674 193.504 132.479C193.504 131.304 193.823 130.349 194.461 129.615C195.099 128.882 195.933 128.515 196.963 128.515ZM198.925 131.755C198.875 131.222 198.758 130.796 198.576 130.477C198.239 129.884 197.676 129.588 196.888 129.588C196.323 129.588 195.849 129.793 195.466 130.203C195.083 130.609 194.88 131.126 194.857 131.755H198.925ZM202.001 134.51H203.43V136H202.001V134.51ZM216.726 125.958V127.154H213.342V136H211.961V127.154H208.577V125.958H216.726ZM217.812 125.924H219.043V129.67C219.335 129.301 219.597 129.041 219.829 128.891C220.226 128.631 220.72 128.501 221.312 128.501C222.374 128.501 223.094 128.872 223.473 129.615C223.678 130.021 223.78 130.584 223.78 131.304V136H222.516V131.386C222.516 130.848 222.447 130.454 222.311 130.203C222.087 129.802 221.668 129.602 221.053 129.602C220.542 129.602 220.08 129.777 219.665 130.128C219.25 130.479 219.043 131.142 219.043 132.117V136H217.812V125.924ZM228.654 128.515C229.174 128.515 229.677 128.638 230.165 128.884C230.653 129.125 231.024 129.44 231.279 129.827C231.525 130.196 231.689 130.627 231.771 131.119C231.844 131.456 231.881 131.994 231.881 132.732H226.515C226.537 133.475 226.713 134.072 227.041 134.523C227.369 134.97 227.877 135.193 228.565 135.193C229.208 135.193 229.721 134.981 230.104 134.558C230.322 134.312 230.477 134.027 230.568 133.703H231.778C231.746 133.972 231.639 134.273 231.457 134.605C231.279 134.934 231.079 135.202 230.855 135.412C230.482 135.777 230.019 136.023 229.468 136.15C229.172 136.223 228.837 136.26 228.463 136.26C227.551 136.26 226.779 135.929 226.146 135.269C225.512 134.603 225.195 133.674 225.195 132.479C225.195 131.304 225.514 130.349 226.152 129.615C226.79 128.882 227.624 128.515 228.654 128.515ZM230.616 131.755C230.566 131.222 230.45 130.796 230.268 130.477C229.93 129.884 229.368 129.588 228.579 129.588C228.014 129.588 227.54 129.793 227.157 130.203C226.774 130.609 226.572 131.126 226.549 131.755H230.616ZM237.295 128.679H238.512V129.718C238.803 129.358 239.068 129.096 239.305 128.932C239.71 128.654 240.171 128.515 240.686 128.515C241.269 128.515 241.738 128.658 242.094 128.945C242.294 129.109 242.477 129.351 242.641 129.67C242.914 129.278 243.235 128.989 243.604 128.802C243.974 128.61 244.388 128.515 244.849 128.515C245.833 128.515 246.503 128.87 246.858 129.581C247.05 129.964 247.146 130.479 247.146 131.126V136H245.867V130.914C245.867 130.426 245.744 130.091 245.498 129.909C245.257 129.727 244.96 129.636 244.609 129.636C244.126 129.636 243.709 129.798 243.358 130.121C243.012 130.445 242.839 130.985 242.839 131.741V136H241.588V131.222C241.588 130.725 241.529 130.363 241.41 130.135C241.223 129.793 240.875 129.622 240.364 129.622C239.899 129.622 239.476 129.802 239.093 130.162C238.715 130.522 238.525 131.174 238.525 132.117V136H237.295V128.679ZM251.862 135.207C252.678 135.207 253.236 134.899 253.537 134.284C253.842 133.664 253.995 132.976 253.995 132.22C253.995 131.536 253.886 130.98 253.667 130.552C253.321 129.877 252.724 129.54 251.876 129.54C251.124 129.54 250.577 129.827 250.235 130.401C249.894 130.976 249.723 131.668 249.723 132.479C249.723 133.259 249.894 133.908 250.235 134.428C250.577 134.947 251.119 135.207 251.862 135.207ZM251.91 128.467C252.854 128.467 253.651 128.781 254.303 129.41C254.954 130.039 255.28 130.964 255.28 132.186C255.28 133.366 254.993 134.341 254.419 135.111C253.845 135.882 252.954 136.267 251.746 136.267C250.739 136.267 249.939 135.927 249.347 135.248C248.754 134.564 248.458 133.648 248.458 132.5C248.458 131.27 248.77 130.29 249.395 129.561C250.019 128.831 250.857 128.467 251.91 128.467ZM256.784 128.679H257.953V129.943C258.049 129.697 258.284 129.399 258.657 129.048C259.031 128.692 259.462 128.515 259.949 128.515C259.972 128.515 260.011 128.517 260.065 128.521C260.12 128.526 260.214 128.535 260.346 128.549V129.848C260.273 129.834 260.204 129.825 260.141 129.82C260.081 129.816 260.015 129.813 259.942 129.813C259.323 129.813 258.846 130.014 258.514 130.415C258.181 130.812 258.015 131.27 258.015 131.789V136H256.784V128.679ZM264.461 128.515C264.98 128.515 265.484 128.638 265.972 128.884C266.459 129.125 266.831 129.44 267.086 129.827C267.332 130.196 267.496 130.627 267.578 131.119C267.651 131.456 267.688 131.994 267.688 132.732H262.321C262.344 133.475 262.52 134.072 262.848 134.523C263.176 134.97 263.684 135.193 264.372 135.193C265.015 135.193 265.527 134.981 265.91 134.558C266.129 134.312 266.284 134.027 266.375 133.703H267.585C267.553 133.972 267.446 134.273 267.264 134.605C267.086 134.934 266.885 135.202 266.662 135.412C266.288 135.777 265.826 136.023 265.274 136.15C264.978 136.223 264.643 136.26 264.27 136.26C263.358 136.26 262.586 135.929 261.952 135.269C261.319 134.603 261.002 133.674 261.002 132.479C261.002 131.304 261.321 130.349 261.959 129.615C262.597 128.882 263.431 128.515 264.461 128.515ZM266.423 131.755C266.373 131.222 266.257 130.796 266.074 130.477C265.737 129.884 265.174 129.588 264.386 129.588C263.821 129.588 263.347 129.793 262.964 130.203C262.581 130.609 262.378 131.126 262.355 131.755H266.423ZM269.465 137.429C269.779 137.374 270 137.153 270.128 136.766C270.196 136.561 270.23 136.362 270.23 136.171C270.23 136.139 270.228 136.109 270.224 136.082C270.224 136.059 270.219 136.032 270.21 136H269.465V134.51H270.928V135.891C270.928 136.433 270.818 136.909 270.6 137.319C270.381 137.729 270.003 137.982 269.465 138.078V137.429ZM25.1484 148.635H26.3926V150.679H27.5615V151.684H26.3926V156.462C26.3926 156.717 26.4792 156.888 26.6523 156.975C26.748 157.025 26.9076 157.05 27.1309 157.05C27.1901 157.05 27.2539 157.05 27.3223 157.05C27.3906 157.045 27.4704 157.038 27.5615 157.029V158C27.4202 158.041 27.2721 158.071 27.1172 158.089C26.9668 158.107 26.8027 158.116 26.625 158.116C26.0508 158.116 25.6611 157.97 25.4561 157.679C25.251 157.382 25.1484 157 25.1484 156.53V151.684H24.1572V150.679H25.1484V148.635ZM28.7988 147.924H30.0293V151.67C30.321 151.301 30.583 151.041 30.8154 150.891C31.2119 150.631 31.7064 150.501 32.2988 150.501C33.3607 150.501 34.0807 150.872 34.459 151.615C34.6641 152.021 34.7666 152.584 34.7666 153.304V158H33.502V153.386C33.502 152.848 33.4336 152.454 33.2969 152.203C33.0736 151.802 32.6543 151.602 32.0391 151.602C31.5286 151.602 31.0661 151.777 30.6514 152.128C30.2367 152.479 30.0293 153.142 30.0293 154.117V158H28.7988V147.924ZM39.6406 150.515C40.1602 150.515 40.6637 150.638 41.1514 150.884C41.639 151.125 42.0104 151.44 42.2656 151.827C42.5117 152.196 42.6758 152.627 42.7578 153.119C42.8307 153.456 42.8672 153.994 42.8672 154.732H37.501C37.5238 155.475 37.6992 156.072 38.0273 156.523C38.3555 156.97 38.8636 157.193 39.5518 157.193C40.1943 157.193 40.707 156.981 41.0898 156.558C41.3086 156.312 41.4635 156.027 41.5547 155.703H42.7646C42.7327 155.972 42.6257 156.273 42.4434 156.605C42.2656 156.934 42.0651 157.202 41.8418 157.412C41.4681 157.777 41.0055 158.023 40.4541 158.15C40.1579 158.223 39.8229 158.26 39.4492 158.26C38.5378 158.26 37.7653 157.929 37.1318 157.269C36.4984 156.603 36.1816 155.674 36.1816 154.479C36.1816 153.304 36.5007 152.349 37.1387 151.615C37.7767 150.882 38.6107 150.515 39.6406 150.515ZM41.6025 153.755C41.5524 153.222 41.4362 152.796 41.2539 152.477C40.9167 151.884 40.3538 151.588 39.5654 151.588C39.0003 151.588 38.5264 151.793 38.1436 152.203C37.7607 152.609 37.5579 153.126 37.5352 153.755H41.6025ZM48.1855 147.924H49.3818V151.567C49.6507 151.216 49.972 150.95 50.3457 150.768C50.7194 150.581 51.125 150.487 51.5625 150.487C52.474 150.487 53.2122 150.802 53.7773 151.431C54.347 152.055 54.6318 152.978 54.6318 154.199C54.6318 155.357 54.3516 156.318 53.791 157.084C53.2305 157.85 52.4535 158.232 51.46 158.232C50.904 158.232 50.4346 158.098 50.0518 157.829C49.8239 157.67 49.5801 157.414 49.3203 157.063V158H48.1855V147.924ZM51.3848 157.146C52.0501 157.146 52.5469 156.881 52.875 156.353C53.2077 155.824 53.374 155.127 53.374 154.261C53.374 153.491 53.2077 152.853 52.875 152.347C52.5469 151.841 52.0615 151.588 51.4189 151.588C50.8584 151.588 50.3662 151.795 49.9424 152.21C49.5231 152.625 49.3135 153.308 49.3135 154.261C49.3135 154.949 49.4001 155.507 49.5732 155.936C49.8968 156.742 50.5007 157.146 51.3848 157.146ZM59.123 150.515C59.6426 150.515 60.1462 150.638 60.6338 150.884C61.1214 151.125 61.4928 151.44 61.748 151.827C61.9941 152.196 62.1582 152.627 62.2402 153.119C62.3132 153.456 62.3496 153.994 62.3496 154.732H56.9834C57.0062 155.475 57.1816 156.072 57.5098 156.523C57.8379 156.97 58.346 157.193 59.0342 157.193C59.6768 157.193 60.1895 156.981 60.5723 156.558C60.791 156.312 60.946 156.027 61.0371 155.703H62.2471C62.2152 155.972 62.1081 156.273 61.9258 156.605C61.748 156.934 61.5475 157.202 61.3242 157.412C60.9505 157.777 60.488 158.023 59.9365 158.15C59.6403 158.223 59.3053 158.26 58.9316 158.26C58.0202 158.26 57.2477 157.929 56.6143 157.269C55.9808 156.603 55.6641 155.674 55.6641 154.479C55.6641 153.304 55.9831 152.349 56.6211 151.615C57.2591 150.882 58.0931 150.515 59.123 150.515ZM61.085 153.755C61.0348 153.222 60.9186 152.796 60.7363 152.477C60.3991 151.884 59.8363 151.588 59.0479 151.588C58.4827 151.588 58.0088 151.793 57.626 152.203C57.2432 152.609 57.0404 153.126 57.0176 153.755H61.085ZM64.1133 148.635H65.3574V150.679H66.5264V151.684H65.3574V156.462C65.3574 156.717 65.444 156.888 65.6172 156.975C65.7129 157.025 65.8724 157.05 66.0957 157.05C66.1549 157.05 66.2188 157.05 66.2871 157.05C66.3555 157.045 66.4352 157.038 66.5264 157.029V158C66.3851 158.041 66.237 158.071 66.082 158.089C65.9316 158.107 65.7676 158.116 65.5898 158.116C65.0156 158.116 64.626 157.97 64.4209 157.679C64.2158 157.382 64.1133 157 64.1133 156.53V151.684H63.1221V150.679H64.1133V148.635ZM68.0098 148.635H69.2539V150.679H70.4229V151.684H69.2539V156.462C69.2539 156.717 69.3405 156.888 69.5137 156.975C69.6094 157.025 69.7689 157.05 69.9922 157.05C70.0514 157.05 70.1152 157.05 70.1836 157.05C70.252 157.045 70.3317 157.038 70.4229 157.029V158C70.2816 158.041 70.1335 158.071 69.9785 158.089C69.8281 158.107 69.6641 158.116 69.4863 158.116C68.9121 158.116 68.5225 157.97 68.3174 157.679C68.1123 157.382 68.0098 157 68.0098 156.53V151.684H67.0186V150.679H68.0098V148.635ZM74.709 150.515C75.2285 150.515 75.7321 150.638 76.2197 150.884C76.7074 151.125 77.0788 151.44 77.334 151.827C77.5801 152.196 77.7441 152.627 77.8262 153.119C77.8991 153.456 77.9355 153.994 77.9355 154.732H72.5693C72.5921 155.475 72.7676 156.072 73.0957 156.523C73.4238 156.97 73.932 157.193 74.6201 157.193C75.2627 157.193 75.7754 156.981 76.1582 156.558C76.377 156.312 76.5319 156.027 76.623 155.703H77.833C77.8011 155.972 77.694 156.273 77.5117 156.605C77.334 156.934 77.1335 157.202 76.9102 157.412C76.5365 157.777 76.0739 158.023 75.5225 158.15C75.2262 158.223 74.8913 158.26 74.5176 158.26C73.6061 158.26 72.8337 157.929 72.2002 157.269C71.5667 156.603 71.25 155.674 71.25 154.479C71.25 153.304 71.569 152.349 72.207 151.615C72.8451 150.882 73.679 150.515 74.709 150.515ZM76.6709 153.755C76.6208 153.222 76.5046 152.796 76.3223 152.477C75.985 151.884 75.4222 151.588 74.6338 151.588C74.0687 151.588 73.5947 151.793 73.2119 152.203C72.8291 152.609 72.6263 153.126 72.6035 153.755H76.6709ZM79.4873 150.679H80.6562V151.943C80.752 151.697 80.9867 151.399 81.3604 151.048C81.734 150.692 82.1647 150.515 82.6523 150.515C82.6751 150.515 82.7139 150.517 82.7686 150.521C82.8232 150.526 82.9167 150.535 83.0488 150.549V151.848C82.9759 151.834 82.9076 151.825 82.8438 151.82C82.7845 151.816 82.7184 151.813 82.6455 151.813C82.0257 151.813 81.5495 152.014 81.2168 152.415C80.8841 152.812 80.7178 153.27 80.7178 153.789V158H79.4873V150.679ZM84.833 147.958H86.2207V151.26L85.8857 155.607H85.1885L84.833 151.26V147.958ZM84.833 156.578H86.1934V158H84.833V156.578Z" fill="black"/>
            <path d="M28.541 194.158C29.6309 194.158 30.4766 194.445 31.0781 195.02C31.6797 195.594 32.0137 196.246 32.0801 196.977H30.9434C30.8145 196.422 30.5566 195.982 30.1699 195.658C29.7871 195.334 29.248 195.172 28.5527 195.172C27.7051 195.172 27.0195 195.471 26.4961 196.068C25.9766 196.662 25.7168 197.574 25.7168 198.805C25.7168 199.812 25.9512 200.631 26.4199 201.26C26.8926 201.885 27.5957 202.197 28.5293 202.197C29.3887 202.197 30.043 201.867 30.4922 201.207C30.7305 200.859 30.9082 200.402 31.0254 199.836H32.1621C32.0605 200.742 31.7246 201.502 31.1543 202.115C30.4707 202.854 29.5488 203.223 28.3887 203.223C27.3887 203.223 26.5488 202.92 25.8691 202.314C24.9746 201.514 24.5273 200.277 24.5273 198.605C24.5273 197.336 24.8633 196.295 25.5352 195.482C26.2617 194.6 27.2637 194.158 28.541 194.158ZM35.9355 202.32C36.6348 202.32 37.1133 202.057 37.3711 201.529C37.6328 200.998 37.7637 200.408 37.7637 199.76C37.7637 199.174 37.6699 198.697 37.4824 198.33C37.1855 197.752 36.6738 197.463 35.9473 197.463C35.3027 197.463 34.834 197.709 34.541 198.201C34.248 198.693 34.1016 199.287 34.1016 199.982C34.1016 200.65 34.248 201.207 34.541 201.652C34.834 202.098 35.2988 202.32 35.9355 202.32ZM35.9766 196.543C36.7852 196.543 37.4688 196.812 38.0273 197.352C38.5859 197.891 38.8652 198.684 38.8652 199.73C38.8652 200.742 38.6191 201.578 38.127 202.238C37.6348 202.898 36.8711 203.229 35.8359 203.229C34.9727 203.229 34.2871 202.938 33.7793 202.355C33.2715 201.77 33.0176 200.984 33.0176 200C33.0176 198.945 33.2852 198.105 33.8203 197.48C34.3555 196.855 35.0742 196.543 35.9766 196.543ZM40.125 196.725H41.168V197.615C41.418 197.307 41.6445 197.082 41.8477 196.941C42.1953 196.703 42.5898 196.584 43.0312 196.584C43.5312 196.584 43.9336 196.707 44.2383 196.953C44.4102 197.094 44.5664 197.301 44.707 197.574C44.9414 197.238 45.2168 196.99 45.5332 196.83C45.8496 196.666 46.2051 196.584 46.5996 196.584C47.4434 196.584 48.0176 196.889 48.3223 197.498C48.4863 197.826 48.5684 198.268 48.5684 198.822V203H47.4727V198.641C47.4727 198.223 47.3672 197.936 47.1562 197.779C46.9492 197.623 46.6953 197.545 46.3945 197.545C45.9805 197.545 45.623 197.684 45.3223 197.961C45.0254 198.238 44.877 198.701 44.877 199.35V203H43.8047V198.904C43.8047 198.479 43.7539 198.168 43.6523 197.973C43.4922 197.68 43.1934 197.533 42.7559 197.533C42.3574 197.533 41.9941 197.688 41.666 197.996C41.3418 198.305 41.1797 198.863 41.1797 199.672V203H40.125V196.725ZM50.1211 196.725H51.1641V197.615C51.4141 197.307 51.6406 197.082 51.8438 196.941C52.1914 196.703 52.5859 196.584 53.0273 196.584C53.5273 196.584 53.9297 196.707 54.2344 196.953C54.4062 197.094 54.5625 197.301 54.7031 197.574C54.9375 197.238 55.2129 196.99 55.5293 196.83C55.8457 196.666 56.2012 196.584 56.5957 196.584C57.4395 196.584 58.0137 196.889 58.3184 197.498C58.4824 197.826 58.5645 198.268 58.5645 198.822V203H57.4688V198.641C57.4688 198.223 57.3633 197.936 57.1523 197.779C56.9453 197.623 56.6914 197.545 56.3906 197.545C55.9766 197.545 55.6191 197.684 55.3184 197.961C55.0215 198.238 54.873 198.701 54.873 199.35V203H53.8008V198.904C53.8008 198.479 53.75 198.168 53.6484 197.973C53.4883 197.68 53.1895 197.533 52.752 197.533C52.3535 197.533 51.9902 197.688 51.6621 197.996C51.3379 198.305 51.1758 198.863 51.1758 199.672V203H50.1211V196.725ZM61.1719 196.725V200.891C61.1719 201.211 61.2227 201.473 61.3242 201.676C61.5117 202.051 61.8613 202.238 62.373 202.238C63.1074 202.238 63.6074 201.91 63.873 201.254C64.0176 200.902 64.0898 200.42 64.0898 199.807V196.725H65.1445V203H64.1484L64.1602 202.074C64.0234 202.312 63.8535 202.514 63.6504 202.678C63.248 203.006 62.7598 203.17 62.1855 203.17C61.291 203.17 60.6816 202.871 60.3574 202.273C60.1816 201.953 60.0938 201.525 60.0938 200.99V196.725H61.1719ZM66.7969 196.725H67.7988V197.615C68.0957 197.248 68.4102 196.984 68.7422 196.824C69.0742 196.664 69.4434 196.584 69.8496 196.584C70.7402 196.584 71.3418 196.895 71.6543 197.516C71.8262 197.855 71.9121 198.342 71.9121 198.975V203H70.8398V199.045C70.8398 198.662 70.7832 198.354 70.6699 198.119C70.4824 197.729 70.1426 197.533 69.6504 197.533C69.4004 197.533 69.1953 197.559 69.0352 197.609C68.7461 197.695 68.4922 197.867 68.2734 198.125C68.0977 198.332 67.9824 198.547 67.9277 198.77C67.877 198.988 67.8516 199.303 67.8516 199.713V203H66.7969V196.725ZM73.4766 196.754H74.5488V203H73.4766V196.754ZM73.4766 194.393H74.5488V195.588H73.4766V194.393ZM76.3594 194.973H77.4258V196.725H78.4277V197.586H77.4258V201.682C77.4258 201.9 77.5 202.047 77.6484 202.121C77.7305 202.164 77.8672 202.186 78.0586 202.186C78.1094 202.186 78.1641 202.186 78.2227 202.186C78.2812 202.182 78.3496 202.176 78.4277 202.168V203C78.3066 203.035 78.1797 203.061 78.0469 203.076C77.918 203.092 77.7773 203.1 77.625 203.1C77.1328 203.1 76.7988 202.975 76.623 202.725C76.4473 202.471 76.3594 202.143 76.3594 201.74V197.586H75.5098V196.725H76.3594V194.973ZM83.4082 196.725H84.5742C84.4258 197.127 84.0957 198.045 83.584 199.479C83.2012 200.557 82.8809 201.436 82.623 202.115C82.0137 203.717 81.584 204.693 81.334 205.045C81.084 205.396 80.6543 205.572 80.0449 205.572C79.8965 205.572 79.7812 205.566 79.6992 205.555C79.6211 205.543 79.5234 205.521 79.4062 205.49V204.529C79.5898 204.58 79.7227 204.611 79.8047 204.623C79.8867 204.635 79.959 204.641 80.0215 204.641C80.2168 204.641 80.3594 204.607 80.4492 204.541C80.543 204.479 80.6211 204.4 80.6836 204.307C80.7031 204.275 80.7734 204.115 80.8945 203.826C81.0156 203.537 81.1035 203.322 81.1582 203.182L78.8379 196.725H80.0332L81.7148 201.834L83.4082 196.725ZM89.707 203H88.3008L91.3828 198.588L88.4941 194.393H89.9531L92.1504 197.686L94.3301 194.393H95.7188L92.8301 198.588L95.8594 203H94.4121L92.0918 199.461L89.707 203ZM97.084 194.393H100.957C101.723 194.393 102.34 194.609 102.809 195.043C103.277 195.473 103.512 196.078 103.512 196.859C103.512 197.531 103.303 198.117 102.885 198.617C102.467 199.113 101.824 199.361 100.957 199.361H98.25V203H97.084V194.393ZM102.334 196.865C102.334 196.232 102.1 195.803 101.631 195.576C101.373 195.455 101.02 195.395 100.57 195.395H98.25V198.377H100.57C101.094 198.377 101.518 198.266 101.842 198.043C102.17 197.82 102.334 197.428 102.334 196.865Z" fill="black"/>
            <path d="M26.6797 218.063C26.4609 218.355 26.3561 218.745 26.3652 219.232H24.5469C24.5651 218.74 24.6494 218.273 24.7998 217.831C24.9593 217.444 25.21 217.086 25.5518 216.758C25.807 216.525 26.11 216.348 26.4609 216.225C26.8118 216.102 27.2425 216.04 27.7529 216.04C28.7008 216.04 29.4642 216.286 30.043 216.778C30.6263 217.266 30.918 217.922 30.918 218.747C30.918 219.33 30.7448 219.823 30.3984 220.224C30.1797 220.474 29.9518 220.645 29.7148 220.736C29.8926 220.736 30.1478 220.889 30.4805 221.194C30.9772 221.655 31.2256 222.284 31.2256 223.081C31.2256 223.92 30.9339 224.658 30.3506 225.296C29.7718 225.929 28.9128 226.246 27.7734 226.246C26.3698 226.246 25.3945 225.788 24.8477 224.872C24.5605 224.384 24.401 223.746 24.3691 222.958H26.2832C26.2832 223.354 26.347 223.683 26.4746 223.942C26.7116 224.421 27.1423 224.66 27.7666 224.66C28.1494 224.66 28.4821 224.53 28.7646 224.271C29.0518 224.006 29.1953 223.628 29.1953 223.136C29.1953 222.484 28.931 222.049 28.4023 221.83C28.1016 221.707 27.6276 221.646 26.9805 221.646V220.251C27.6139 220.242 28.056 220.18 28.3066 220.066C28.7396 219.875 28.9561 219.488 28.9561 218.904C28.9561 218.526 28.8444 218.218 28.6211 217.981C28.4023 217.744 28.0924 217.626 27.6914 217.626C27.2311 217.626 26.8939 217.772 26.6797 218.063ZM35.6484 226.246C34.3861 226.246 33.4997 225.804 32.9893 224.92C32.4834 224.036 32.2305 222.776 32.2305 221.14C32.2305 219.504 32.4834 218.241 32.9893 217.353C33.4997 216.464 34.3861 216.02 35.6484 216.02C36.9108 216.02 37.7972 216.464 38.3076 217.353C38.8135 218.241 39.0664 219.504 39.0664 221.14C39.0664 222.776 38.8112 224.036 38.3008 224.92C37.7949 225.804 36.9108 226.246 35.6484 226.246ZM36.79 223.751C36.9678 223.149 37.0566 222.279 37.0566 221.14C37.0566 219.946 36.9655 219.062 36.7832 218.487C36.6055 217.913 36.2272 217.626 35.6484 217.626C35.0697 217.626 34.6868 217.913 34.5 218.487C34.3132 219.062 34.2197 219.946 34.2197 221.14C34.2197 222.279 34.3132 223.152 34.5 223.758C34.6868 224.359 35.0697 224.66 35.6484 224.66C36.2272 224.66 36.6077 224.357 36.79 223.751ZM43.4414 226.246C42.179 226.246 41.2926 225.804 40.7822 224.92C40.2764 224.036 40.0234 222.776 40.0234 221.14C40.0234 219.504 40.2764 218.241 40.7822 217.353C41.2926 216.464 42.179 216.02 43.4414 216.02C44.7038 216.02 45.5902 216.464 46.1006 217.353C46.6064 218.241 46.8594 219.504 46.8594 221.14C46.8594 222.776 46.6042 224.036 46.0938 224.92C45.5879 225.804 44.7038 226.246 43.4414 226.246ZM44.583 223.751C44.7607 223.149 44.8496 222.279 44.8496 221.14C44.8496 219.946 44.7585 219.062 44.5762 218.487C44.3984 217.913 44.0202 217.626 43.4414 217.626C42.8626 217.626 42.4798 217.913 42.293 218.487C42.1061 219.062 42.0127 219.946 42.0127 221.14C42.0127 222.279 42.1061 223.152 42.293 223.758C42.4798 224.359 42.8626 224.66 43.4414 224.66C44.0202 224.66 44.4007 224.357 44.583 223.751ZM60.4424 226H57.8857L55.9717 222.568L53.9482 226H51.501L54.7412 220.866L51.6582 215.924H54.1738L55.9717 219.198L57.8174 215.924H60.251L57.168 220.784L60.4424 226ZM65.959 222.377H63.8193V226H61.7275V215.924H66.1162C67.1279 215.924 67.9346 216.184 68.5361 216.703C69.1377 217.223 69.4385 218.027 69.4385 219.116C69.4385 220.306 69.1377 221.146 68.5361 221.639C67.9346 222.131 67.0755 222.377 65.959 222.377ZM66.9434 220.278C67.2168 220.037 67.3535 219.654 67.3535 219.13C67.3535 218.606 67.2145 218.232 66.9365 218.009C66.6631 217.785 66.278 217.674 65.7812 217.674H63.8193V220.641H65.7812C66.278 220.641 66.6654 220.52 66.9434 220.278Z" fill="black"/>
            <rect x="235" y="194" width="59" height="32" rx="8" fill="#FF4D00"/>
            <path d="M253.248 204.958L256.133 213.51L258.983 204.958H260.508L256.844 215H255.401L251.744 204.958H253.248ZM261.383 207.713H262.634V215H261.383V207.713ZM261.383 204.958H262.634V206.353H261.383V204.958ZM265.231 212.703C265.268 213.113 265.37 213.428 265.539 213.646C265.849 214.043 266.387 214.241 267.152 214.241C267.608 214.241 268.009 214.143 268.355 213.947C268.702 213.747 268.875 213.439 268.875 213.024C268.875 212.71 268.736 212.471 268.458 212.307C268.28 212.206 267.929 212.09 267.405 211.958L266.428 211.712C265.803 211.557 265.343 211.384 265.047 211.192C264.518 210.86 264.254 210.399 264.254 209.812C264.254 209.119 264.502 208.558 264.999 208.13C265.5 207.701 266.173 207.487 267.016 207.487C268.118 207.487 268.914 207.811 269.401 208.458C269.707 208.868 269.855 209.31 269.846 209.784H268.684C268.661 209.506 268.563 209.253 268.39 209.025C268.107 208.702 267.617 208.54 266.92 208.54C266.455 208.54 266.102 208.629 265.86 208.807C265.623 208.984 265.505 209.219 265.505 209.511C265.505 209.83 265.662 210.085 265.977 210.276C266.159 210.39 266.428 210.491 266.783 210.577L267.597 210.775C268.481 210.99 269.073 211.197 269.374 211.397C269.853 211.712 270.092 212.206 270.092 212.881C270.092 213.533 269.843 214.095 269.347 214.569C268.854 215.043 268.103 215.28 267.091 215.28C266.002 215.28 265.229 215.034 264.773 214.542C264.322 214.045 264.081 213.432 264.049 212.703H265.231ZM271.5 207.713H272.751V215H271.5V207.713ZM271.5 204.958H272.751V206.353H271.5V204.958ZM274.863 205.635H276.107V207.679H277.276V208.684H276.107V213.462C276.107 213.717 276.194 213.888 276.367 213.975C276.463 214.025 276.622 214.05 276.846 214.05C276.905 214.05 276.969 214.05 277.037 214.05C277.105 214.045 277.185 214.038 277.276 214.029V215C277.135 215.041 276.987 215.071 276.832 215.089C276.682 215.107 276.518 215.116 276.34 215.116C275.766 215.116 275.376 214.97 275.171 214.679C274.966 214.382 274.863 214 274.863 213.53V208.684H273.872V207.679H274.863V205.635Z" fill="white"/>
        </g>
    </g>
    <defs>
        <filter id="filter0_dii_1859_16587" x="-66" y="-196" width="450" height="502" filterUnits="userSpaceOnUse" color-interpolation-filters="sRGB">
            <feFlood flood-opacity="0" result="BackgroundImageFix"/>
            <feColorMatrix in="SourceAlpha" type="matrix" values="0 0 0 0 0 0 0 0 0 0 0 0 0 0 0 0 0 0 127 0" result="hardAlpha"/>
            <feOffset dy="-130"/>
            <feGaussianBlur stdDeviation="33"/>
            <feComposite in2="hardAlpha" operator="out"/>
            <feColorMatrix type="matrix" values="0 0 0 0 0 0 0 0 0 0 0 0 0 0 0 0 0 0 0.09 0"/>
            <feBlend mode="normal" in2="BackgroundImageFix" result="effect1_dropShadow_1859_16587"/>
            <feBlend mode="normal" in="SourceGraphic" in2="effect1_dropShadow_1859_16587" result="shape"/>
            <feColorMatrix in="SourceAlpha" type="matrix" values="0 0 0 0 0 0 0 0 0 0 0 0 0 0 0 0 0 0 127 0" result="hardAlpha"/>
            <feOffset dx="20" dy="84"/>
            <feGaussianBlur stdDeviation="28"/>
            <feComposite in2="hardAlpha" operator="arithmetic" k2="-1" k3="1"/>
            <feColorMatrix type="matrix" values="0 0 0 0 0.94902 0 0 0 0 0.937255 0 0 0 0 0.929412 0 0 0 1 0"/>
            <feBlend mode="normal" in2="shape" result="effect2_innerShadow_1859_16587"/>
            <feColorMatrix in="SourceAlpha" type="matrix" values="0 0 0 0 0 0 0 0 0 0 0 0 0 0 0 0 0 0 127 0" result="hardAlpha"/>
            <feOffset dx="-20" dy="84"/>
            <feGaussianBlur stdDeviation="28"/>
            <feComposite in2="hardAlpha" operator="arithmetic" k2="-1" k3="1"/>
            <feColorMatrix type="matrix" values="0 0 0 0 0.94902 0 0 0 0 0.937255 0 0 0 0 0.929412 0 0 0 1 0"/>
            <feBlend mode="normal" in2="effect2_innerShadow_1859_16587" result="effect3_innerShadow_1859_16587"/>
        </filter>
        <clipPath id="clip0_1859_16587">
            <rect width="318" height="250" fill="white"/>
        </clipPath>
        <clipPath id="clip1_1859_16587">
            <rect width="318" height="250" fill="white"/>
        </clipPath>
    </defs>
</svg>
