<svg width="290" height="290" viewBox="0 0 290 290" fill="none" xmlns="http://www.w3.org/2000/svg">
<path d="M227.697 23H157.092L192.395 84.358H263L227.697 23Z" fill="white"/>
<path d="M192.395 84.358L157.092 23L122.22 84.358L157.076 145.256L157.092 145.284L192.395 84.358Z" fill="#060612"/>
<path d="M122.22 84.358H51.1848L86.6051 145.284H157.092L157.076 145.256L122.22 84.358Z" fill="white"/>
<path d="M86.6051 145.284L51.1848 84.358L16 145.716L51.1848 206.642L86.6051 145.284Z" fill="#060612"/>
<path d="M157.092 145.284L192.427 206.642H263L228.128 145.716L157.092 145.284Z" fill="white"/>
<path d="M121.359 207.074L156.662 268L192.427 206.642L157.092 145.284L121.359 207.074Z" fill="#060612"/>
<path d="M86.6051 145.284L51.1848 206.642L121.359 207.074L157.092 145.284H86.6051Z" fill="#F5BF5B"/>
<path d="M263 84.358H192.395L157.092 145.284L228.128 145.716L263 84.358Z" fill="#F5BF5B"/>
<path d="M192.427 206.642L156.662 268L225 268L263 206.642H192.427Z" fill="#F5BF5B"/>
</svg>
